{"glyphs":{"0":{"ha":900,"x_min":89,"x_max":811,"o":"m 468 849 q 730 736 649 849 q 811 433 811 624 q 763 199 811 303 q 631 38 715 96 q 446 -19 547 -19 q 243 41 324 -19 q 126 202 163 101 q 89 425 89 303 q 141 649 89 553 q 280 797 193 746 q 468 849 367 849 m 456 792 q 260 697 325 792 q 194 433 194 603 q 222 236 194 326 q 308 92 250 146 q 451 38 365 38 q 645 138 582 38 q 708 417 708 238 q 646 690 708 588 q 456 792 583 792 z "},"1":{"ha":633,"x_min":83,"x_max":582,"o":"m 289 60 l 289 736 q 100 679 211 708 l 90 731 q 239 793 150 750 q 353 857 328 836 l 389 847 l 388 60 l 582 46 l 582 0 l 83 0 l 83 46 l 289 60 z "},"2":{"ha":828,"x_min":94,"x_max":763,"o":"m 96 42 q 433 315 297 165 q 569 596 569 465 q 516 735 567 681 q 371 790 465 790 q 235 757 307 790 q 119 681 163 724 l 94 722 q 222 817 136 775 q 403 860 308 860 q 551 827 490 860 q 641 742 611 794 q 671 628 671 689 q 544 333 671 486 q 224 61 418 179 l 657 85 l 718 203 l 763 188 l 719 0 l 111 0 l 96 42 z "},"3":{"ha":725,"x_min":46,"x_max":649,"o":"m 338 863 q 517 807 443 863 q 590 640 590 751 q 558 531 590 588 q 472 431 525 475 q 363 371 419 388 q 575 313 501 376 q 649 144 649 249 q 592 -33 649 53 q 432 -172 535 -118 q 199 -225 329 -225 q 86 -215 140 -225 l 86 -158 q 176 -167 133 -167 q 367 -124 283 -167 q 498 -15 451 -82 q 544 128 544 53 q 490 276 544 222 q 319 329 435 329 q 281 328 294 329 l 178 306 l 178 376 q 342 427 271 390 q 450 513 413 464 q 488 615 488 563 q 436 748 488 704 q 301 792 385 792 q 175 768 225 792 q 75 706 125 744 l 46 753 q 163 828 86 794 q 338 863 239 863 z "},"4":{"ha":850,"x_min":53,"x_max":788,"o":"m 154 235 q 342 578 274 449 q 481 864 410 707 l 515 864 l 574 819 q 290 317 539 747 l 174 110 l 143 60 l 536 76 l 539 422 l 628 447 l 628 81 l 788 88 l 788 0 l 628 0 l 628 -256 l 535 -256 l 536 0 l 69 0 l 53 51 l 154 235 z "},"5":{"ha":732,"x_min":88,"x_max":650,"o":"m 93 -178 q 149 -182 119 -182 q 339 -135 246 -182 q 490 -9 432 -89 q 547 165 547 71 q 482 345 547 286 q 310 404 417 404 q 111 364 221 404 l 88 383 l 140 839 l 522 839 l 542 851 l 600 851 l 575 754 l 215 754 l 167 422 q 357 465 258 465 q 506 433 439 465 q 611 335 572 400 q 650 176 650 269 q 585 -17 650 79 q 408 -176 519 -114 q 165 -237 297 -237 q 92 -229 124 -237 l 93 -178 z "},"6":{"ha":849,"x_min":86,"x_max":775,"o":"m 692 996 q 423 860 535 950 q 253 656 311 769 q 192 431 194 543 q 215 236 189 325 q 298 94 240 147 q 444 40 356 40 q 576 83 522 40 q 655 191 629 126 q 681 319 681 256 q 655 466 681 406 q 587 557 629 526 q 493 588 544 588 q 401 574 436 588 q 339 539 365 560 l 315 581 q 395 633 336 608 q 517 657 454 657 q 658 614 599 657 q 746 503 717 571 q 775 360 775 435 q 733 183 775 269 q 613 41 692 96 q 429 -14 533 -14 q 247 40 325 -14 q 127 184 168 93 q 86 382 86 275 q 172 689 86 547 q 393 922 258 831 q 669 1040 528 1014 l 692 996 z "},"7":{"ha":839,"x_min":96,"x_max":756,"o":"m 268 -178 q 429 186 351 0 q 624 661 507 372 q 650 726 638 696 q 672 781 663 756 l 204 768 l 149 624 l 96 629 l 129 850 l 735 850 l 756 825 l 371 -214 l 268 -178 z "},"8":{"ha":842,"x_min":88,"x_max":767,"o":"m 444 1053 q 586 1024 522 1053 q 686 941 650 994 q 722 819 722 888 q 669 657 722 740 q 524 526 617 574 q 704 406 642 463 q 767 265 767 349 q 718 104 767 168 q 592 10 669 40 q 429 -19 515 -19 q 266 10 344 -19 q 138 102 188 40 q 88 253 88 164 q 148 413 88 336 q 313 538 208 490 q 185 649 231 589 q 140 796 140 710 q 184 937 140 879 q 298 1024 228 994 q 444 1053 368 1053 m 436 1001 q 327 976 376 1001 q 249 908 278 951 q 221 813 221 865 q 253 710 221 754 q 335 633 286 665 q 463 560 383 601 q 544 606 503 569 q 611 694 585 643 q 638 793 638 744 q 582 944 638 886 q 436 1001 526 1001 m 367 507 q 236 413 290 476 q 182 276 182 349 q 214 154 182 210 q 306 67 246 99 q 446 35 367 35 q 565 61 511 35 q 649 133 618 88 q 679 232 679 178 q 647 328 679 286 q 568 399 615 369 q 438 471 521 428 q 367 507 414 482 z "},"9":{"ha":854,"x_min":83,"x_max":760,"o":"m 167 -229 q 431 -77 319 -185 q 599 163 542 31 q 657 414 657 296 q 600 690 657 585 q 413 796 543 796 q 281 752 335 796 q 202 644 228 708 q 176 518 176 581 q 202 374 176 435 q 270 281 228 313 q 364 249 313 249 q 456 264 414 249 q 519 297 497 279 l 543 256 q 460 201 515 224 q 342 179 404 179 q 201 222 260 179 q 113 333 143 265 q 83 476 83 401 q 125 653 83 567 q 245 795 167 740 q 429 850 324 850 q 609 796 535 850 q 722 651 683 742 q 760 454 760 561 q 676 121 760 279 q 460 -143 593 -37 q 186 -275 326 -249 l 167 -229 z "},"\r":{"ha":0,"x_min":0,"x_max":0,"o":""}," ":{"ha":339,"x_min":0,"x_max":0,"o":""},"A":{"ha":1013,"x_min":1,"x_max":1014,"o":"m 100 61 l 465 1058 l 547 1058 l 901 61 l 1014 46 l 1014 0 l 683 0 l 683 46 l 797 61 l 711 308 l 274 308 l 189 61 l 307 46 l 307 0 l 1 0 l 1 46 l 100 61 m 544 786 l 494 944 l 294 371 l 690 371 l 544 786 z "},"Á":{"ha":1013,"x_min":1,"x_max":1014,"o":"m 674 1303 l 747 1228 q 631 1153 699 1190 q 501 1090 564 1115 l 474 1119 l 674 1303 m 100 61 l 465 1058 l 547 1058 l 901 61 l 1014 46 l 1014 0 l 683 0 l 683 46 l 797 61 l 711 308 l 274 308 l 189 61 l 307 46 l 307 0 l 1 0 l 1 46 l 100 61 m 544 786 l 494 944 l 294 371 l 690 371 l 544 786 z "},"Ă":{"ha":1013,"x_min":1,"x_max":1014,"o":"m 1 0 m 726 1344 q 699 1240 726 1289 q 621 1161 671 1190 q 507 1132 571 1132 q 390 1161 440 1132 q 314 1239 340 1190 q 288 1344 288 1288 l 333 1344 q 383 1249 343 1293 q 508 1204 422 1204 q 633 1249 593 1204 q 683 1344 674 1294 l 726 1344 m 100 61 l 465 1058 l 547 1058 l 901 61 l 1014 46 l 1014 0 l 683 0 l 683 46 l 797 61 l 711 308 l 274 308 l 189 61 l 307 46 l 307 0 l 1 0 l 1 46 l 100 61 m 544 786 l 494 944 l 294 371 l 690 371 l 544 786 z "},"Â":{"ha":1013,"x_min":1,"x_max":1014,"o":"m 457 1303 l 556 1303 l 738 1124 l 690 1097 l 506 1232 l 317 1097 l 274 1122 l 457 1303 m 100 61 l 465 1058 l 547 1058 l 901 61 l 1014 46 l 1014 0 l 683 0 l 683 46 l 797 61 l 711 308 l 274 308 l 189 61 l 307 46 l 307 0 l 1 0 l 1 46 l 100 61 m 544 786 l 494 944 l 294 371 l 690 371 l 544 786 z "},"Ä":{"ha":1013,"x_min":1,"x_max":1014,"o":"m 356 1286 q 406 1268 389 1286 q 422 1222 422 1250 q 399 1167 422 1189 q 343 1146 375 1146 q 296 1164 315 1146 q 276 1211 276 1182 q 301 1264 276 1242 q 356 1286 326 1286 m 665 1286 q 715 1268 699 1286 q 732 1221 732 1250 q 708 1167 732 1189 q 653 1146 685 1146 q 606 1163 625 1146 q 586 1210 586 1181 q 611 1263 586 1240 q 665 1286 636 1286 m 901 61 l 1014 46 l 1014 0 l 683 0 l 683 46 l 797 61 l 711 308 l 274 308 l 189 61 l 307 46 l 307 0 l 1 0 l 1 46 l 100 61 l 465 1058 l 547 1058 l 901 61 m 294 371 l 690 371 l 544 786 l 494 944 l 294 371 z "},"À":{"ha":1013,"x_min":1,"x_max":1014,"o":"m 508 1090 q 378 1153 446 1115 q 263 1228 311 1190 l 336 1303 l 536 1119 l 508 1090 m 100 61 l 465 1058 l 547 1058 l 901 61 l 1014 46 l 1014 0 l 683 0 l 683 46 l 797 61 l 711 308 l 274 308 l 189 61 l 307 46 l 307 0 l 1 0 l 1 46 l 100 61 m 544 786 l 494 944 l 294 371 l 690 371 l 544 786 z "},"Ā":{"ha":1013,"x_min":1,"x_max":1014,"o":"m 1 0 m 686 1260 l 686 1181 l 326 1181 l 326 1260 l 686 1260 m 100 61 l 465 1058 l 547 1058 l 901 61 l 1014 46 l 1014 0 l 683 0 l 683 46 l 797 61 l 711 308 l 274 308 l 189 61 l 307 46 l 307 0 l 1 0 l 1 46 l 100 61 m 544 786 l 494 944 l 294 371 l 690 371 l 544 786 z "},"Ą":{"ha":1013,"x_min":1,"x_max":1014,"o":"m 100 61 l 465 1058 l 547 1058 l 901 61 l 1014 46 l 1014 0 l 897 0 q 803 -44 856 -11 q 713 -120 750 -78 q 675 -201 675 -162 q 701 -269 675 -249 q 779 -290 726 -290 q 855 -274 817 -290 q 921 -240 893 -258 l 933 -289 q 719 -357 839 -361 q 619 -319 654 -356 q 583 -229 583 -282 q 648 -99 583 -165 q 796 0 713 -33 l 683 0 l 683 46 l 797 61 l 711 308 l 274 308 l 189 61 l 307 46 l 307 0 l 1 0 l 1 46 l 100 61 m 544 786 l 494 944 l 294 371 l 690 371 l 544 786 z "},"Å":{"ha":1013,"x_min":1,"x_max":1014,"o":"m 504 1303 q 626 1260 576 1303 q 675 1153 675 1218 q 644 1065 675 1103 q 564 1013 614 1028 l 901 61 l 1014 46 l 1014 0 l 683 0 l 683 46 l 797 61 l 711 308 l 274 308 l 189 61 l 307 46 l 307 0 l 1 0 l 1 46 l 100 61 l 447 1011 q 365 1065 396 1028 q 333 1153 333 1103 q 383 1260 333 1217 q 504 1303 433 1303 m 504 1244 q 428 1218 460 1244 q 397 1153 397 1192 q 428 1086 397 1113 q 504 1060 460 1060 q 580 1085 549 1060 q 611 1151 611 1111 q 580 1218 611 1192 q 504 1244 549 1244 m 294 371 l 690 371 l 544 786 l 494 944 l 294 371 z "},"Ã":{"ha":1013,"x_min":1,"x_max":1014,"o":"m 238 1193 q 314 1271 264 1239 q 417 1303 364 1303 q 471 1289 447 1303 q 524 1249 494 1275 q 569 1215 553 1225 q 606 1204 585 1204 q 735 1271 676 1204 l 764 1229 q 687 1152 736 1183 q 585 1121 638 1121 q 531 1135 554 1121 q 479 1175 508 1149 q 435 1210 453 1199 q 396 1221 418 1221 q 265 1154 329 1221 l 238 1193 m 100 61 l 465 1058 l 547 1058 l 901 61 l 1014 46 l 1014 0 l 683 0 l 683 46 l 797 61 l 711 308 l 274 308 l 189 61 l 307 46 l 307 0 l 1 0 l 1 46 l 100 61 m 544 786 l 494 944 l 294 371 l 690 371 l 544 786 z "},"Æ":{"ha":1315,"x_min":1,"x_max":1256,"o":"m 94 61 l 494 1053 l 1135 1053 l 1156 860 l 1101 858 l 1071 990 l 614 997 l 739 583 l 1036 588 l 1053 699 l 1103 699 l 1103 414 l 1053 414 l 1036 524 l 756 526 l 899 58 l 1149 67 l 1210 219 l 1256 197 l 1225 0 l 667 0 l 667 46 l 788 61 l 707 325 l 283 325 l 182 61 l 307 46 l 307 0 l 1 0 l 1 46 l 94 61 m 549 833 l 522 953 l 306 386 l 688 386 l 549 833 z "},"B":{"ha":963,"x_min":72,"x_max":899,"o":"m 193 63 l 193 992 l 75 1001 l 75 1053 l 238 1053 l 321 1057 q 500 1063 426 1063 q 745 999 660 1063 q 831 825 831 936 q 778 654 831 726 q 624 561 726 582 q 762 531 699 561 q 862 444 825 500 q 899 311 899 388 q 788 78 899 165 q 461 -10 676 -10 q 314 -4 406 -10 q 239 0 271 0 l 72 0 l 72 46 l 193 63 m 292 585 q 408 581 319 581 l 494 581 q 668 638 601 581 q 735 807 735 694 q 663 957 735 908 q 479 1006 592 1006 q 293 996 339 1006 l 292 585 m 293 69 q 378 55 317 61 q 485 49 440 49 q 706 104 618 49 q 794 290 794 160 q 517 518 794 518 l 425 518 q 293 515 324 518 l 293 69 z "},"C":{"ha":956,"x_min":58,"x_max":889,"o":"m 606 1063 q 725 1053 672 1063 q 846 1025 778 1043 l 888 1014 l 878 828 l 822 828 l 797 950 q 576 1003 711 1003 q 373 947 468 1003 q 220 782 278 890 q 163 528 163 674 q 210 281 163 393 q 351 103 258 169 q 571 38 443 38 q 717 58 653 38 q 813 113 781 79 l 842 228 l 889 228 l 889 43 q 846 35 871 42 q 811 25 821 28 q 690 -7 751 6 q 544 -19 629 -19 q 294 47 406 -19 q 121 230 183 113 q 58 496 58 347 q 133 792 58 663 q 334 992 208 921 q 606 1063 460 1063 z "},"Ć":{"ha":956,"x_min":58,"x_max":889,"o":"m 58 0 m 606 1063 q 725 1053 672 1063 q 846 1025 778 1043 l 888 1014 l 878 828 l 822 828 l 797 950 q 576 1003 711 1003 q 373 947 468 1003 q 220 782 278 890 q 163 528 163 674 q 210 281 163 393 q 351 103 258 169 q 571 38 443 38 q 717 58 653 38 q 813 113 781 79 l 842 228 l 889 228 l 889 43 q 846 35 871 42 q 811 25 821 28 q 690 -7 751 6 q 544 -19 629 -19 q 294 47 406 -19 q 121 230 183 113 q 58 496 58 347 q 133 792 58 663 q 334 992 208 921 q 606 1063 460 1063 m 708 1303 l 779 1228 q 665 1153 732 1190 q 536 1090 599 1115 l 507 1119 l 708 1303 z "},"Č":{"ha":956,"x_min":58,"x_max":889,"o":"m 58 0 m 606 1063 q 725 1053 672 1063 q 846 1025 778 1043 l 888 1014 l 878 828 l 822 828 l 797 950 q 576 1003 711 1003 q 373 947 468 1003 q 220 782 278 890 q 163 528 163 674 q 210 281 163 393 q 351 103 258 169 q 571 38 443 38 q 717 58 653 38 q 813 113 781 79 l 842 228 l 889 228 l 889 43 q 846 35 871 42 q 811 25 821 28 q 690 -7 751 6 q 544 -19 629 -19 q 294 47 406 -19 q 121 230 183 113 q 58 496 58 347 q 133 792 58 663 q 334 992 208 921 q 606 1063 460 1063 m 360 1303 l 540 1178 l 724 1303 l 764 1275 l 588 1106 l 493 1106 l 315 1274 l 360 1303 z "},"Ç":{"ha":956,"x_min":58,"x_max":889,"o":"m 606 1063 q 725 1053 672 1063 q 846 1025 778 1043 l 888 1014 l 878 828 l 822 828 l 797 950 q 576 1003 711 1003 q 373 947 468 1003 q 220 782 278 890 q 163 528 163 674 q 210 281 163 393 q 351 103 258 169 q 571 38 443 38 q 717 58 653 38 q 813 113 781 79 l 842 228 l 889 228 l 889 43 q 813 25 861 42 q 699 -4 751 7 q 571 -18 646 -15 q 568 -58 568 -43 l 569 -86 q 707 -119 658 -82 q 756 -214 756 -157 q 706 -317 756 -279 q 583 -357 657 -354 l 551 -358 q 484 -351 511 -358 q 450 -343 457 -344 l 451 -289 q 497 -298 469 -294 q 540 -301 525 -301 q 624 -283 590 -301 q 657 -214 657 -265 q 624 -151 657 -171 q 535 -131 592 -131 q 493 -135 514 -131 q 508 -18 493 -74 q 276 58 379 -10 q 116 240 174 126 q 58 496 58 354 q 133 792 58 663 q 334 992 208 921 q 606 1063 460 1063 z "},"D":{"ha":1081,"x_min":72,"x_max":1017,"o":"m 194 63 l 194 990 l 75 1001 l 75 1053 l 243 1053 q 389 1058 303 1053 q 445 1061 410 1060 q 508 1063 481 1063 q 888 930 760 1063 q 1017 554 1017 797 q 949 255 1017 382 q 760 60 882 128 q 482 -7 639 -7 q 372 -4 450 -7 q 244 0 308 0 l 72 0 l 72 46 l 194 63 m 294 68 q 483 51 397 50 q 700 106 603 54 q 855 264 797 158 q 913 526 913 369 q 803 881 913 760 q 493 1003 694 1003 q 294 990 382 1003 l 294 68 z "},"Ð":{"ha":1081,"x_min":65,"x_max":1017,"o":"m 194 63 l 194 515 l 65 515 l 65 590 l 194 590 l 194 990 l 75 1001 l 75 1053 l 243 1053 q 389 1058 303 1053 q 445 1061 410 1060 q 508 1063 481 1063 q 888 930 760 1063 q 1017 554 1017 797 q 949 255 1017 382 q 760 60 882 128 q 482 -7 639 -7 q 372 -4 450 -7 q 244 0 308 0 l 72 0 l 72 46 l 194 63 m 294 68 q 483 51 397 50 q 700 106 603 54 q 855 264 797 158 q 913 526 913 369 q 803 881 913 760 q 493 1003 694 1003 q 294 990 382 1003 l 294 590 l 479 590 l 479 515 l 294 515 l 294 68 z "},"Ď":{"ha":1081,"x_min":72,"x_max":1017,"o":"m 72 0 m 194 63 l 194 990 l 75 1001 l 75 1053 l 243 1053 q 389 1058 303 1053 q 445 1061 410 1060 q 508 1063 481 1063 q 888 930 760 1063 q 1017 554 1017 797 q 949 255 1017 382 q 760 60 882 128 q 482 -7 639 -7 q 372 -4 450 -7 q 244 0 308 0 l 72 0 l 72 46 l 194 63 m 294 68 q 483 51 397 50 q 700 106 603 54 q 855 264 797 158 q 913 526 913 369 q 803 881 913 760 q 493 1003 694 1003 q 294 990 382 1003 l 294 68 m 282 1303 l 463 1178 l 646 1303 l 686 1275 l 510 1106 l 415 1106 l 238 1274 l 282 1303 z "},"Đ":{"ha":1081,"x_min":65,"x_max":1017,"o":"m 65 0 m 194 63 l 194 515 l 65 515 l 65 590 l 194 590 l 194 990 l 75 1001 l 75 1053 l 243 1053 q 389 1058 303 1053 q 445 1061 410 1060 q 508 1063 481 1063 q 888 930 760 1063 q 1017 554 1017 797 q 949 255 1017 382 q 760 60 882 128 q 482 -7 639 -7 q 372 -4 450 -7 q 244 0 308 0 l 72 0 l 72 46 l 194 63 m 294 68 q 483 51 397 50 q 700 106 603 54 q 855 264 797 158 q 913 526 913 369 q 803 881 913 760 q 493 1003 694 1003 q 294 990 382 1003 l 294 590 l 479 590 l 479 515 l 294 515 l 294 68 z "},"E":{"ha":894,"x_min":69,"x_max":849,"o":"m 192 61 l 192 990 l 72 1001 l 72 1053 l 775 1053 l 794 860 l 738 860 l 706 990 l 290 999 l 290 586 l 568 592 l 585 700 l 639 700 l 639 413 l 585 413 l 568 526 l 290 531 l 290 57 l 738 68 l 799 226 l 849 214 l 818 0 l 69 0 l 69 46 l 192 61 z "},"É":{"ha":894,"x_min":69,"x_max":849,"o":"m 657 1303 l 729 1228 q 615 1153 682 1190 q 486 1090 549 1115 l 457 1119 l 657 1303 m 192 61 l 192 990 l 72 1001 l 72 1053 l 775 1053 l 794 860 l 738 860 l 706 990 l 290 999 l 290 586 l 568 592 l 585 700 l 639 700 l 639 413 l 585 413 l 568 526 l 290 531 l 290 57 l 738 68 l 799 226 l 849 214 l 818 0 l 69 0 l 69 46 l 192 61 z "},"Ě":{"ha":894,"x_min":69,"x_max":849,"o":"m 69 0 m 192 61 l 192 990 l 72 1001 l 72 1053 l 775 1053 l 794 860 l 738 860 l 706 990 l 290 999 l 290 586 l 568 592 l 585 700 l 639 700 l 639 413 l 585 413 l 568 526 l 290 531 l 290 57 l 738 68 l 799 226 l 849 214 l 818 0 l 69 0 l 69 46 l 192 61 m 282 1303 l 463 1178 l 646 1303 l 686 1275 l 510 1106 l 415 1106 l 238 1274 l 282 1303 z "},"Ê":{"ha":894,"x_min":69,"x_max":849,"o":"m 439 1303 l 539 1303 l 722 1124 l 674 1097 l 489 1232 l 300 1097 l 257 1122 l 439 1303 m 192 61 l 192 990 l 72 1001 l 72 1053 l 775 1053 l 794 860 l 738 860 l 706 990 l 290 999 l 290 586 l 568 592 l 585 700 l 639 700 l 639 413 l 585 413 l 568 526 l 290 531 l 290 57 l 738 68 l 799 226 l 849 214 l 818 0 l 69 0 l 69 46 l 192 61 z "},"Ë":{"ha":894,"x_min":69,"x_max":849,"o":"m 339 1286 q 389 1268 372 1286 q 406 1222 406 1250 q 382 1167 406 1189 q 326 1146 358 1146 q 279 1164 299 1146 q 260 1211 260 1182 q 284 1265 260 1243 q 339 1286 308 1286 m 649 1286 q 699 1268 682 1286 q 717 1221 717 1250 q 692 1167 717 1189 q 636 1146 668 1146 q 589 1163 608 1146 q 569 1210 569 1181 q 594 1264 569 1242 q 649 1286 618 1286 m 794 860 l 738 860 l 706 990 l 290 999 l 290 586 l 568 592 l 585 700 l 639 700 l 639 413 l 585 413 l 568 526 l 290 531 l 290 57 l 738 68 l 799 226 l 849 214 l 818 0 l 69 0 l 69 46 l 192 61 l 192 990 l 72 1001 l 72 1053 l 775 1053 l 794 860 z "},"Ė":{"ha":894,"x_min":69,"x_max":849,"o":"m 69 0 m 192 61 l 192 990 l 72 1001 l 72 1053 l 775 1053 l 794 860 l 738 860 l 706 990 l 290 999 l 290 586 l 568 592 l 585 700 l 639 700 l 639 413 l 585 413 l 568 526 l 290 531 l 290 57 l 738 68 l 799 226 l 849 214 l 818 0 l 69 0 l 69 46 l 192 61 m 482 1146 q 434 1164 454 1146 q 414 1211 414 1182 q 439 1264 414 1242 q 493 1286 464 1286 q 544 1268 526 1286 q 561 1222 561 1250 q 538 1167 561 1189 q 482 1146 514 1146 z "},"È":{"ha":894,"x_min":69,"x_max":849,"o":"m 492 1090 q 362 1153 429 1115 q 247 1228 294 1190 l 318 1303 l 519 1119 l 492 1090 m 192 61 l 192 990 l 72 1001 l 72 1053 l 775 1053 l 794 860 l 738 860 l 706 990 l 290 999 l 290 586 l 568 592 l 585 700 l 639 700 l 639 413 l 585 413 l 568 526 l 290 531 l 290 57 l 738 68 l 799 226 l 849 214 l 818 0 l 69 0 l 69 46 l 192 61 z "},"Ē":{"ha":894,"x_min":69,"x_max":849,"o":"m 69 0 m 192 61 l 192 990 l 72 1001 l 72 1053 l 775 1053 l 794 860 l 738 860 l 706 990 l 290 999 l 290 586 l 568 592 l 585 700 l 639 700 l 639 413 l 585 413 l 568 526 l 290 531 l 290 57 l 738 68 l 799 226 l 849 214 l 818 0 l 69 0 l 69 46 l 192 61 m 667 1260 l 667 1181 l 307 1181 l 307 1260 l 667 1260 z "},"Ę":{"ha":894,"x_min":69,"x_max":854,"o":"m 192 61 l 192 990 l 72 1001 l 72 1053 l 775 1053 l 794 860 l 738 860 l 706 990 l 290 999 l 290 586 l 568 592 l 585 700 l 639 700 l 639 413 l 585 413 l 568 526 l 290 531 l 290 57 l 738 68 l 799 226 l 849 214 l 818 0 l 817 0 q 723 -46 775 -12 q 633 -121 671 -79 q 596 -201 596 -162 q 622 -269 596 -249 q 701 -290 649 -290 q 842 -240 763 -290 l 854 -289 q 765 -340 815 -319 q 640 -357 714 -360 q 540 -319 575 -356 q 504 -229 504 -282 q 569 -99 504 -165 q 717 0 633 -33 l 69 0 l 69 46 l 192 61 z "},"F":{"ha":839,"x_min":71,"x_max":814,"o":"m 200 63 l 200 990 l 81 1001 l 81 1053 l 799 1053 l 814 860 l 761 858 l 729 988 l 300 996 l 300 565 l 614 571 l 636 676 l 689 676 l 689 392 l 631 392 l 614 504 l 300 510 l 300 61 l 510 50 l 510 0 l 71 0 l 71 46 l 200 63 z "},"G":{"ha":1042,"x_min":58,"x_max":1001,"o":"m 603 1063 q 747 1053 688 1063 q 869 1026 806 1043 l 907 1017 l 897 832 l 842 832 l 814 951 q 728 987 790 971 q 581 1003 665 1003 q 375 947 471 1003 q 221 782 279 890 q 163 526 163 674 q 206 286 163 397 q 338 106 249 175 q 557 38 426 38 q 700 55 629 38 q 808 104 771 72 l 808 419 l 621 429 l 621 481 l 1001 481 l 1001 429 l 908 418 l 908 51 q 821 31 886 50 q 671 -6 739 8 q 531 -19 603 -19 q 285 47 393 -19 q 118 231 178 114 q 58 496 58 349 q 132 793 58 664 q 330 992 206 922 q 603 1063 454 1063 z "},"Ğ":{"ha":1042,"x_min":58,"x_max":1001,"o":"m 58 0 m 603 1063 q 747 1053 688 1063 q 869 1026 806 1043 l 907 1017 l 897 832 l 842 832 l 814 951 q 728 987 790 971 q 581 1003 665 1003 q 375 947 471 1003 q 221 782 279 890 q 163 526 163 674 q 206 286 163 397 q 338 106 249 175 q 557 38 426 38 q 700 55 629 38 q 808 104 771 72 l 808 419 l 621 429 l 621 481 l 1001 481 l 1001 429 l 908 418 l 908 51 q 821 31 886 50 q 671 -6 739 8 q 531 -19 603 -19 q 285 47 393 -19 q 118 231 178 114 q 58 496 58 349 q 132 793 58 664 q 330 992 206 922 q 603 1063 454 1063 m 785 1303 q 757 1198 785 1247 q 679 1119 729 1149 q 565 1090 629 1090 q 449 1119 499 1090 q 372 1197 399 1149 q 346 1303 346 1246 l 392 1303 q 441 1207 401 1251 q 567 1163 481 1163 q 692 1208 651 1163 q 742 1303 732 1253 l 785 1303 z "},"Ģ":{"ha":1042,"x_min":58,"x_max":1001,"o":"m 58 0 m 603 1063 q 747 1053 688 1063 q 869 1026 806 1043 l 907 1017 l 897 832 l 842 832 l 814 951 q 728 987 790 971 q 581 1003 665 1003 q 375 947 471 1003 q 221 782 279 890 q 163 526 163 674 q 206 286 163 397 q 338 106 249 175 q 557 38 426 38 q 700 55 629 38 q 808 104 771 72 l 808 419 l 621 429 l 621 481 l 1001 481 l 1001 429 l 908 418 l 908 51 q 821 31 886 50 q 671 -6 739 8 q 531 -19 603 -19 q 285 47 393 -19 q 118 231 178 114 q 58 496 58 349 q 132 793 58 664 q 330 992 206 922 q 603 1063 454 1063 m 508 -50 q 608 -108 571 -62 q 644 -207 644 -154 q 620 -307 644 -260 q 559 -387 596 -354 q 486 -435 522 -421 l 458 -408 l 458 -390 q 518 -327 496 -374 q 540 -226 540 -281 q 513 -158 540 -185 q 458 -131 486 -131 l 458 -101 l 508 -50 z "},"H":{"ha":1157,"x_min":72,"x_max":1075,"o":"m 189 63 l 189 992 l 76 1001 l 76 1053 l 399 1053 l 399 1001 l 289 992 l 289 539 l 857 539 l 857 992 l 746 1001 l 746 1053 l 1064 1053 l 1064 1001 l 957 992 l 957 63 l 1075 46 l 1075 0 l 742 0 l 742 46 l 857 61 l 857 476 l 289 476 l 289 61 l 404 46 l 404 0 l 72 0 l 72 46 l 189 63 z "},"I":{"ha":518,"x_min":92,"x_max":426,"o":"m 207 61 l 207 992 l 94 1001 l 94 1053 l 421 1053 l 421 1001 l 307 992 l 307 61 l 426 46 l 426 0 l 92 0 l 92 46 l 207 61 z "},"Ĳ":{"ha":1007,"x_min":92,"x_max":939,"o":"m 207 61 l 207 992 l 94 1001 l 94 1053 l 421 1053 l 421 1001 l 307 992 l 307 61 l 426 46 l 426 0 l 92 0 l 92 46 l 207 61 m 460 -222 q 602 -153 543 -200 q 688 -40 661 -106 q 711 83 706 14 q 717 272 717 153 l 717 992 l 597 1001 l 597 1053 l 939 1053 l 939 1001 l 817 992 l 817 322 l 817 214 q 804 24 817 88 q 741 -116 789 -54 q 626 -215 693 -178 q 489 -262 560 -253 l 460 -222 z "},"Í":{"ha":518,"x_min":92,"x_max":500,"o":"m 428 1303 l 500 1228 q 385 1153 451 1190 q 256 1090 318 1115 l 226 1119 l 428 1303 m 207 61 l 207 992 l 94 1001 l 94 1053 l 421 1053 l 421 1001 l 307 992 l 307 61 l 426 46 l 426 0 l 92 0 l 92 46 l 207 61 z "},"Î":{"ha":518,"x_min":28,"x_max":492,"o":"m 210 1303 l 308 1303 l 492 1124 l 444 1097 l 260 1232 l 69 1097 l 28 1122 l 210 1303 m 207 61 l 207 992 l 94 1001 l 94 1053 l 421 1053 l 421 1001 l 307 992 l 307 61 l 426 46 l 426 0 l 92 0 l 92 46 l 207 61 z "},"Ï":{"ha":518,"x_min":29,"x_max":486,"o":"m 108 1286 q 159 1268 142 1286 q 176 1222 176 1250 q 152 1167 176 1189 q 96 1146 128 1146 q 49 1164 68 1146 q 29 1211 29 1182 q 54 1264 29 1242 q 108 1286 79 1286 m 419 1286 q 469 1268 453 1286 q 486 1221 486 1250 q 462 1167 486 1189 q 406 1146 438 1146 q 359 1163 379 1146 q 339 1210 339 1181 q 364 1264 339 1242 q 419 1286 389 1286 m 421 1001 l 307 992 l 307 61 l 426 46 l 426 0 l 92 0 l 92 46 l 207 61 l 207 992 l 94 1001 l 94 1053 l 421 1053 l 421 1001 z "},"İ":{"ha":518,"x_min":92,"x_max":426,"o":"m 92 0 m 207 61 l 207 992 l 94 1001 l 94 1053 l 421 1053 l 421 1001 l 307 992 l 307 61 l 426 46 l 426 0 l 92 0 l 92 46 l 207 61 m 253 1146 q 205 1164 225 1146 q 185 1211 185 1182 q 210 1264 185 1242 q 264 1286 235 1286 q 315 1268 297 1286 q 332 1222 332 1250 q 308 1167 332 1189 q 253 1146 285 1146 z "},"Ì":{"ha":518,"x_min":17,"x_max":426,"o":"m 261 1090 q 131 1153 199 1115 q 17 1228 64 1192 l 89 1303 l 289 1119 l 261 1090 m 207 61 l 207 992 l 94 1001 l 94 1053 l 421 1053 l 421 1001 l 307 992 l 307 61 l 426 46 l 426 0 l 92 0 l 92 46 l 207 61 z "},"Ī":{"ha":501,"x_min":71,"x_max":431,"o":"m 71 0 m 431 1288 l 431 1208 l 71 1208 l 71 1288 l 431 1288 m 207 61 l 207 992 l 94 1001 l 94 1053 l 421 1053 l 421 1001 l 307 992 l 307 61 l 426 46 l 426 0 l 92 0 l 92 46 l 207 61 z "},"Į":{"ha":518,"x_min":92,"x_max":426,"o":"m 426 46 l 426 0 l 419 0 q 324 -44 376 -11 q 235 -120 271 -78 q 199 -200 199 -162 q 294 -290 199 -290 q 351 -281 321 -290 q 403 -258 381 -272 l 415 -307 q 339 -343 386 -329 q 239 -357 292 -357 q 144 -322 182 -357 q 106 -228 106 -286 q 136 -141 106 -186 q 217 -58 167 -96 q 325 0 268 -19 l 92 0 l 92 46 l 207 61 l 207 992 l 94 1001 l 94 1053 l 421 1053 l 421 1001 l 307 992 l 307 61 l 426 46 z "},"Ĩ":{"ha":518,"x_min":-4,"x_max":521,"o":"m -4 1193 q 72 1271 22 1239 q 175 1303 122 1303 q 228 1289 206 1303 q 281 1249 251 1275 q 325 1215 308 1225 q 364 1204 342 1204 q 493 1271 435 1204 l 521 1229 q 445 1153 494 1185 q 344 1121 396 1121 q 290 1135 313 1121 q 238 1175 267 1149 q 193 1210 211 1199 q 154 1221 175 1221 q 84 1201 118 1221 q 25 1154 50 1182 l -4 1193 m 207 61 l 207 992 l 94 1001 l 94 1053 l 421 1053 l 421 1001 l 307 992 l 307 61 l 426 46 l 426 0 l 92 0 l 92 46 l 207 61 z "},"J":{"ha":489,"x_min":-58,"x_max":421,"o":"m 421 1001 l 299 992 l 299 322 l 299 207 q 288 24 299 86 q 223 -116 271 -54 q 108 -215 175 -178 q -29 -262 42 -253 l -58 -222 q 84 -153 25 -200 q 169 -40 143 -106 q 194 81 189 14 q 199 272 199 149 l 199 992 l 79 1001 l 79 1053 l 421 1053 l 421 1001 z "},"Ĵ":{"ha":489,"x_min":-58,"x_max":482,"o":"m 482 1124 l 435 1097 l 250 1232 l 60 1097 l 18 1122 l 200 1303 l 299 1303 l 482 1124 m 421 1001 l 299 992 l 299 322 l 299 207 q 288 24 299 86 q 223 -116 271 -54 q 108 -215 175 -178 q -29 -262 42 -253 l -58 -222 q 84 -153 25 -200 q 169 -40 143 -106 q 194 81 189 14 q 199 272 199 149 l 199 992 l 79 1001 l 79 1053 l 421 1053 l 421 1001 z "},"K":{"ha":963,"x_min":72,"x_max":967,"o":"m 182 61 l 182 992 l 74 1001 l 74 1053 l 392 1053 l 392 1001 l 283 992 l 283 486 l 717 990 l 607 1001 l 607 1053 l 919 1053 l 919 1001 l 811 990 l 471 607 q 646 357 510 567 q 795 137 744 208 q 864 65 846 65 l 967 46 l 967 0 l 789 0 q 731 61 772 0 q 608 253 689 122 q 550 347 597 271 q 468 472 503 422 q 413 540 433 521 l 283 393 l 283 61 l 403 46 l 403 0 l 72 0 l 72 46 l 182 61 z "},"Ķ":{"ha":963,"x_min":72,"x_max":967,"o":"m 72 0 m 182 61 l 182 992 l 74 1001 l 74 1053 l 392 1053 l 392 1001 l 283 992 l 283 486 l 717 990 l 607 1001 l 607 1053 l 919 1053 l 919 1001 l 811 990 l 471 607 q 646 357 510 567 q 795 137 744 208 q 864 65 846 65 l 967 46 l 967 0 l 789 0 q 731 61 772 0 q 608 253 689 122 q 550 347 597 271 q 468 472 503 422 q 413 540 433 521 l 283 393 l 283 61 l 403 46 l 403 0 l 72 0 l 72 46 l 182 61 m 515 -50 q 615 -108 578 -62 q 651 -207 651 -154 q 627 -307 651 -260 q 566 -387 603 -354 q 493 -435 529 -421 l 465 -408 l 465 -390 q 525 -327 503 -374 q 547 -226 547 -281 q 520 -158 547 -185 q 465 -131 493 -131 l 465 -101 l 515 -50 z "},"L":{"ha":843,"x_min":72,"x_max":824,"o":"m 194 63 l 194 986 l 75 996 l 75 1053 l 426 1053 l 426 996 l 294 986 l 293 58 l 704 71 l 778 238 l 824 215 l 779 0 l 72 0 l 72 46 l 194 63 z "},"Ĺ":{"ha":843,"x_min":72,"x_max":824,"o":"m 72 0 m 194 63 l 194 986 l 75 996 l 75 1053 l 426 1053 l 426 996 l 294 986 l 293 58 l 704 71 l 778 238 l 824 215 l 779 0 l 72 0 l 72 46 l 194 63 m 414 1303 l 485 1228 q 371 1153 438 1190 q 242 1090 304 1115 l 213 1119 l 414 1303 z "},"Ľ":{"ha":843,"x_min":72,"x_max":824,"o":"m 72 0 m 194 63 l 194 986 l 75 996 l 75 1053 l 426 1053 l 426 996 l 294 986 l 293 58 l 704 71 l 778 238 l 824 215 l 779 0 l 72 0 l 72 46 l 194 63 m 561 749 q 590 911 590 836 q 580 1021 590 971 q 556 1088 569 1071 l 564 1115 l 643 1139 q 672 1076 661 1121 q 683 983 683 1032 q 660 819 683 901 q 604 708 636 738 l 563 732 l 561 749 z "},"Ļ":{"ha":843,"x_min":72,"x_max":824,"o":"m 72 0 m 194 63 l 194 986 l 75 996 l 75 1053 l 426 1053 l 426 996 l 294 986 l 293 58 l 704 71 l 778 238 l 824 215 l 779 0 l 72 0 l 72 46 l 194 63 m 414 -50 q 513 -108 476 -62 q 550 -207 550 -154 q 526 -307 550 -260 q 465 -387 501 -354 q 392 -435 428 -421 l 364 -408 l 364 -390 q 424 -327 401 -374 q 446 -226 446 -281 q 419 -158 446 -185 q 364 -131 392 -131 l 364 -101 l 414 -50 z "},"Ŀ":{"ha":944,"x_min":72,"x_max":879,"o":"m 426 996 l 294 986 l 293 58 l 704 71 l 778 238 l 824 215 l 779 0 l 72 0 l 72 46 l 194 63 l 194 986 l 75 996 l 75 1053 l 426 1053 l 426 996 m 832 638 q 867 620 856 635 q 879 586 879 606 q 858 534 879 554 q 810 514 838 514 q 769 529 786 514 q 753 569 753 544 q 778 620 753 600 q 832 638 804 640 z "},"Ł":{"ha":843,"x_min":60,"x_max":824,"o":"m 426 996 l 294 986 l 293 518 l 540 618 l 660 668 l 660 586 l 293 439 l 293 58 l 704 71 l 778 238 l 824 215 l 779 0 l 72 0 l 72 46 l 194 63 l 194 399 l 60 346 l 60 382 l 60 421 l 194 476 l 194 986 l 75 996 l 75 1053 l 426 1053 l 426 996 z "},"M":{"ha":1340,"x_min":53,"x_max":1318,"o":"m 178 61 l 247 986 l 111 997 l 111 1053 l 390 1053 l 663 254 l 690 160 l 721 256 l 978 1053 l 1240 1053 l 1240 997 l 1106 986 l 1186 61 l 1318 46 l 1318 0 l 961 0 l 961 46 l 1092 61 l 1032 758 l 1022 989 l 986 860 l 694 -10 l 660 -10 l 378 786 q 328 933 353 854 l 308 989 l 297 722 l 260 63 l 404 46 l 404 0 l 53 0 l 53 46 l 178 61 z "},"N":{"ha":1128,"x_min":71,"x_max":1075,"o":"m 1075 997 l 957 986 l 957 0 l 847 0 l 365 754 l 265 944 l 264 61 l 404 46 l 404 0 l 71 0 l 71 46 l 190 61 l 190 986 l 75 996 l 75 1053 l 296 1053 l 783 271 l 883 88 l 883 986 l 765 997 l 765 1053 l 1075 1053 l 1075 997 z "},"Ń":{"ha":1128,"x_min":71,"x_max":1075,"o":"m 71 0 m 1075 997 l 957 986 l 957 0 l 847 0 l 365 754 l 265 944 l 264 61 l 404 46 l 404 0 l 71 0 l 71 46 l 190 61 l 190 986 l 75 996 l 75 1053 l 296 1053 l 783 271 l 883 88 l 883 986 l 765 997 l 765 1053 l 1075 1053 l 1075 997 m 739 1303 l 810 1228 q 696 1153 763 1190 q 567 1090 629 1115 l 538 1119 l 739 1303 z "},"Ň":{"ha":1128,"x_min":71,"x_max":1075,"o":"m 71 0 m 1075 997 l 957 986 l 957 0 l 847 0 l 365 754 l 265 944 l 264 61 l 404 46 l 404 0 l 71 0 l 71 46 l 190 61 l 190 986 l 75 996 l 75 1053 l 296 1053 l 783 271 l 883 88 l 883 986 l 765 997 l 765 1053 l 1075 1053 l 1075 997 m 386 1303 l 567 1178 l 750 1303 l 790 1275 l 614 1106 l 519 1106 l 342 1274 l 386 1303 z "},"Ņ":{"ha":1128,"x_min":71,"x_max":1075,"o":"m 71 0 m 1075 997 l 957 986 l 957 0 l 847 0 l 365 754 l 265 944 l 264 61 l 404 46 l 404 0 l 71 0 l 71 46 l 190 61 l 190 986 l 75 996 l 75 1053 l 296 1053 l 783 271 l 883 88 l 883 986 l 765 997 l 765 1053 l 1075 1053 l 1075 997 m 561 -50 q 660 -108 624 -62 q 697 -207 697 -154 q 673 -307 697 -260 q 612 -387 649 -354 q 539 -435 575 -421 l 511 -408 l 511 -390 q 571 -327 549 -374 q 593 -226 593 -281 q 566 -158 593 -185 q 511 -131 539 -131 l 511 -101 l 561 -50 z "},"Ñ":{"ha":1128,"x_min":71,"x_max":1075,"o":"m 71 0 m 1075 997 l 957 986 l 957 0 l 847 0 l 365 754 l 265 944 l 264 61 l 404 46 l 404 0 l 71 0 l 71 46 l 190 61 l 190 986 l 75 996 l 75 1053 l 296 1053 l 783 271 l 883 88 l 883 986 l 765 997 l 765 1053 l 1075 1053 l 1075 997 m 300 1193 q 376 1271 326 1239 q 479 1303 426 1303 q 533 1289 510 1303 q 586 1249 557 1275 q 631 1215 614 1225 q 668 1204 647 1204 q 797 1271 739 1204 l 826 1229 q 749 1152 799 1183 q 647 1121 700 1121 q 594 1135 617 1121 q 542 1175 571 1149 q 498 1210 515 1199 q 458 1221 481 1221 q 328 1154 392 1221 l 300 1193 z "},"O":{"ha":1054,"x_min":61,"x_max":994,"o":"m 556 1063 q 786 997 686 1063 q 940 815 886 932 q 994 550 994 699 q 931 244 994 374 q 758 48 867 115 q 517 -19 649 -19 q 276 49 381 -19 q 117 238 172 117 q 63 513 61 358 q 132 807 67 683 q 308 997 197 931 q 556 1063 419 1063 m 535 1006 q 347 947 429 1006 q 219 778 265 889 q 174 513 174 667 q 218 269 174 378 q 344 99 263 161 q 536 38 426 38 q 719 99 640 38 q 842 272 799 160 q 886 536 886 385 q 844 774 886 668 q 724 943 803 881 q 535 1006 644 1006 z "},"Ó":{"ha":1054,"x_min":61,"x_max":994,"o":"m 781 1228 q 666 1153 733 1192 q 536 1090 599 1115 l 507 1119 l 708 1303 l 781 1228 m 556 1063 q 786 997 686 1063 q 940 815 886 932 q 994 550 994 699 q 931 244 994 374 q 758 48 867 115 q 517 -19 649 -19 q 276 49 381 -19 q 117 238 172 117 q 63 513 61 358 q 133 810 67 686 q 311 999 200 935 q 556 1063 422 1063 m 535 1006 q 347 947 429 1006 q 219 778 265 889 q 174 513 174 667 q 218 269 174 378 q 344 99 263 161 q 536 38 426 38 q 719 99 640 38 q 842 272 799 160 q 886 536 886 385 q 844 774 886 668 q 724 943 803 881 q 535 1006 644 1006 z "},"Ô":{"ha":1054,"x_min":61,"x_max":994,"o":"m 772 1124 l 724 1097 l 539 1232 l 350 1097 l 308 1122 l 490 1303 l 589 1303 l 772 1124 m 556 1063 q 786 997 686 1063 q 940 815 886 932 q 994 550 994 699 q 931 244 994 374 q 758 48 867 115 q 517 -19 649 -19 q 276 49 381 -19 q 117 238 172 117 q 63 513 61 358 q 133 810 67 686 q 311 999 200 935 q 556 1063 422 1063 m 535 1006 q 347 947 429 1006 q 219 778 265 889 q 174 513 174 667 q 218 269 174 378 q 344 99 263 161 q 536 38 426 38 q 719 99 640 38 q 842 272 799 160 q 886 536 886 385 q 844 774 886 668 q 724 943 803 881 q 535 1006 644 1006 z "},"Ö":{"ha":1054,"x_min":61,"x_max":994,"o":"m 61 0 m 556 1063 q 786 997 686 1063 q 940 815 886 932 q 994 550 994 699 q 931 244 994 374 q 758 48 867 115 q 517 -19 649 -19 q 276 49 381 -19 q 117 238 172 117 q 63 513 61 358 q 132 807 67 683 q 308 997 197 931 q 556 1063 419 1063 m 535 1006 q 347 947 429 1006 q 219 778 265 889 q 174 513 174 667 q 218 269 174 378 q 344 99 263 161 q 536 38 426 38 q 719 99 640 38 q 842 272 799 160 q 886 536 886 385 q 844 774 886 668 q 724 943 803 881 q 535 1006 644 1006 m 389 1286 q 440 1268 422 1286 q 457 1222 457 1250 q 433 1167 457 1189 q 376 1146 408 1146 q 330 1164 350 1146 q 310 1211 310 1182 q 335 1264 310 1242 q 389 1286 360 1286 m 700 1286 q 750 1268 733 1286 q 767 1221 767 1250 q 743 1167 767 1189 q 688 1146 719 1146 q 640 1163 660 1146 q 619 1210 619 1181 q 644 1264 619 1242 q 700 1286 669 1286 z "},"Ò":{"ha":1054,"x_min":61,"x_max":994,"o":"m 61 0 m 556 1063 q 786 997 686 1063 q 940 815 886 932 q 994 550 994 699 q 931 244 994 374 q 758 48 867 115 q 517 -19 649 -19 q 276 49 381 -19 q 117 238 172 117 q 63 513 61 358 q 132 807 67 683 q 308 997 197 931 q 556 1063 419 1063 m 535 1006 q 347 947 429 1006 q 219 778 265 889 q 174 513 174 667 q 218 269 174 378 q 344 99 263 161 q 536 38 426 38 q 719 99 640 38 q 842 272 799 160 q 886 536 886 385 q 844 774 886 668 q 724 943 803 881 q 535 1006 644 1006 m 542 1090 q 412 1153 479 1115 q 297 1228 344 1192 l 369 1303 l 569 1119 l 542 1090 z "},"Ő":{"ha":1054,"x_min":61,"x_max":994,"o":"m 61 0 m 556 1063 q 786 997 686 1063 q 940 815 886 932 q 994 550 994 699 q 931 244 994 374 q 758 48 867 115 q 517 -19 649 -19 q 276 49 381 -19 q 117 238 172 117 q 63 513 61 358 q 132 807 67 683 q 308 997 197 931 q 556 1063 419 1063 m 535 1006 q 347 947 429 1006 q 219 778 265 889 q 174 513 174 667 q 218 269 174 378 q 344 99 263 161 q 536 38 426 38 q 719 99 640 38 q 842 272 799 160 q 886 536 886 385 q 844 774 886 668 q 724 943 803 881 q 535 1006 644 1006 m 586 1367 l 650 1307 q 541 1193 617 1263 q 390 1064 465 1124 l 361 1093 l 586 1367 m 913 1367 l 975 1307 q 865 1192 942 1263 q 715 1064 788 1121 l 686 1093 l 913 1367 z "},"Ō":{"ha":1054,"x_min":61,"x_max":994,"o":"m 61 0 m 707 1288 l 707 1208 l 347 1208 l 347 1288 l 707 1288 m 556 1063 q 786 997 686 1063 q 940 815 886 932 q 994 550 994 699 q 931 244 994 374 q 758 48 867 115 q 517 -19 649 -19 q 276 49 381 -19 q 117 238 172 117 q 63 513 61 358 q 132 807 67 683 q 308 997 197 931 q 556 1063 419 1063 m 535 1006 q 347 947 429 1006 q 219 778 265 889 q 174 513 174 667 q 218 269 174 378 q 344 99 263 161 q 536 38 426 38 q 719 99 640 38 q 842 272 799 160 q 886 536 886 385 q 844 774 886 668 q 724 943 803 881 q 535 1006 644 1006 z "},"Ø":{"ha":1054,"x_min":63,"x_max":994,"o":"m 344 13 q 138 195 214 67 q 63 499 63 324 q 128 801 63 675 q 303 994 193 928 q 546 1063 413 1060 q 701 1039 626 1063 l 739 1146 l 785 1128 l 747 1018 q 929 838 864 961 q 994 550 994 714 q 932 247 994 375 q 763 51 869 119 q 526 -19 657 -17 q 393 -3 456 -19 l 350 -131 l 301 -112 l 344 13 m 676 972 q 535 1006 613 1006 q 347 947 429 1006 q 219 778 265 889 q 174 513 174 667 q 226 252 174 367 q 371 82 278 138 l 676 972 m 418 58 q 536 38 472 38 q 719 99 640 38 q 842 272 799 160 q 886 536 886 385 q 843 778 886 669 q 721 946 800 888 l 418 58 z "},"Õ":{"ha":1054,"x_min":61,"x_max":994,"o":"m 61 0 m 556 1063 q 786 997 686 1063 q 940 815 886 932 q 994 550 994 699 q 931 244 994 374 q 758 48 867 115 q 517 -19 649 -19 q 276 49 381 -19 q 117 238 172 117 q 63 513 61 358 q 132 807 67 683 q 308 997 197 931 q 556 1063 419 1063 m 535 1006 q 347 947 429 1006 q 219 778 265 889 q 174 513 174 667 q 218 269 174 378 q 344 99 263 161 q 536 38 426 38 q 719 99 640 38 q 842 272 799 160 q 886 536 886 385 q 844 774 886 668 q 724 943 803 881 q 535 1006 644 1006 m 271 1193 q 347 1271 297 1239 q 450 1303 397 1303 q 504 1289 481 1303 q 557 1249 528 1275 q 601 1215 585 1225 q 639 1204 618 1204 q 768 1271 710 1204 l 797 1229 q 720 1152 769 1183 q 618 1121 671 1121 q 565 1135 588 1121 q 513 1175 542 1149 q 469 1210 486 1199 q 429 1221 451 1221 q 299 1154 363 1221 l 271 1193 z "},"Œ":{"ha":1410,"x_min":63,"x_max":1367,"o":"m 546 1063 q 656 1053 607 1063 l 1297 1053 l 1317 860 l 1260 860 l 1228 990 l 826 999 l 826 588 l 1100 593 l 1119 701 l 1172 701 l 1172 414 l 1119 414 l 1100 528 l 826 532 l 826 57 l 1254 68 l 1317 226 l 1367 214 l 1336 0 l 661 0 q 519 -19 586 -19 q 280 47 383 -19 q 119 231 176 113 q 63 504 63 350 q 127 799 63 674 q 301 992 192 925 q 546 1063 411 1060 m 535 1006 q 346 947 428 1006 q 219 776 264 888 q 174 515 174 665 q 218 272 174 381 q 344 99 263 163 q 536 36 426 36 q 726 114 653 36 l 726 922 q 535 1006 647 1006 z "},"P":{"ha":879,"x_min":58,"x_max":839,"o":"m 194 63 l 194 986 l 74 996 l 74 1053 l 243 1053 q 335 1057 281 1053 q 485 1063 426 1063 q 747 990 654 1063 q 839 746 839 918 q 784 563 839 640 q 640 444 729 485 q 449 403 550 403 l 354 403 q 294 401 310 403 l 294 63 l 482 46 l 482 0 l 58 0 l 58 46 l 194 63 m 294 464 q 443 457 346 457 q 658 527 578 460 q 738 744 738 594 q 443 1004 738 1013 l 410 1003 q 294 990 329 1000 l 294 464 z "},"Þ":{"ha":879,"x_min":58,"x_max":839,"o":"m 194 63 l 194 992 l 83 1001 l 83 1053 l 410 1053 l 410 1001 l 294 992 l 294 832 l 344 838 q 479 850 438 850 q 742 777 644 850 q 839 553 839 704 q 785 374 839 449 q 642 260 731 299 q 453 221 554 221 q 339 224 394 221 q 294 225 321 225 l 294 63 l 482 46 l 482 0 l 58 0 l 58 46 l 194 63 m 294 283 q 443 274 354 274 q 656 342 575 276 q 738 551 738 408 q 667 729 738 667 q 458 792 596 792 q 376 785 425 792 q 294 771 328 779 l 294 283 z "},"Q":{"ha":1054,"x_min":61,"x_max":992,"o":"m 553 1063 q 784 997 685 1063 q 938 815 883 932 q 992 550 992 699 q 942 276 992 394 q 805 85 892 158 q 608 -10 718 13 q 703 -118 632 -82 q 861 -154 774 -154 q 926 -147 896 -154 q 974 -126 956 -140 l 983 -193 q 927 -226 971 -212 q 828 -240 883 -240 q 651 -187 725 -240 q 549 -19 578 -135 l 524 -19 q 283 43 388 -22 q 119 227 178 108 q 61 499 61 346 q 114 776 61 657 q 260 965 167 894 q 396 1038 321 1013 q 553 1063 471 1063 m 533 1006 q 346 947 428 1006 q 217 778 264 889 q 171 513 171 667 q 215 270 171 378 q 342 100 260 163 q 535 38 425 38 q 717 99 638 38 q 840 272 796 160 q 883 536 883 385 q 842 774 883 668 q 721 943 800 881 q 533 1006 642 1006 z "},"R":{"ha":963,"x_min":58,"x_max":968,"o":"m 454 1063 q 713 998 621 1063 q 806 779 806 933 q 740 594 806 674 q 567 483 675 514 l 571 482 q 669 398 621 467 q 778 215 717 329 q 845 100 822 136 q 886 61 868 64 l 968 46 l 968 0 l 794 0 q 756 38 778 0 q 694 156 733 76 q 610 316 646 254 q 531 423 575 378 q 444 465 488 468 l 294 465 l 294 61 l 442 46 l 442 0 l 58 0 l 58 46 l 194 63 l 194 986 l 74 996 l 74 1053 l 246 1053 q 303 1056 258 1053 q 454 1063 407 1063 m 435 1006 q 373 1004 422 1006 q 294 994 324 1003 l 294 526 q 372 522 328 524 q 451 521 417 521 q 636 588 572 522 q 700 767 700 653 q 638 950 700 889 q 435 1006 575 1011 z "},"Ŕ":{"ha":963,"x_min":58,"x_max":968,"o":"m 58 0 m 454 1063 q 713 998 621 1063 q 806 779 806 933 q 740 594 806 674 q 567 483 675 514 l 571 482 q 669 398 621 467 q 778 215 717 329 q 845 100 822 136 q 886 61 868 64 l 968 46 l 968 0 l 794 0 q 756 38 778 0 q 694 156 733 76 q 610 316 646 254 q 531 423 575 378 q 444 465 488 468 l 294 465 l 294 61 l 442 46 l 442 0 l 58 0 l 58 46 l 194 63 l 194 986 l 74 996 l 74 1053 l 246 1053 q 303 1056 258 1053 q 454 1063 407 1063 m 435 1006 q 373 1004 422 1006 q 294 994 324 1003 l 294 526 q 372 522 328 524 q 451 521 417 521 q 636 588 572 522 q 700 767 700 653 q 638 950 700 889 q 435 1006 575 1011 m 635 1303 l 706 1228 q 592 1153 658 1190 q 463 1090 525 1115 l 433 1119 l 635 1303 z "},"Ř":{"ha":963,"x_min":58,"x_max":968,"o":"m 58 0 m 454 1063 q 713 998 621 1063 q 806 779 806 933 q 740 594 806 674 q 567 483 675 514 l 571 482 q 669 398 621 467 q 778 215 717 329 q 845 100 822 136 q 886 61 868 64 l 968 46 l 968 0 l 794 0 q 756 38 778 0 q 694 156 733 76 q 610 316 646 254 q 531 423 575 378 q 444 465 488 468 l 294 465 l 294 61 l 442 46 l 442 0 l 58 0 l 58 46 l 194 63 l 194 986 l 74 996 l 74 1053 l 246 1053 q 303 1056 258 1053 q 454 1063 407 1063 m 435 1006 q 373 1004 422 1006 q 294 994 324 1003 l 294 526 q 372 522 328 524 q 451 521 417 521 q 636 588 572 522 q 700 767 700 653 q 638 950 700 889 q 435 1006 575 1011 m 286 1303 l 467 1178 l 650 1303 l 690 1275 l 514 1106 l 419 1106 l 242 1274 l 286 1303 z "},"Ŗ":{"ha":963,"x_min":58,"x_max":968,"o":"m 58 0 m 454 1063 q 713 998 621 1063 q 806 779 806 933 q 740 594 806 674 q 567 483 675 514 l 571 482 q 669 398 621 467 q 778 215 717 329 q 845 100 822 136 q 886 61 868 64 l 968 46 l 968 0 l 794 0 q 756 38 778 0 q 694 156 733 76 q 610 316 646 254 q 531 423 575 378 q 444 465 488 468 l 294 465 l 294 61 l 442 46 l 442 0 l 58 0 l 58 46 l 194 63 l 194 986 l 74 996 l 74 1053 l 246 1053 q 303 1056 258 1053 q 454 1063 407 1063 m 435 1006 q 373 1004 422 1006 q 294 994 324 1003 l 294 526 q 372 522 328 524 q 451 521 417 521 q 636 588 572 522 q 700 767 700 653 q 638 950 700 889 q 435 1006 575 1011 m 507 -50 q 606 -108 569 -62 q 643 -207 643 -154 q 619 -307 643 -260 q 558 -387 594 -354 q 485 -435 521 -421 l 457 -408 l 457 -390 q 517 -327 494 -374 q 539 -226 539 -281 q 512 -158 539 -185 q 457 -131 485 -131 l 457 -101 l 507 -50 z "},"S":{"ha":833,"x_min":104,"x_max":764,"o":"m 414 -15 q 229 4 321 -15 q 104 43 138 24 l 104 246 l 154 246 l 186 107 q 290 54 224 69 q 426 39 356 39 q 598 88 526 39 q 669 240 669 138 q 634 344 669 299 q 544 422 599 389 q 404 497 490 456 q 252 580 313 542 q 151 672 192 618 q 111 799 111 726 q 162 947 111 888 q 288 1035 213 1007 q 440 1063 364 1063 q 599 1047 533 1063 q 701 1008 664 1031 l 701 828 l 656 828 l 615 963 q 432 1010 561 1010 q 326 990 378 1010 q 239 925 274 969 q 204 814 204 881 q 238 718 204 760 q 322 646 271 676 q 454 576 372 615 q 615 491 553 529 q 721 397 678 453 q 764 267 764 342 q 666 55 764 125 q 414 -15 568 -15 z "},"Ś":{"ha":833,"x_min":104,"x_max":764,"o":"m 104 0 m 414 -15 q 229 4 321 -15 q 104 43 138 24 l 104 246 l 154 246 l 186 107 q 290 54 224 69 q 426 39 356 39 q 598 88 526 39 q 669 240 669 138 q 634 344 669 299 q 544 422 599 389 q 404 497 490 456 q 252 580 313 542 q 151 672 192 618 q 111 799 111 726 q 162 947 111 888 q 288 1035 213 1007 q 440 1063 364 1063 q 599 1047 533 1063 q 701 1008 664 1031 l 701 828 l 656 828 l 615 963 q 432 1010 561 1010 q 326 990 378 1010 q 239 925 274 969 q 204 814 204 881 q 238 718 204 760 q 322 646 271 676 q 454 576 372 615 q 615 491 553 529 q 721 397 678 453 q 764 267 764 342 q 666 55 764 125 q 414 -15 568 -15 m 517 1303 l 588 1228 q 474 1153 540 1190 q 344 1090 407 1115 l 315 1119 l 517 1303 z "},"Š":{"ha":833,"x_min":104,"x_max":764,"o":"m 104 0 m 414 -15 q 229 4 321 -15 q 104 43 138 24 l 104 246 l 154 246 l 186 107 q 290 54 224 69 q 426 39 356 39 q 598 88 526 39 q 669 240 669 138 q 634 344 669 299 q 544 422 599 389 q 404 497 490 456 q 252 580 313 542 q 151 672 192 618 q 111 799 111 726 q 162 947 111 888 q 288 1035 213 1007 q 440 1063 364 1063 q 599 1047 533 1063 q 701 1008 664 1031 l 701 828 l 656 828 l 615 963 q 432 1010 561 1010 q 326 990 378 1010 q 239 925 274 969 q 204 814 204 881 q 238 718 204 760 q 322 646 271 676 q 454 576 372 615 q 615 491 553 529 q 721 397 678 453 q 764 267 764 342 q 666 55 764 125 q 414 -15 568 -15 m 260 1303 l 440 1178 l 624 1303 l 664 1275 l 488 1106 l 393 1106 l 215 1274 l 260 1303 z "},"Ş":{"ha":833,"x_min":104,"x_max":764,"o":"m 764 265 q 676 63 764 132 q 449 -15 589 -7 q 444 -67 444 -61 q 446 -87 444 -81 q 584 -121 536 -83 q 632 -215 632 -158 q 583 -318 632 -281 q 461 -358 533 -356 l 429 -360 q 360 -353 388 -360 q 326 -344 333 -346 l 328 -290 q 374 -299 346 -296 q 417 -303 401 -303 q 500 -285 467 -303 q 533 -215 533 -267 q 501 -152 533 -172 q 411 -132 468 -132 q 369 -136 390 -132 q 386 -15 369 -81 q 217 6 299 -12 q 104 43 135 25 l 104 246 l 154 246 l 186 107 q 290 54 224 69 q 426 39 356 39 q 598 88 526 39 q 669 240 669 138 q 634 344 669 299 q 544 422 599 389 q 404 497 490 456 q 252 580 313 542 q 151 672 192 618 q 111 799 111 726 q 162 947 111 888 q 288 1035 213 1007 q 440 1063 364 1063 q 599 1047 533 1063 q 701 1008 664 1031 l 701 828 l 656 828 l 615 963 q 432 1010 561 1010 q 326 990 378 1010 q 239 925 274 969 q 204 814 204 881 q 238 718 204 760 q 322 646 271 676 q 454 576 372 615 q 615 491 553 529 q 721 397 678 453 q 764 267 764 342 l 764 265 z "},"Ș":{"ha":833,"x_min":104,"x_max":764,"o":"m 104 0 m 414 -15 q 229 4 321 -15 q 104 43 138 24 l 104 246 l 154 246 l 186 107 q 290 54 224 69 q 426 39 356 39 q 598 88 526 39 q 669 240 669 138 q 634 344 669 299 q 544 422 599 389 q 404 497 490 456 q 252 580 313 542 q 151 672 192 618 q 111 799 111 726 q 162 947 111 888 q 288 1035 213 1007 q 440 1063 364 1063 q 599 1047 533 1063 q 701 1008 664 1031 l 701 828 l 656 828 l 615 963 q 432 1010 561 1010 q 326 990 378 1010 q 239 925 274 969 q 204 814 204 881 q 238 718 204 760 q 322 646 271 676 q 454 576 372 615 q 615 491 553 529 q 721 397 678 453 q 764 267 764 342 q 666 55 764 125 q 414 -15 568 -15 m 390 -65 q 490 -124 453 -78 q 526 -222 526 -169 q 502 -322 526 -275 q 441 -403 478 -369 q 368 -450 404 -436 l 340 -424 l 340 -406 q 400 -342 378 -389 q 422 -242 422 -296 q 395 -173 422 -200 q 340 -146 368 -146 l 340 -117 l 390 -65 z "},"T":{"ha":861,"x_min":21,"x_max":844,"o":"m 392 63 l 392 996 l 110 985 l 68 849 l 21 847 l 38 1053 l 844 1053 l 843 844 l 800 839 l 772 985 l 492 996 l 492 63 l 679 46 l 679 0 l 214 0 l 214 46 l 392 63 z "},"Ť":{"ha":861,"x_min":21,"x_max":844,"o":"m 21 0 m 257 1303 l 438 1178 l 621 1303 l 661 1275 l 485 1106 l 390 1106 l 213 1274 l 257 1303 m 392 63 l 392 996 l 110 985 l 68 849 l 21 847 l 38 1053 l 844 1053 l 843 844 l 800 839 l 772 985 l 492 996 l 492 63 l 679 46 l 679 0 l 214 0 l 214 46 l 392 63 z "},"Ț":{"ha":861,"x_min":21,"x_max":844,"o":"m 21 0 m 392 63 l 392 996 l 110 985 l 68 849 l 21 847 l 38 1053 l 844 1053 l 843 844 l 800 839 l 772 985 l 492 996 l 492 63 l 679 46 l 679 0 l 214 0 l 214 46 l 392 63 m 418 -50 q 517 -108 481 -62 q 554 -207 554 -154 q 530 -307 554 -260 q 469 -387 506 -354 q 396 -435 432 -421 l 368 -408 l 368 -390 q 428 -327 406 -374 q 450 -226 450 -281 q 423 -158 450 -185 q 368 -131 396 -131 l 368 -101 l 418 -50 z "},"U":{"ha":1069,"x_min":22,"x_max":1026,"o":"m 1026 1001 l 921 990 l 921 450 q 817 94 921 207 q 531 -19 714 -19 q 222 92 318 -19 q 126 439 126 204 l 126 992 l 22 1001 l 22 1053 l 346 1053 l 346 1001 l 228 990 l 228 435 q 312 125 228 215 q 550 35 396 35 q 770 141 699 35 q 842 450 842 247 l 842 990 l 725 1001 l 725 1053 l 1026 1053 l 1026 1001 z "},"Ú":{"ha":1069,"x_min":22,"x_max":1026,"o":"m 22 0 m 1026 1001 l 921 990 l 921 450 q 817 94 921 207 q 531 -19 714 -19 q 222 92 318 -19 q 126 439 126 204 l 126 992 l 22 1001 l 22 1053 l 346 1053 l 346 1001 l 228 990 l 228 435 q 312 125 228 215 q 550 35 396 35 q 770 141 699 35 q 842 450 842 247 l 842 990 l 725 1001 l 725 1053 l 1026 1053 l 1026 1001 m 710 1303 l 781 1228 q 667 1153 733 1190 q 538 1090 600 1115 l 508 1119 l 710 1303 z "},"Û":{"ha":1069,"x_min":22,"x_max":1026,"o":"m 772 1124 l 725 1097 l 540 1232 l 350 1097 l 308 1122 l 490 1303 l 589 1303 l 772 1124 m 1026 1001 l 921 990 l 921 450 q 817 94 921 207 q 531 -19 714 -19 q 222 92 318 -19 q 126 439 126 204 l 126 992 l 22 1001 l 22 1053 l 346 1053 l 346 1001 l 228 990 l 228 435 q 312 125 228 215 q 550 35 396 35 q 770 141 699 35 q 842 450 842 247 l 842 990 l 725 1001 l 725 1053 l 1026 1053 l 1026 1001 z "},"Ü":{"ha":1069,"x_min":22,"x_max":1026,"o":"m 22 0 m 1026 1001 l 921 990 l 921 450 q 817 94 921 207 q 531 -19 714 -19 q 222 92 318 -19 q 126 439 126 204 l 126 992 l 22 1001 l 22 1053 l 346 1053 l 346 1001 l 228 990 l 228 435 q 312 125 228 215 q 550 35 396 35 q 770 141 699 35 q 842 450 842 247 l 842 990 l 725 1001 l 725 1053 l 1026 1053 l 1026 1001 m 389 1286 q 440 1268 422 1286 q 457 1222 457 1250 q 433 1167 457 1189 q 376 1146 408 1146 q 330 1164 350 1146 q 310 1211 310 1182 q 335 1264 310 1242 q 389 1286 360 1286 m 700 1286 q 750 1268 733 1286 q 767 1221 767 1250 q 743 1167 767 1189 q 688 1146 719 1146 q 640 1163 660 1146 q 619 1210 619 1181 q 644 1264 619 1242 q 700 1286 669 1286 z "},"Ù":{"ha":1069,"x_min":22,"x_max":1026,"o":"m 22 0 m 1026 1001 l 921 990 l 921 450 q 817 94 921 207 q 531 -19 714 -19 q 222 92 318 -19 q 126 439 126 204 l 126 992 l 22 1001 l 22 1053 l 346 1053 l 346 1001 l 228 990 l 228 435 q 312 125 228 215 q 550 35 396 35 q 770 141 699 35 q 842 450 842 247 l 842 990 l 725 1001 l 725 1053 l 1026 1053 l 1026 1001 m 542 1090 q 412 1153 479 1115 q 297 1228 344 1192 l 369 1303 l 569 1119 l 542 1090 z "},"Ű":{"ha":1069,"x_min":22,"x_max":1026,"o":"m 22 0 m 1026 1001 l 921 990 l 921 450 q 817 94 921 207 q 531 -19 714 -19 q 222 92 318 -19 q 126 439 126 204 l 126 992 l 22 1001 l 22 1053 l 346 1053 l 346 1001 l 228 990 l 228 435 q 312 125 228 215 q 550 35 396 35 q 770 141 699 35 q 842 450 842 247 l 842 990 l 725 1001 l 725 1053 l 1026 1053 l 1026 1001 m 586 1367 l 650 1307 q 541 1193 617 1263 q 390 1064 465 1124 l 361 1093 l 586 1367 m 913 1367 l 975 1307 q 865 1192 942 1263 q 715 1064 788 1121 l 686 1093 l 913 1367 z "},"Ū":{"ha":1069,"x_min":22,"x_max":1026,"o":"m 22 0 m 1026 1001 l 921 990 l 921 450 q 817 94 921 207 q 531 -19 714 -19 q 222 92 318 -19 q 126 439 126 204 l 126 992 l 22 1001 l 22 1053 l 346 1053 l 346 1001 l 228 990 l 228 435 q 312 125 228 215 q 550 35 396 35 q 770 141 699 35 q 842 450 842 247 l 842 990 l 725 1001 l 725 1053 l 1026 1053 l 1026 1001 m 713 1260 l 713 1181 l 353 1181 l 353 1260 l 713 1260 z "},"Ų":{"ha":1069,"x_min":22,"x_max":1025,"o":"m 1025 1051 l 1025 1000 l 919 989 l 919 449 q 841 125 919 238 q 621 -12 763 13 q 492 -97 551 -42 q 433 -201 433 -151 q 529 -292 433 -292 q 585 -283 556 -292 q 638 -260 615 -274 l 650 -308 q 574 -344 621 -331 q 474 -358 526 -358 q 378 -323 417 -358 q 340 -229 340 -287 q 391 -116 340 -175 q 515 -19 442 -57 q 219 97 311 -15 q 126 439 126 208 l 126 992 l 22 1001 l 22 1053 l 346 1053 l 346 1001 l 228 990 l 228 435 q 312 125 228 215 q 550 35 396 35 q 770 141 699 35 q 842 450 842 247 l 842 990 l 725 1001 l 725 1053 l 1025 1051 z "},"Ů":{"ha":1069,"x_min":22,"x_max":1026,"o":"m 22 0 m 1026 1001 l 921 990 l 921 450 q 817 94 921 207 q 531 -19 714 -19 q 222 92 318 -19 q 126 439 126 204 l 126 992 l 22 1001 l 22 1053 l 346 1053 l 346 1001 l 228 990 l 228 435 q 312 125 228 215 q 550 35 396 35 q 770 141 699 35 q 842 450 842 247 l 842 990 l 725 1001 l 725 1053 l 1026 1053 l 1026 1001 m 536 1303 q 657 1260 607 1303 q 707 1153 707 1218 q 657 1046 707 1089 q 536 1003 607 1003 q 415 1046 465 1003 q 365 1153 365 1089 q 415 1260 365 1217 q 536 1303 465 1303 m 536 1244 q 460 1218 492 1244 q 429 1153 429 1192 q 460 1085 429 1111 q 536 1060 490 1060 q 612 1085 581 1060 q 643 1151 643 1111 q 612 1218 643 1192 q 536 1244 581 1244 z "},"V":{"ha":967,"x_min":3,"x_max":968,"o":"m 3 1001 l 3 1053 l 347 1053 l 347 1001 l 213 992 l 476 229 l 517 101 l 551 231 l 783 992 l 671 1001 l 671 1053 l 968 1053 l 968 1001 l 871 992 l 539 -14 l 464 -14 l 97 992 l 3 1001 z "},"W":{"ha":1425,"x_min":3,"x_max":1417,"o":"m 3 1001 l 3 1053 l 342 1053 l 342 1001 l 207 992 l 446 232 l 486 106 l 524 226 l 686 868 l 650 992 l 538 1001 l 538 1053 l 885 1053 l 885 1001 l 756 992 l 961 224 l 993 101 l 1025 240 l 1224 992 l 1100 1001 l 1100 1053 l 1417 1053 l 1417 1001 l 1308 992 l 1017 -14 l 936 -14 l 724 732 l 521 -14 l 435 -14 l 96 992 l 3 1001 z "},"X":{"ha":963,"x_min":10,"x_max":956,"o":"m 131 61 l 432 536 l 144 992 l 38 1001 l 38 1053 l 396 1053 l 396 1001 l 265 992 l 499 593 l 736 992 l 619 1001 l 619 1053 l 931 1053 l 931 1001 l 829 992 l 536 550 l 833 61 l 956 46 l 956 0 l 582 0 l 582 46 l 719 61 l 465 483 l 226 61 l 363 46 l 363 0 l 10 0 l 10 46 l 131 61 z "},"Y":{"ha":917,"x_min":8,"x_max":907,"o":"m 424 63 l 424 435 l 90 992 l 8 1001 l 8 1053 l 319 1053 l 319 1001 l 206 992 l 444 563 l 481 490 l 514 563 l 731 990 l 614 1001 l 614 1053 l 907 1053 l 907 1001 l 815 986 l 524 432 l 524 63 l 667 46 l 667 0 l 286 0 l 286 46 l 424 63 z "},"Ý":{"ha":917,"x_min":8,"x_max":907,"o":"m 8 0 m 424 63 l 424 435 l 90 992 l 8 1001 l 8 1053 l 319 1053 l 319 1001 l 206 992 l 444 563 l 481 490 l 514 563 l 731 990 l 614 1001 l 614 1053 l 907 1053 l 907 1001 l 815 986 l 524 432 l 524 63 l 667 46 l 667 0 l 286 0 l 286 46 l 424 63 m 646 1303 l 717 1228 q 603 1153 669 1190 q 474 1090 536 1115 l 444 1119 l 646 1303 z "},"Ÿ":{"ha":917,"x_min":8,"x_max":907,"o":"m 8 0 m 424 63 l 424 435 l 90 992 l 8 1001 l 8 1053 l 319 1053 l 319 1001 l 206 992 l 444 563 l 481 490 l 514 563 l 731 990 l 614 1001 l 614 1053 l 907 1053 l 907 1001 l 815 986 l 524 432 l 524 63 l 667 46 l 667 0 l 286 0 l 286 46 l 424 63 m 326 1286 q 377 1268 360 1286 q 394 1222 394 1250 q 370 1167 394 1189 q 314 1146 346 1146 q 267 1164 288 1146 q 247 1211 247 1182 q 272 1264 247 1242 q 326 1286 297 1286 m 638 1286 q 688 1268 671 1286 q 704 1221 704 1250 q 681 1167 704 1189 q 625 1146 657 1146 q 577 1163 597 1146 q 557 1210 557 1181 q 582 1264 557 1242 q 638 1286 607 1286 z "},"Z":{"ha":917,"x_min":67,"x_max":875,"o":"m 861 1008 l 268 168 l 182 58 l 743 78 l 821 249 l 875 236 l 826 0 l 83 0 l 67 47 l 669 899 l 750 997 l 218 985 l 165 833 l 110 842 l 129 1054 l 844 1054 l 861 1008 z "},"Ź":{"ha":917,"x_min":67,"x_max":875,"o":"m 67 0 m 861 1008 l 268 168 l 182 58 l 743 78 l 821 249 l 875 236 l 826 0 l 83 0 l 67 47 l 669 899 l 750 997 l 218 985 l 165 833 l 110 842 l 129 1054 l 844 1054 l 861 1008 m 665 1303 l 736 1228 q 622 1153 689 1190 q 493 1090 556 1115 l 464 1119 l 665 1303 z "},"Ž":{"ha":917,"x_min":67,"x_max":875,"o":"m 67 0 m 861 1008 l 268 168 l 182 58 l 743 78 l 821 249 l 875 236 l 826 0 l 83 0 l 67 47 l 669 899 l 750 997 l 218 985 l 165 833 l 110 842 l 129 1054 l 844 1054 l 861 1008 m 315 1303 l 496 1178 l 679 1303 l 719 1275 l 543 1106 l 449 1106 l 271 1274 l 315 1303 z "},"Ż":{"ha":917,"x_min":67,"x_max":875,"o":"m 67 0 m 861 1008 l 268 168 l 182 58 l 743 78 l 821 249 l 875 236 l 826 0 l 83 0 l 67 47 l 669 899 l 750 997 l 218 985 l 165 833 l 110 842 l 129 1054 l 844 1054 l 861 1008 m 492 1146 q 444 1164 464 1146 q 424 1211 424 1182 q 449 1264 424 1242 q 503 1286 474 1286 q 553 1268 536 1286 q 571 1222 571 1250 q 547 1167 571 1189 q 492 1146 524 1146 z "},"a":{"ha":776,"x_min":79,"x_max":732,"o":"m 379 772 q 573 717 501 772 q 644 524 644 663 l 643 49 l 732 49 l 732 11 q 615 -11 685 -11 q 563 7 574 -11 q 551 82 551 25 q 307 -15 467 -15 q 195 10 247 -15 q 111 82 143 35 q 79 194 79 129 q 155 346 79 289 q 337 427 231 403 q 546 451 443 451 l 546 511 q 496 660 546 618 q 346 703 446 703 q 231 685 296 703 q 128 642 165 667 l 108 690 q 238 750 154 728 q 379 772 321 772 m 546 396 q 292 352 407 396 q 178 210 178 308 q 225 90 176 129 q 357 51 274 51 q 546 122 461 51 l 546 396 z "},"á":{"ha":776,"x_min":79,"x_max":732,"o":"m 79 0 m 379 772 q 573 717 501 772 q 644 524 644 663 l 643 49 l 732 49 l 732 11 q 615 -11 685 -11 q 563 7 574 -11 q 551 82 551 25 q 307 -15 467 -15 q 195 10 247 -15 q 111 82 143 35 q 79 194 79 129 q 155 346 79 289 q 337 427 231 403 q 546 451 443 451 l 546 511 q 496 660 546 618 q 346 703 446 703 q 231 685 296 703 q 128 642 165 667 l 108 690 q 238 750 154 728 q 379 772 321 772 m 546 396 q 292 352 407 396 q 178 210 178 308 q 225 90 176 129 q 357 51 274 51 q 546 122 461 51 l 546 396 m 521 1200 l 593 1126 q 338 911 546 1053 l 308 940 l 521 1200 z "},"ă":{"ha":776,"x_min":79,"x_max":732,"o":"m 79 0 m 379 772 q 573 717 501 772 q 644 524 644 663 l 643 49 l 732 49 l 732 11 q 615 -11 685 -11 q 563 7 574 -11 q 551 82 551 25 q 307 -15 467 -15 q 195 10 247 -15 q 111 82 143 35 q 79 194 79 129 q 155 346 79 289 q 337 427 231 403 q 546 451 443 451 l 546 511 q 496 660 546 618 q 346 703 446 703 q 231 685 296 703 q 128 642 165 667 l 108 690 q 238 750 154 728 q 379 772 321 772 m 546 396 q 292 352 407 396 q 178 210 178 308 q 225 90 176 129 q 357 51 274 51 q 546 122 461 51 l 546 396 m 613 1157 q 583 1052 613 1101 q 503 974 554 1003 q 386 944 451 944 q 269 974 319 944 q 191 1052 218 1003 q 164 1157 164 1101 l 214 1157 q 265 1062 225 1106 q 389 1018 304 1018 q 564 1157 525 1018 l 613 1157 z "},"â":{"ha":776,"x_min":79,"x_max":732,"o":"m 79 0 m 379 772 q 573 717 501 772 q 644 524 644 663 l 643 49 l 732 49 l 732 11 q 615 -11 685 -11 q 563 7 574 -11 q 551 82 551 25 q 307 -15 467 -15 q 195 10 247 -15 q 111 82 143 35 q 79 194 79 129 q 155 346 79 289 q 337 427 231 403 q 546 451 443 451 l 546 511 q 496 660 546 618 q 346 703 446 703 q 231 685 296 703 q 128 642 165 667 l 108 690 q 238 750 154 728 q 379 772 321 772 m 546 396 q 292 352 407 396 q 178 210 178 308 q 225 90 176 129 q 357 51 274 51 q 546 122 461 51 l 546 396 m 340 1201 l 436 1201 l 622 932 l 576 907 l 388 1114 l 192 907 l 150 931 l 340 1201 z "},"ä":{"ha":776,"x_min":79,"x_max":732,"o":"m 79 0 m 379 772 q 573 717 501 772 q 644 524 644 663 l 643 49 l 732 49 l 732 11 q 615 -11 685 -11 q 563 7 574 -11 q 551 82 551 25 q 307 -15 467 -15 q 195 10 247 -15 q 111 82 143 35 q 79 194 79 129 q 155 346 79 289 q 337 427 231 403 q 546 451 443 451 l 546 511 q 496 660 546 618 q 346 703 446 703 q 231 685 296 703 q 128 642 165 667 l 108 690 q 238 750 154 728 q 379 772 321 772 m 546 396 q 292 352 407 396 q 178 210 178 308 q 225 90 176 129 q 357 51 274 51 q 546 122 461 51 l 546 396 m 225 967 q 178 983 197 967 q 160 1029 160 1000 q 183 1082 160 1060 q 238 1104 207 1104 q 288 1086 271 1104 q 306 1040 306 1068 q 281 987 306 1007 q 225 967 257 967 m 535 967 q 488 983 507 967 q 468 1029 468 1000 q 492 1082 468 1060 q 546 1104 517 1104 q 597 1086 579 1104 q 614 1040 614 1068 q 590 987 614 1007 q 535 967 565 967 z "},"à":{"ha":776,"x_min":79,"x_max":732,"o":"m 79 0 m 379 772 q 573 717 501 772 q 644 524 644 663 l 643 49 l 732 49 l 732 11 q 615 -11 685 -11 q 563 7 574 -11 q 551 82 551 25 q 307 -15 467 -15 q 195 10 247 -15 q 111 82 143 35 q 79 194 79 129 q 155 346 79 289 q 337 427 231 403 q 546 451 443 451 l 546 511 q 496 660 546 618 q 346 703 446 703 q 231 685 296 703 q 128 642 165 667 l 108 690 q 238 750 154 728 q 379 772 321 772 m 546 396 q 292 352 407 396 q 178 210 178 308 q 225 90 176 129 q 357 51 274 51 q 546 122 461 51 l 546 396 m 457 911 q 201 1126 253 1049 l 274 1200 l 486 940 l 457 911 z "},"ā":{"ha":776,"x_min":79,"x_max":732,"o":"m 79 0 m 379 772 q 573 717 501 772 q 644 524 644 663 l 643 49 l 732 49 l 732 11 q 615 -11 685 -11 q 563 7 574 -11 q 551 82 551 25 q 307 -15 467 -15 q 195 10 247 -15 q 111 82 143 35 q 79 194 79 129 q 155 346 79 289 q 337 427 231 403 q 546 451 443 451 l 546 511 q 496 660 546 618 q 346 703 446 703 q 231 685 296 703 q 128 642 165 667 l 108 690 q 238 750 154 728 q 379 772 321 772 m 546 396 q 292 352 407 396 q 178 210 178 308 q 225 90 176 129 q 357 51 274 51 q 546 122 461 51 l 546 396 m 561 1078 l 561 999 l 201 999 l 201 1078 l 561 1078 z "},"ą":{"ha":776,"x_min":79,"x_max":735,"o":"m 379 772 q 573 717 501 772 q 644 524 644 663 l 643 49 l 732 49 l 732 8 q 577 -76 640 -26 q 514 -189 514 -126 q 543 -262 514 -239 q 619 -285 572 -285 q 735 -254 681 -285 l 735 -301 q 665 -337 707 -324 q 579 -350 622 -350 q 466 -317 511 -350 q 421 -215 421 -283 q 480 -92 421 -147 q 604 -11 539 -36 q 560 11 569 -7 q 551 82 551 29 q 307 -15 467 -15 q 195 10 247 -15 q 111 82 143 35 q 79 194 79 129 q 155 346 79 289 q 337 427 231 403 q 546 451 443 451 l 546 511 q 496 660 546 618 q 346 703 446 703 q 231 685 296 703 q 128 642 165 667 l 108 690 q 238 750 154 728 q 379 772 321 772 m 546 396 q 292 352 407 396 q 178 210 178 308 q 225 90 176 129 q 357 51 274 51 q 546 122 461 51 l 546 396 z "},"å":{"ha":776,"x_min":79,"x_max":732,"o":"m 79 0 m 379 772 q 573 717 501 772 q 644 524 644 663 l 643 49 l 732 49 l 732 11 q 615 -11 685 -11 q 563 7 574 -11 q 551 82 551 25 q 307 -15 467 -15 q 195 10 247 -15 q 111 82 143 35 q 79 194 79 129 q 155 346 79 289 q 337 427 231 403 q 546 451 443 451 l 546 511 q 496 660 546 618 q 346 703 446 703 q 231 685 296 703 q 128 642 165 667 l 108 690 q 238 750 154 728 q 379 772 321 772 m 546 396 q 292 352 407 396 q 178 210 178 308 q 225 90 176 129 q 357 51 274 51 q 546 122 461 51 l 546 396 m 372 1215 q 490 1169 442 1215 q 539 1056 539 1122 q 490 942 539 989 q 372 896 442 896 q 255 942 303 896 q 207 1056 207 989 q 255 1169 207 1122 q 372 1215 303 1215 m 372 1157 q 300 1127 331 1157 q 269 1054 269 1097 q 299 981 269 1010 q 372 951 329 951 q 446 981 415 951 q 476 1054 476 1010 q 446 1127 476 1097 q 372 1157 415 1157 z "},"ã":{"ha":776,"x_min":79,"x_max":732,"o":"m 79 0 m 379 772 q 573 717 501 772 q 644 524 644 663 l 643 49 l 732 49 l 732 11 q 615 -11 685 -11 q 563 7 574 -11 q 551 82 551 25 q 307 -15 467 -15 q 195 10 247 -15 q 111 82 143 35 q 79 194 79 129 q 155 346 79 289 q 337 427 231 403 q 546 451 443 451 l 546 511 q 496 660 546 618 q 346 703 446 703 q 231 685 296 703 q 128 642 165 667 l 108 690 q 238 750 154 728 q 379 772 321 772 m 546 396 q 292 352 407 396 q 178 210 178 308 q 225 90 176 129 q 357 51 274 51 q 546 122 461 51 l 546 396 m 121 1015 q 197 1095 147 1063 q 300 1128 247 1128 q 353 1114 331 1128 q 407 1072 376 1100 q 450 1037 432 1049 q 489 1025 468 1025 q 558 1045 526 1025 q 618 1097 589 1065 l 647 1057 q 569 978 619 1011 q 468 946 519 946 q 415 960 438 946 q 363 1001 393 974 q 318 1038 335 1026 q 279 1049 301 1049 q 209 1028 240 1049 q 149 976 178 1008 l 121 1015 z "},"æ":{"ha":1228,"x_min":75,"x_max":1158,"o":"m 908 782 q 1092 703 1026 782 q 1158 481 1158 625 q 1151 389 1158 431 l 640 389 q 715 138 638 224 q 921 53 793 53 q 1035 69 976 53 q 1124 107 1094 86 l 1144 60 q 1034 4 1110 25 q 885 -17 958 -17 q 599 146 681 -17 q 485 29 568 74 q 300 -15 403 -15 q 188 12 240 -15 q 106 91 136 39 q 79 213 75 143 q 165 356 85 301 q 352 431 246 410 q 543 449 458 451 l 543 511 q 493 661 543 619 q 350 703 443 703 q 237 684 301 703 q 126 639 172 665 l 110 690 q 237 749 153 725 q 385 772 321 772 q 538 740 476 772 q 619 621 599 707 q 739 740 665 699 q 908 782 813 782 m 879 725 q 717 653 782 725 q 642 450 653 582 l 1054 450 q 1056 489 1056 464 q 963 706 1056 656 q 879 725 929 725 m 543 396 q 386 381 471 397 q 240 322 301 364 q 178 211 178 281 q 224 92 178 133 q 350 51 269 51 q 473 89 419 51 q 542 185 526 126 l 543 396 z "},"b":{"ha":857,"x_min":29,"x_max":785,"o":"m 29 1035 l 29 1081 l 219 1100 l 243 1089 l 243 692 q 483 782 357 782 q 633 744 565 782 q 743 622 701 706 q 785 410 785 539 q 736 193 785 292 q 601 38 688 94 q 401 -19 514 -19 q 238 -1 314 -19 q 146 33 161 17 l 146 1017 l 29 1035 m 243 90 q 302 51 254 64 q 414 38 350 38 q 549 78 486 38 q 649 199 611 118 q 688 394 688 279 q 618 633 688 557 q 443 710 549 710 q 333 689 388 710 q 243 636 278 668 l 243 90 z "},"c":{"ha":713,"x_min":72,"x_max":657,"o":"m 461 779 q 563 770 514 779 q 636 746 611 761 l 636 600 l 586 600 l 558 688 q 432 718 517 718 q 299 681 360 718 q 203 573 239 644 q 168 403 168 501 q 206 207 168 285 q 303 93 243 129 q 435 57 364 57 q 546 72 485 57 q 638 108 607 86 l 657 60 q 547 6 618 25 q 396 -14 475 -14 q 222 35 294 -14 q 110 172 149 85 q 72 368 72 258 q 124 586 72 493 q 264 729 175 679 q 461 779 353 779 z "},"ć":{"ha":713,"x_min":72,"x_max":657,"o":"m 72 0 m 461 779 q 563 770 514 779 q 636 746 611 761 l 636 600 l 586 600 l 558 688 q 432 718 517 718 q 299 681 360 718 q 203 573 239 644 q 168 403 168 501 q 206 207 168 285 q 303 93 243 129 q 435 57 364 57 q 546 72 485 57 q 638 108 607 86 l 657 60 q 547 6 618 25 q 396 -14 475 -14 q 222 35 294 -14 q 110 172 149 85 q 72 368 72 258 q 124 586 72 493 q 264 729 175 679 q 461 779 353 779 m 558 1200 l 631 1126 q 375 911 583 1053 l 346 940 l 558 1200 z "},"č":{"ha":713,"x_min":72,"x_max":664,"o":"m 72 0 m 461 779 q 563 770 514 779 q 636 746 611 761 l 636 600 l 586 600 l 558 688 q 432 718 517 718 q 299 681 360 718 q 203 573 239 644 q 168 403 168 501 q 206 207 168 285 q 303 93 243 129 q 435 57 364 57 q 546 72 485 57 q 638 108 607 86 l 657 60 q 547 6 618 25 q 396 -14 475 -14 q 222 35 294 -14 q 110 172 149 85 q 72 368 72 258 q 124 586 72 493 q 264 729 175 679 q 461 779 353 779 m 238 1201 l 429 993 l 622 1201 l 664 1176 l 478 907 l 381 907 l 192 1176 l 238 1201 z "},"ç":{"ha":713,"x_min":72,"x_max":657,"o":"m 421 -86 q 559 -119 511 -82 q 607 -214 607 -157 q 558 -317 607 -279 q 436 -357 508 -354 l 404 -358 q 335 -351 363 -358 q 301 -343 308 -344 l 303 -289 q 349 -298 321 -294 q 392 -301 376 -301 q 475 -283 442 -301 q 508 -214 508 -265 q 476 -151 508 -171 q 386 -131 443 -131 q 344 -135 365 -131 q 361 -12 344 -78 q 149 106 225 1 q 72 368 72 210 q 124 586 72 493 q 264 729 175 679 q 461 779 353 779 q 563 770 514 779 q 636 746 611 761 l 636 600 l 586 600 l 558 688 q 432 718 517 718 q 299 681 360 718 q 203 573 239 644 q 168 403 168 501 q 206 207 168 285 q 303 93 243 129 q 435 57 364 57 q 546 72 485 57 q 638 108 607 86 l 657 60 q 558 8 621 28 q 422 -14 494 -11 q 418 -65 418 -60 q 419 -86 418 -79 l 421 -86 z "},"d":{"ha":861,"x_min":72,"x_max":804,"o":"m 713 1086 l 713 49 l 804 49 l 804 7 q 747 -9 783 -3 q 681 -15 710 -15 q 629 1 640 -15 q 618 64 618 17 q 520 8 583 33 q 372 -17 457 -17 q 222 25 290 -17 q 113 153 154 67 q 72 367 72 239 q 124 580 72 485 q 265 728 176 675 q 461 782 354 782 q 539 775 508 782 q 589 761 569 768 q 614 753 608 754 l 614 1015 l 475 1032 l 475 1078 l 686 1100 l 713 1086 m 450 724 q 314 686 378 724 q 210 571 250 649 q 171 378 171 493 q 203 201 171 274 q 289 92 235 128 q 410 56 343 56 q 522 72 468 56 q 614 124 576 89 l 614 667 q 556 707 592 690 q 450 724 521 724 z "},"ð":{"ha":835,"x_min":68,"x_max":767,"o":"m 579 1119 l 468 1021 q 688 758 608 915 q 767 414 767 600 q 718 181 767 278 q 588 33 669 83 q 404 -18 506 -18 q 228 28 304 -18 q 110 156 151 74 q 68 340 68 238 q 115 537 68 456 q 242 659 163 618 q 417 700 321 700 q 551 670 483 700 q 656 594 619 640 q 569 805 632 708 q 419 972 506 901 l 301 865 l 249 907 l 364 1013 q 222 1085 296 1061 l 235 1142 q 411 1060 326 1111 l 482 1125 l 524 1164 l 579 1119 m 417 643 q 235 564 297 643 q 174 347 174 485 q 201 193 174 264 q 285 80 229 122 q 424 38 342 38 q 552 86 499 38 q 633 210 606 135 q 661 365 660 286 q 661 405 661 371 q 657 465 661 439 q 613 548 646 507 q 530 616 581 589 q 417 643 479 643 z "},"ď":{"ha":978,"x_min":72,"x_max":929,"o":"m 72 0 m 713 1086 l 713 49 l 804 49 l 804 7 q 747 -9 783 -3 q 681 -15 710 -15 q 629 1 640 -15 q 618 64 618 17 q 520 8 583 33 q 372 -17 457 -17 q 222 25 290 -17 q 113 153 154 67 q 72 367 72 239 q 124 580 72 485 q 265 728 176 675 q 461 782 354 782 q 539 775 508 782 q 589 761 569 768 q 614 753 608 754 l 614 1015 l 475 1032 l 475 1078 l 686 1100 l 713 1086 m 450 724 q 314 686 378 724 q 210 571 250 649 q 171 378 171 493 q 203 201 171 274 q 289 92 235 128 q 410 56 343 56 q 522 72 468 56 q 614 124 576 89 l 614 667 q 556 707 592 690 q 450 724 521 724 m 807 749 q 836 911 836 836 q 826 1021 836 971 q 801 1088 815 1071 l 810 1115 l 889 1139 q 918 1076 907 1121 q 929 983 929 1032 q 906 819 929 901 q 850 708 882 738 l 808 732 l 807 749 z "},"đ":{"ha":861,"x_min":72,"x_max":833,"o":"m 713 836 l 713 49 l 804 49 l 804 7 q 747 -9 783 -3 q 681 -15 710 -15 q 629 1 640 -15 q 618 64 618 17 q 520 8 583 33 q 372 -17 457 -17 q 222 22 290 -17 q 113 141 154 61 q 72 339 72 221 q 124 544 72 456 q 264 679 175 632 q 461 726 353 726 q 539 719 508 726 q 589 706 569 713 q 614 697 608 699 l 614 836 l 332 836 l 332 899 l 614 899 l 614 1015 l 475 1032 l 475 1078 l 686 1100 l 713 1086 l 713 899 l 833 899 l 833 836 l 713 836 m 614 611 q 556 651 592 635 q 450 668 521 668 q 313 637 376 668 q 210 534 250 606 q 171 351 171 463 q 238 132 171 208 q 410 56 306 56 q 522 72 468 56 q 614 124 576 89 l 614 611 z "},"e":{"ha":776,"x_min":69,"x_max":706,"o":"m 444 782 q 631 707 561 782 q 703 499 701 632 q 696 389 706 443 l 169 389 q 239 144 169 233 q 443 54 308 54 q 569 70 506 54 q 664 107 633 86 l 685 60 q 567 4 646 25 q 407 -17 488 -17 q 158 90 246 -17 q 69 376 69 196 q 118 584 69 492 q 252 729 167 676 q 444 782 338 782 m 417 725 q 252 654 319 725 q 172 450 185 583 l 600 450 q 601 489 601 464 q 508 704 601 654 q 417 725 471 725 z "},"é":{"ha":776,"x_min":69,"x_max":706,"o":"m 69 0 m 444 782 q 631 707 561 782 q 703 499 701 632 q 696 389 706 443 l 169 389 q 239 144 169 233 q 443 54 308 54 q 569 70 506 54 q 664 107 633 86 l 685 60 q 567 4 646 25 q 407 -17 488 -17 q 158 90 246 -17 q 69 376 69 196 q 118 584 69 492 q 252 729 167 676 q 444 782 338 782 m 417 725 q 252 654 319 725 q 172 450 185 583 l 600 450 q 601 489 601 464 q 508 704 601 654 q 417 725 471 725 m 544 1200 l 617 1126 q 361 911 569 1053 l 332 940 l 544 1200 z "},"ě":{"ha":776,"x_min":69,"x_max":706,"o":"m 69 0 m 444 782 q 631 707 561 782 q 703 499 701 632 q 696 389 706 443 l 169 389 q 239 144 169 233 q 443 54 308 54 q 569 70 506 54 q 664 107 633 86 l 685 60 q 567 4 646 25 q 407 -17 488 -17 q 158 90 246 -17 q 69 376 69 196 q 118 584 69 492 q 252 729 167 676 q 444 782 338 782 m 417 725 q 252 654 319 725 q 172 450 185 583 l 600 450 q 601 489 601 464 q 508 704 601 654 q 417 725 471 725 m 224 1201 l 415 993 l 608 1201 l 650 1176 l 464 907 l 367 907 l 178 1176 l 224 1201 z "},"ê":{"ha":776,"x_min":69,"x_max":706,"o":"m 69 0 m 444 782 q 631 707 561 782 q 703 499 701 632 q 696 389 706 443 l 169 389 q 239 144 169 233 q 443 54 308 54 q 569 70 506 54 q 664 107 633 86 l 685 60 q 567 4 646 25 q 407 -17 488 -17 q 158 90 246 -17 q 69 376 69 196 q 118 584 69 492 q 252 729 167 676 q 444 782 338 782 m 417 725 q 252 654 319 725 q 172 450 185 583 l 600 450 q 601 489 601 464 q 508 704 601 654 q 417 725 471 725 m 364 1201 l 460 1201 l 646 932 l 600 907 l 411 1114 l 215 907 l 174 931 l 364 1201 z "},"ë":{"ha":776,"x_min":69,"x_max":706,"o":"m 69 0 m 444 782 q 631 707 561 782 q 703 499 701 632 q 696 389 706 443 l 169 389 q 239 144 169 233 q 443 54 308 54 q 569 70 506 54 q 664 107 633 86 l 685 60 q 567 4 646 25 q 407 -17 488 -17 q 158 90 246 -17 q 69 376 69 196 q 118 584 69 492 q 252 729 167 676 q 444 782 338 782 m 417 725 q 252 654 319 725 q 172 450 185 583 l 600 450 q 601 489 601 464 q 508 704 601 654 q 417 725 471 725 m 247 967 q 201 983 219 967 q 182 1029 182 1000 q 206 1082 182 1060 q 260 1104 229 1104 q 310 1086 293 1104 q 328 1040 328 1068 q 303 987 328 1007 q 247 967 279 967 m 557 967 q 510 983 529 967 q 490 1029 490 1000 q 515 1082 490 1060 q 568 1104 539 1104 q 619 1086 601 1104 q 636 1040 636 1068 q 612 987 636 1007 q 557 967 588 967 z "},"ė":{"ha":776,"x_min":69,"x_max":706,"o":"m 69 0 m 444 782 q 631 707 561 782 q 703 499 701 632 q 696 389 706 443 l 169 389 q 239 144 169 233 q 443 54 308 54 q 569 70 506 54 q 664 107 633 86 l 685 60 q 567 4 646 25 q 407 -17 488 -17 q 158 90 246 -17 q 69 376 69 196 q 118 584 69 492 q 252 729 167 676 q 444 782 338 782 m 417 725 q 252 654 319 725 q 172 450 185 583 l 600 450 q 601 489 601 464 q 508 704 601 654 q 417 725 471 725 m 431 1097 q 481 1078 464 1097 q 499 1032 499 1060 q 474 977 499 999 q 419 956 450 956 q 372 974 392 956 q 351 1021 351 992 q 376 1074 351 1051 q 431 1097 401 1097 z "},"è":{"ha":776,"x_min":69,"x_max":706,"o":"m 69 0 m 444 782 q 631 707 561 782 q 703 499 701 632 q 696 389 706 443 l 169 389 q 239 144 169 233 q 443 54 308 54 q 569 70 506 54 q 664 107 633 86 l 685 60 q 567 4 646 25 q 407 -17 488 -17 q 158 90 246 -17 q 69 376 69 196 q 118 584 69 492 q 252 729 167 676 q 444 782 338 782 m 417 725 q 252 654 319 725 q 172 450 185 583 l 600 450 q 601 489 601 464 q 508 704 601 654 q 417 725 471 725 m 479 911 q 224 1126 275 1049 l 296 1200 l 508 940 l 479 911 z "},"ē":{"ha":776,"x_min":69,"x_max":706,"o":"m 69 0 m 444 782 q 631 707 561 782 q 703 499 701 632 q 696 389 706 443 l 169 389 q 239 144 169 233 q 443 54 308 54 q 569 70 506 54 q 664 107 633 86 l 685 60 q 567 4 646 25 q 407 -17 488 -17 q 158 90 246 -17 q 69 376 69 196 q 118 584 69 492 q 252 729 167 676 q 444 782 338 782 m 417 725 q 252 654 319 725 q 172 450 185 583 l 600 450 q 601 489 601 464 q 508 704 601 654 q 417 725 471 725 m 589 1078 l 589 999 l 229 999 l 229 1078 l 589 1078 z "},"ę":{"ha":776,"x_min":69,"x_max":706,"o":"m 444 782 q 631 707 561 782 q 703 499 701 632 q 696 389 706 443 l 169 389 q 239 144 169 233 q 443 54 308 54 q 569 70 506 54 q 664 107 633 86 l 686 57 l 660 38 q 514 -83 561 -35 q 467 -182 467 -131 q 499 -256 467 -232 q 581 -281 532 -281 q 689 -250 640 -281 l 689 -301 q 622 -335 661 -322 q 540 -347 582 -347 q 423 -312 471 -347 q 375 -206 375 -276 q 417 -99 375 -153 q 524 -4 458 -44 q 407 -17 465 -17 q 158 90 246 -17 q 69 376 69 196 q 118 584 69 492 q 252 729 167 676 q 444 782 338 782 m 417 725 q 252 654 319 725 q 172 450 185 583 l 600 450 q 601 489 601 464 q 557 663 601 600 q 417 725 513 725 z "},"f":{"ha":568,"x_min":65,"x_max":586,"o":"m 219 58 l 219 675 l 65 675 l 65 717 l 219 746 l 219 817 q 260 987 219 913 q 364 1101 301 1061 q 489 1140 426 1140 q 586 1129 560 1140 l 586 1042 q 542 1056 572 1050 q 469 1061 511 1061 q 360 1017 401 1061 q 318 856 318 974 l 318 746 l 539 746 l 539 675 l 318 675 l 318 57 l 481 46 l 481 0 l 81 0 l 81 46 l 219 58 z "},"g":{"ha":815,"x_min":86,"x_max":797,"o":"m 415 788 q 597 738 528 788 q 717 768 631 768 l 797 768 l 797 689 l 647 690 q 692 536 692 628 q 651 388 692 450 q 541 292 610 325 q 390 258 472 258 q 247 283 310 258 q 224 178 224 244 q 247 110 224 131 q 326 88 269 90 q 401 86 340 86 l 497 86 q 674 56 614 86 q 751 -17 733 25 q 768 -111 768 -58 q 724 -244 768 -187 q 600 -330 679 -300 q 417 -360 521 -360 q 179 -313 272 -360 q 86 -162 86 -267 q 123 -51 86 -103 q 203 28 160 1 q 147 72 158 44 q 135 136 135 99 q 156 215 135 165 q 215 299 178 265 q 128 383 160 331 q 97 511 97 436 q 142 663 97 600 q 259 756 186 725 q 415 788 332 788 m 390 732 q 249 682 304 732 q 193 528 193 632 q 247 374 193 432 q 407 315 301 315 q 547 367 497 315 q 596 519 596 418 q 390 732 596 732 m 243 15 q 182 -131 182 -40 q 256 -262 182 -224 q 431 -300 329 -300 q 617 -259 546 -300 q 689 -136 689 -218 q 672 -61 689 -90 q 610 -15 656 -32 q 478 4 564 3 l 363 4 q 243 15 292 4 z "},"ğ":{"ha":815,"x_min":86,"x_max":797,"o":"m 86 0 m 415 788 q 597 738 528 788 q 717 768 631 768 l 797 768 l 797 689 l 647 690 q 692 536 692 628 q 651 388 692 450 q 541 292 610 325 q 390 258 472 258 q 247 283 310 258 q 224 178 224 244 q 247 110 224 131 q 326 88 269 90 q 401 86 340 86 l 497 86 q 674 56 614 86 q 751 -17 733 25 q 768 -111 768 -58 q 724 -244 768 -187 q 600 -330 679 -300 q 417 -360 521 -360 q 179 -313 272 -360 q 86 -162 86 -267 q 123 -51 86 -103 q 203 28 160 1 q 147 72 158 44 q 135 136 135 99 q 156 215 135 165 q 215 299 178 265 q 128 383 160 331 q 97 511 97 436 q 142 663 97 600 q 259 756 186 725 q 415 788 332 788 m 390 732 q 249 682 304 732 q 193 528 193 632 q 247 374 193 432 q 407 315 301 315 q 547 367 497 315 q 596 519 596 418 q 390 732 596 732 m 243 15 q 182 -131 182 -40 q 256 -262 182 -224 q 431 -300 329 -300 q 617 -259 546 -300 q 689 -136 689 -218 q 672 -61 689 -90 q 610 -15 656 -32 q 478 4 564 3 l 363 4 q 243 15 292 4 m 626 1157 q 597 1052 626 1101 q 517 974 568 1003 q 400 944 465 944 q 283 974 333 944 q 205 1052 232 1003 q 178 1157 178 1101 l 228 1157 q 278 1062 239 1106 q 403 1018 318 1018 q 578 1157 539 1018 l 626 1157 z "},"ģ":{"ha":815,"x_min":86,"x_max":797,"o":"m 86 0 m 415 788 q 597 738 528 788 q 717 768 631 768 l 797 768 l 797 689 l 647 690 q 692 536 692 628 q 651 388 692 450 q 541 292 610 325 q 390 258 472 258 q 247 283 310 258 q 224 178 224 244 q 247 110 224 131 q 326 88 269 90 q 401 86 340 86 l 497 86 q 674 56 614 86 q 751 -17 733 25 q 768 -111 768 -58 q 724 -244 768 -187 q 600 -330 679 -300 q 417 -360 521 -360 q 179 -313 272 -360 q 86 -162 86 -267 q 123 -51 86 -103 q 203 28 160 1 q 147 72 158 44 q 135 136 135 99 q 156 215 135 165 q 215 299 178 265 q 128 383 160 331 q 97 511 97 436 q 142 663 97 600 q 259 756 186 725 q 415 788 332 788 m 390 732 q 249 682 304 732 q 193 528 193 632 q 247 374 193 432 q 407 315 301 315 q 547 367 497 315 q 596 519 596 418 q 390 732 596 732 m 243 15 q 182 -131 182 -40 q 256 -262 182 -224 q 431 -300 329 -300 q 617 -259 546 -300 q 689 -136 689 -218 q 672 -61 689 -90 q 610 -15 656 -32 q 478 4 564 3 l 363 4 q 243 15 292 4 m 431 878 q 331 936 368 890 q 294 1035 294 982 q 319 1135 294 1088 q 380 1215 343 1182 q 453 1263 417 1249 l 481 1236 l 481 1218 q 421 1155 443 1201 q 399 1054 399 1108 q 426 985 399 1013 q 481 958 453 958 l 481 929 l 431 878 z "},"h":{"ha":953,"x_min":76,"x_max":903,"o":"m 192 58 l 192 1014 l 76 1031 l 76 1078 l 263 1100 l 289 1086 l 289 767 l 288 667 q 428 744 346 713 q 567 775 510 775 q 710 740 660 775 q 780 626 760 704 q 799 411 800 549 l 799 58 l 903 46 l 903 0 l 588 0 l 588 46 l 700 58 l 700 372 q 687 565 700 497 q 635 666 674 633 q 524 699 597 699 q 403 677 471 699 q 289 624 336 656 l 289 58 l 396 46 l 396 0 l 89 0 l 89 46 l 192 58 z "},"ħ":{"ha":953,"x_min":71,"x_max":903,"o":"m 192 58 l 192 836 l 71 836 l 71 899 l 192 899 l 192 1014 l 76 1031 l 76 1078 l 263 1100 l 289 1086 l 289 899 l 432 899 l 432 836 l 289 836 l 289 767 l 288 667 q 428 744 346 713 q 567 775 510 775 q 710 740 660 775 q 780 626 760 704 q 799 411 800 549 l 799 58 l 903 46 l 903 0 l 588 0 l 588 46 l 700 58 l 700 372 q 687 565 700 497 q 635 666 674 633 q 524 699 597 699 q 403 677 471 699 q 289 624 336 656 l 289 58 l 396 46 l 396 0 l 89 0 l 89 46 l 192 58 z "},"i":{"ha":463,"x_min":94,"x_max":414,"o":"m 243 1103 q 294 1085 276 1103 q 311 1038 311 1067 q 287 982 311 1004 q 231 960 263 960 q 183 978 203 960 q 164 1025 164 996 q 188 1081 164 1058 q 243 1103 213 1103 m 301 756 l 301 58 l 414 46 l 414 0 l 94 0 l 94 46 l 207 57 l 207 658 l 110 693 l 110 726 l 275 768 l 301 756 z "},"ı":{"ha":463,"x_min":94,"x_max":414,"o":"m 207 57 l 207 658 l 110 693 l 110 726 l 275 768 l 301 756 l 301 58 l 414 46 l 414 0 l 94 0 l 94 46 l 207 57 z "},"í":{"ha":463,"x_min":94,"x_max":450,"o":"m 94 0 m 207 57 l 207 658 l 110 693 l 110 726 l 275 768 l 301 756 l 301 58 l 414 46 l 414 0 l 94 0 l 94 46 l 207 57 m 378 1200 l 450 1126 q 194 911 403 1053 l 165 940 l 378 1200 z "},"î":{"ha":463,"x_min":7,"x_max":479,"o":"m 199 1201 l 294 1201 l 479 932 l 433 907 l 246 1114 l 49 907 l 7 931 l 199 1201 m 207 57 l 207 658 l 110 693 l 110 726 l 275 768 l 301 756 l 301 58 l 414 46 l 414 0 l 94 0 l 94 46 l 207 57 z "},"ï":{"ha":463,"x_min":17,"x_max":471,"o":"m 17 0 m 207 57 l 207 658 l 110 693 l 110 726 l 275 768 l 301 756 l 301 58 l 414 46 l 414 0 l 94 0 l 94 46 l 207 57 m 82 967 q 35 983 54 967 q 17 1029 17 1000 q 40 1082 17 1060 q 94 1104 64 1104 q 145 1086 128 1104 q 163 1040 163 1068 q 138 987 163 1007 q 82 967 114 967 m 392 967 q 344 983 364 967 q 325 1029 325 1000 q 349 1082 325 1060 q 403 1104 374 1104 q 453 1086 436 1104 q 471 1040 471 1068 q 447 987 471 1007 q 392 967 422 967 z "},"ì":{"ha":463,"x_min":57,"x_max":414,"o":"m 313 911 q 57 1126 108 1049 l 129 1200 l 342 940 l 313 911 m 207 57 l 207 658 l 110 693 l 110 726 l 275 768 l 301 756 l 301 58 l 414 46 l 414 0 l 94 0 l 94 46 l 207 57 z "},"ĳ":{"ha":903,"x_min":94,"x_max":771,"o":"m 94 0 m 243 1103 q 294 1085 276 1103 q 311 1038 311 1067 q 287 982 311 1004 q 231 960 263 960 q 183 978 203 960 q 164 1025 164 996 q 188 1081 164 1058 q 243 1103 213 1103 m 301 756 l 301 58 l 414 46 l 414 0 l 94 0 l 94 46 l 207 57 l 207 658 l 110 693 l 110 726 l 275 768 l 301 756 m 704 1099 q 754 1081 738 1099 q 771 1032 771 1063 q 747 977 771 999 q 692 956 724 956 q 644 974 664 956 q 624 1021 624 992 q 649 1076 624 1054 q 704 1099 674 1099 m 764 756 l 764 -11 q 703 -260 764 -171 q 529 -349 642 -349 q 486 -346 511 -349 q 456 -339 461 -343 l 456 -268 q 531 -275 475 -275 q 634 -215 600 -275 q 668 -1 668 -156 l 668 658 l 565 693 l 565 726 l 738 768 l 764 756 z "},"ī":{"ha":463,"x_min":49,"x_max":414,"o":"m 49 0 m 207 57 l 207 658 l 110 693 l 110 726 l 275 768 l 301 756 l 301 58 l 414 46 l 414 0 l 94 0 l 94 46 l 207 57 m 408 1078 l 408 999 l 49 999 l 49 1078 l 408 1078 z "},"į":{"ha":463,"x_min":65,"x_max":415,"o":"m 231 960 q 183 978 203 960 q 164 1025 164 996 q 188 1081 164 1058 q 243 1103 213 1103 q 294 1085 276 1103 q 311 1038 311 1067 q 287 982 311 1004 q 231 960 263 960 m 415 -289 q 324 -340 374 -319 q 201 -357 275 -360 q 101 -319 136 -356 q 65 -229 65 -282 q 130 -99 65 -165 q 278 0 194 -33 l 94 0 l 94 46 l 207 57 l 207 658 l 110 693 l 110 726 l 275 768 l 301 756 l 301 58 l 414 46 l 414 0 l 379 0 q 285 -44 338 -11 q 194 -120 232 -78 q 157 -201 157 -162 q 183 -269 157 -249 q 261 -290 208 -290 q 403 -240 324 -290 l 415 -289 z "},"ĩ":{"ha":463,"x_min":-24,"x_max":503,"o":"m 0 0 m 207 57 l 207 658 l 110 693 l 110 726 l 275 768 l 301 756 l 301 58 l 414 46 l 414 0 l 94 0 l 94 46 l 207 57 m -24 1015 q 53 1095 3 1063 q 156 1128 103 1128 q 209 1114 186 1128 q 263 1072 232 1100 q 306 1037 288 1049 q 344 1025 324 1025 q 413 1045 382 1025 q 474 1097 444 1065 l 503 1057 q 425 978 475 1011 q 324 946 375 946 q 271 960 293 946 q 218 1001 249 974 q 174 1038 190 1026 q 135 1049 157 1049 q 65 1028 96 1049 q 4 976 33 1008 l -24 1015 z "},"j":{"ha":440,"x_min":-7,"x_max":308,"o":"m 242 1099 q 292 1081 275 1099 q 308 1032 308 1063 q 285 977 308 999 q 229 956 261 956 q 181 974 201 956 q 161 1021 161 992 q 186 1076 161 1054 q 242 1099 211 1099 m 301 756 l 301 -11 q 240 -260 301 -171 q 67 -349 179 -349 q 24 -346 49 -349 q -7 -339 -1 -343 l -7 -268 q 68 -275 13 -275 q 172 -215 138 -275 q 206 -1 206 -156 l 206 658 l 103 693 l 103 726 l 275 768 l 301 756 z "},"ȷ":{"ha":440,"x_min":-7,"x_max":301,"o":"m 103 693 l 103 726 l 275 768 l 301 756 l 301 -11 q 240 -260 301 -171 q 67 -349 179 -349 q 24 -346 49 -349 q -7 -339 -1 -343 l -7 -268 q 68 -275 13 -275 q 172 -215 138 -275 q 206 -1 206 -156 l 206 658 l 103 693 z "},"ĵ":{"ha":440,"x_min":-7,"x_max":486,"o":"m 204 1201 l 301 1201 l 486 932 l 440 907 l 253 1114 l 57 907 l 15 931 l 204 1201 m 103 693 l 103 726 l 275 768 l 301 756 l 301 -11 q 240 -260 301 -171 q 67 -349 179 -349 q 24 -346 49 -349 q -7 -339 -1 -343 l -7 -268 q 68 -275 13 -275 q 172 -215 138 -275 q 206 -1 206 -156 l 206 658 l 103 693 z "},"k":{"ha":864,"x_min":72,"x_max":875,"o":"m 192 58 l 192 1014 l 72 1031 l 72 1078 l 267 1100 l 290 1086 l 290 518 l 288 367 l 632 701 l 531 710 l 531 765 l 828 765 l 828 711 l 724 701 l 471 460 l 775 58 l 875 46 l 875 0 l 565 0 l 565 46 l 665 58 l 411 410 l 288 293 l 290 133 l 290 58 l 396 46 l 396 0 l 82 0 l 82 46 l 192 58 z "},"ķ":{"ha":864,"x_min":72,"x_max":875,"o":"m 72 0 m 192 58 l 192 1014 l 72 1031 l 72 1078 l 267 1100 l 290 1086 l 290 518 l 288 367 l 632 701 l 531 710 l 531 765 l 828 765 l 828 711 l 724 701 l 471 460 l 775 58 l 875 46 l 875 0 l 565 0 l 565 46 l 665 58 l 411 410 l 288 293 l 290 133 l 290 58 l 396 46 l 396 0 l 82 0 l 82 46 l 192 58 m 454 -50 q 553 -108 517 -62 q 590 -207 590 -154 q 566 -307 590 -260 q 505 -387 542 -354 q 432 -435 468 -421 l 404 -408 l 404 -390 q 464 -327 442 -374 q 486 -226 486 -281 q 459 -158 486 -185 q 404 -131 432 -131 l 404 -101 l 454 -50 z "},"ĸ":{"ha":864,"x_min":72,"x_max":875,"o":"m 192 58 l 192 688 l 72 704 l 72 751 l 267 774 l 290 758 l 290 478 l 288 367 l 632 701 l 531 710 l 531 765 l 828 765 l 828 711 l 724 701 l 471 460 l 775 58 l 875 46 l 875 0 l 565 0 l 565 46 l 665 58 l 411 410 l 288 293 l 290 133 l 290 58 l 396 46 l 396 0 l 82 0 l 82 46 l 192 58 z "},"l":{"ha":474,"x_min":93,"x_max":424,"o":"m 206 58 l 206 1014 l 96 1031 l 96 1078 l 281 1100 l 304 1086 l 304 57 l 424 46 l 424 0 l 93 0 l 93 46 l 206 58 z "},"ĺ":{"ha":474,"x_min":93,"x_max":461,"o":"m 93 0 m 206 58 l 206 1014 l 96 1031 l 96 1078 l 281 1100 l 304 1086 l 304 57 l 424 46 l 424 0 l 93 0 l 93 46 l 206 58 m 389 1451 l 461 1378 q 206 1163 414 1304 l 176 1192 l 389 1451 z "},"ľ":{"ha":474,"x_min":93,"x_max":521,"o":"m 93 0 m 206 58 l 206 1014 l 96 1031 l 96 1078 l 281 1100 l 304 1086 l 304 57 l 424 46 l 424 0 l 93 0 l 93 46 l 206 58 m 399 749 q 428 911 428 836 q 417 1021 428 971 q 393 1088 407 1071 l 401 1115 l 481 1139 q 510 1076 499 1121 q 521 983 521 1032 q 497 819 521 901 q 442 708 474 738 l 400 732 l 399 749 z "},"ļ":{"ha":474,"x_min":93,"x_max":424,"o":"m 93 0 m 206 58 l 206 1014 l 96 1031 l 96 1078 l 281 1100 l 304 1086 l 304 57 l 424 46 l 424 0 l 93 0 l 93 46 l 206 58 m 238 -50 q 337 -108 300 -62 q 374 -207 374 -154 q 349 -307 374 -260 q 288 -387 325 -354 q 215 -435 251 -421 l 188 -408 l 188 -390 q 247 -327 225 -374 q 269 -226 269 -281 q 242 -158 269 -185 q 188 -131 215 -131 l 188 -101 l 238 -50 z "},"ŀ":{"ha":686,"x_min":93,"x_max":651,"o":"m 304 1086 l 304 57 l 424 46 l 424 0 l 93 0 l 93 46 l 206 58 l 206 1014 l 96 1031 l 96 1078 l 281 1100 l 304 1086 m 604 611 q 640 594 628 608 q 651 558 651 579 q 631 508 651 528 q 582 488 610 488 q 542 503 558 488 q 525 543 525 518 q 550 594 525 574 q 604 611 575 614 z "},"ł":{"ha":474,"x_min":83,"x_max":439,"o":"m 206 58 l 206 540 l 83 492 l 83 563 l 206 613 l 206 1014 l 96 1031 l 96 1078 l 281 1100 l 304 1086 l 304 653 l 439 710 l 439 633 l 304 579 l 304 57 l 424 46 l 424 0 l 93 0 l 93 46 l 206 58 z "},"m":{"ha":1404,"x_min":90,"x_max":1364,"o":"m 190 58 l 190 657 l 90 693 l 90 728 l 253 768 l 276 756 l 276 663 q 412 738 329 704 q 561 772 494 771 q 679 751 635 774 q 747 678 724 729 q 883 743 794 714 q 1039 772 972 772 q 1164 740 1118 772 q 1230 638 1210 708 q 1250 449 1250 568 l 1250 58 l 1364 46 l 1364 0 l 1056 0 l 1056 46 l 1153 58 l 1153 432 q 1140 587 1153 531 q 1092 671 1128 643 q 985 699 1056 699 q 874 680 933 699 q 764 632 814 661 q 781 456 781 565 l 781 58 l 888 46 l 888 0 l 579 0 l 579 46 l 683 58 l 683 444 q 672 593 683 540 q 626 672 660 646 q 526 697 593 697 q 409 675 475 697 q 289 615 343 653 l 289 58 l 396 46 l 396 0 l 94 0 l 94 46 l 190 58 z "},"n":{"ha":947,"x_min":90,"x_max":904,"o":"m 190 58 l 190 657 l 90 693 l 90 726 l 251 768 l 276 756 l 276 663 q 419 740 329 704 q 578 775 510 775 q 706 743 658 775 q 774 640 753 711 q 794 450 794 569 l 794 58 l 904 46 l 904 0 l 592 0 l 592 46 l 696 58 l 696 438 q 681 590 696 533 q 631 672 667 646 q 533 699 596 699 q 411 676 479 699 q 289 615 343 653 l 289 58 l 396 46 l 396 0 l 93 0 l 93 46 l 190 58 z "},"ń":{"ha":947,"x_min":90,"x_max":904,"o":"m 631 1200 l 703 1126 q 447 911 654 1053 l 418 940 l 631 1200 m 190 58 l 190 657 l 90 693 l 90 726 l 251 768 l 276 756 l 276 663 q 419 740 329 704 q 578 775 510 775 q 706 743 658 775 q 774 640 753 711 q 794 450 794 569 l 794 58 l 904 46 l 904 0 l 592 0 l 592 46 l 696 58 l 696 438 q 681 590 696 533 q 631 672 667 646 q 533 699 596 699 q 411 676 479 699 q 289 615 343 653 l 289 58 l 396 46 l 396 0 l 93 0 l 93 46 l 190 58 z "},"ň":{"ha":947,"x_min":90,"x_max":904,"o":"m 90 0 m 190 58 l 190 657 l 90 693 l 90 726 l 251 768 l 276 756 l 276 663 q 419 740 329 704 q 578 775 510 775 q 706 743 658 775 q 774 640 753 711 q 794 450 794 569 l 794 58 l 904 46 l 904 0 l 592 0 l 592 46 l 696 58 l 696 438 q 681 590 696 533 q 631 672 667 646 q 533 699 596 699 q 411 676 479 699 q 289 615 343 653 l 289 58 l 396 46 l 396 0 l 93 0 l 93 46 l 190 58 m 279 1201 l 471 993 l 664 1201 l 706 1176 l 519 907 l 422 907 l 233 1176 l 279 1201 z "},"ņ":{"ha":947,"x_min":90,"x_max":904,"o":"m 90 0 m 190 58 l 190 657 l 90 693 l 90 726 l 251 768 l 276 756 l 276 663 q 419 740 329 704 q 578 775 510 775 q 706 743 658 775 q 774 640 753 711 q 794 450 794 569 l 794 58 l 904 46 l 904 0 l 592 0 l 592 46 l 696 58 l 696 438 q 681 590 696 533 q 631 672 667 646 q 533 699 596 699 q 411 676 479 699 q 289 615 343 653 l 289 58 l 396 46 l 396 0 l 93 0 l 93 46 l 190 58 m 460 -50 q 559 -108 522 -62 q 596 -207 596 -154 q 572 -307 596 -260 q 510 -387 547 -354 q 438 -435 474 -421 l 410 -408 l 410 -390 q 469 -327 447 -374 q 492 -226 492 -281 q 465 -158 492 -185 q 410 -131 438 -131 l 410 -101 l 460 -50 z "},"ñ":{"ha":947,"x_min":90,"x_max":904,"o":"m 90 0 m 190 58 l 190 657 l 90 693 l 90 726 l 251 768 l 276 756 l 276 663 q 419 740 329 704 q 578 775 510 775 q 706 743 658 775 q 774 640 753 711 q 794 450 794 569 l 794 58 l 904 46 l 904 0 l 592 0 l 592 46 l 696 58 l 696 438 q 681 590 696 533 q 631 672 667 646 q 533 699 596 699 q 411 676 479 699 q 289 615 343 653 l 289 58 l 396 46 l 396 0 l 93 0 l 93 46 l 190 58 m 231 1015 q 307 1095 257 1063 q 410 1128 357 1128 q 463 1114 440 1128 q 517 1072 486 1100 q 560 1037 542 1049 q 599 1025 578 1025 q 667 1045 636 1025 q 728 1097 699 1065 l 757 1057 q 679 978 729 1011 q 578 946 629 946 q 525 960 547 946 q 472 1001 503 974 q 428 1038 444 1026 q 389 1049 411 1049 q 319 1028 350 1049 q 258 976 288 1008 l 231 1015 z "},"o":{"ha":835,"x_min":71,"x_max":765,"o":"m 433 782 q 620 728 546 782 q 730 586 694 675 q 765 392 765 497 q 717 181 764 274 q 591 35 671 88 q 413 -17 511 -17 q 219 38 296 -17 q 107 184 143 93 q 71 386 71 275 q 120 594 71 504 q 253 733 169 685 q 433 782 336 782 m 418 725 q 240 639 304 725 q 175 400 175 553 q 238 143 175 243 q 426 43 300 43 q 601 131 540 43 q 661 385 661 219 q 601 631 661 536 q 418 725 542 725 z "},"ó":{"ha":835,"x_min":71,"x_max":765,"o":"m 71 0 m 433 782 q 620 728 546 782 q 730 586 694 675 q 765 392 765 497 q 717 181 764 274 q 591 35 671 88 q 413 -17 511 -17 q 219 38 296 -17 q 107 184 143 93 q 71 386 71 275 q 120 594 71 504 q 253 733 169 685 q 433 782 336 782 m 418 725 q 240 639 304 725 q 175 400 175 553 q 238 143 175 243 q 426 43 300 43 q 601 131 540 43 q 661 385 661 219 q 601 631 661 536 q 418 725 542 725 m 558 1200 l 631 1126 q 375 911 583 1053 l 346 940 l 558 1200 z "},"ô":{"ha":835,"x_min":71,"x_max":765,"o":"m 71 0 m 433 782 q 620 728 546 782 q 730 586 694 675 q 765 392 765 497 q 717 181 764 274 q 591 35 671 88 q 413 -17 511 -17 q 219 38 296 -17 q 107 184 143 93 q 71 386 71 275 q 120 594 71 504 q 253 733 169 685 q 433 782 336 782 m 418 725 q 240 639 304 725 q 175 400 175 553 q 238 143 175 243 q 426 43 300 43 q 601 131 540 43 q 661 385 661 219 q 601 631 661 536 q 418 725 542 725 m 378 1201 l 474 1201 l 660 932 l 614 907 l 425 1114 l 229 907 l 188 931 l 378 1201 z "},"ö":{"ha":835,"x_min":71,"x_max":765,"o":"m 71 0 m 433 782 q 620 728 546 782 q 730 586 694 675 q 765 392 765 497 q 717 181 764 274 q 591 35 671 88 q 413 -17 511 -17 q 219 38 296 -17 q 107 184 143 93 q 71 386 71 275 q 120 594 71 504 q 253 733 169 685 q 433 782 336 782 m 418 725 q 240 639 304 725 q 175 400 175 553 q 238 143 175 243 q 426 43 300 43 q 601 131 540 43 q 661 385 661 219 q 601 631 661 536 q 418 725 542 725 m 263 967 q 216 983 235 967 q 197 1029 197 1000 q 221 1082 197 1060 q 275 1104 244 1104 q 326 1086 308 1104 q 343 1040 343 1068 q 319 987 343 1007 q 263 967 294 967 m 572 967 q 525 983 544 967 q 506 1029 506 1000 q 530 1082 506 1060 q 583 1104 554 1104 q 634 1086 617 1104 q 651 1040 651 1068 q 627 987 651 1007 q 572 967 603 967 z "},"ò":{"ha":835,"x_min":71,"x_max":765,"o":"m 71 0 m 433 782 q 620 728 546 782 q 730 586 694 675 q 765 392 765 497 q 717 181 764 274 q 591 35 671 88 q 413 -17 511 -17 q 219 38 296 -17 q 107 184 143 93 q 71 386 71 275 q 120 594 71 504 q 253 733 169 685 q 433 782 336 782 m 418 725 q 240 639 304 725 q 175 400 175 553 q 238 143 175 243 q 426 43 300 43 q 601 131 540 43 q 661 385 661 219 q 601 631 661 536 q 418 725 542 725 m 494 911 q 239 1126 290 1049 l 311 1200 l 524 940 l 494 911 z "},"ő":{"ha":835,"x_min":71,"x_max":808,"o":"m 71 0 m 433 782 q 620 728 546 782 q 730 586 694 675 q 765 392 765 497 q 717 181 764 274 q 591 35 671 88 q 413 -17 511 -17 q 219 38 296 -17 q 107 184 143 93 q 71 386 71 275 q 120 594 71 504 q 253 733 169 685 q 433 782 336 782 m 418 725 q 240 639 304 725 q 175 400 175 553 q 238 143 175 243 q 426 43 300 43 q 601 131 540 43 q 661 385 661 219 q 601 631 661 536 q 418 725 542 725 m 419 1214 l 483 1154 q 374 1040 450 1110 q 224 911 299 971 l 194 940 l 419 1214 m 746 1214 l 808 1154 q 698 1039 775 1110 q 549 911 621 968 l 519 940 l 746 1214 z "},"ō":{"ha":833,"x_min":71,"x_max":765,"o":"m 71 0 m 578 1078 l 578 999 l 218 999 l 218 1078 l 578 1078 m 433 782 q 620 728 546 782 q 730 586 694 675 q 765 392 765 497 q 717 181 764 274 q 591 35 671 88 q 413 -17 511 -17 q 219 38 296 -17 q 107 184 143 93 q 71 386 71 275 q 120 594 71 504 q 253 733 169 685 q 433 782 336 782 m 418 725 q 240 639 304 725 q 175 400 175 553 q 238 143 175 243 q 426 43 300 43 q 601 131 540 43 q 661 385 661 219 q 601 631 661 536 q 418 725 542 725 z "},"ø":{"ha":835,"x_min":71,"x_max":765,"o":"m 271 10 q 120 154 169 51 q 71 389 71 257 q 120 594 71 506 q 251 732 169 683 q 431 782 333 781 q 532 768 490 782 l 571 882 l 615 865 l 578 753 q 719 613 672 710 q 765 392 765 515 q 717 181 764 274 q 591 35 671 88 q 413 -17 511 -17 q 318 -6 365 -17 l 276 -131 l 229 -112 l 271 10 m 510 708 q 418 725 469 725 q 240 639 304 725 q 175 400 175 553 q 205 208 175 292 q 297 81 235 124 l 510 708 m 342 57 q 426 43 375 43 q 601 131 540 43 q 661 385 661 219 q 634 564 661 485 q 551 685 607 643 l 342 57 z "},"õ":{"ha":835,"x_min":71,"x_max":765,"o":"m 71 0 m 433 782 q 620 728 546 782 q 730 586 694 675 q 765 392 765 497 q 717 181 764 274 q 591 35 671 88 q 413 -17 511 -17 q 219 38 296 -17 q 107 184 143 93 q 71 386 71 275 q 120 594 71 504 q 253 733 169 685 q 433 782 336 782 m 418 725 q 240 639 304 725 q 175 400 175 553 q 238 143 175 243 q 426 43 300 43 q 601 131 540 43 q 661 385 661 219 q 601 631 661 536 q 418 725 542 725 m 157 1015 q 233 1095 183 1063 q 336 1128 283 1128 q 390 1114 367 1128 q 443 1072 413 1100 q 486 1037 468 1049 q 525 1025 504 1025 q 594 1045 563 1025 q 654 1097 625 1065 l 683 1057 q 606 978 656 1011 q 504 946 556 946 q 451 960 474 946 q 399 1001 429 974 q 354 1038 371 1026 q 315 1049 338 1049 q 245 1028 276 1049 q 185 976 214 1008 l 157 1015 z "},"œ":{"ha":1397,"x_min":71,"x_max":1328,"o":"m 1065 782 q 1253 708 1182 783 q 1325 499 1324 632 q 1324 429 1328 461 q 1319 389 1321 397 l 792 389 q 861 143 792 232 q 1065 54 931 54 q 1192 70 1128 54 q 1286 107 1256 86 l 1307 60 q 1189 4 1268 25 q 1029 -17 1110 -17 q 837 37 914 -17 q 722 190 760 90 q 597 39 679 94 q 413 -17 515 -17 q 219 38 296 -17 q 107 184 143 93 q 71 386 71 275 q 120 594 71 504 q 253 733 169 685 q 435 782 336 782 q 624 726 549 782 q 735 574 699 669 q 867 724 781 668 q 1065 782 954 779 m 418 725 q 240 639 304 725 q 175 400 175 553 q 238 143 175 243 q 426 43 300 43 q 601 131 540 43 q 661 385 661 219 q 601 631 661 536 q 418 725 542 725 m 1039 725 q 874 654 942 725 q 794 450 807 583 l 1222 450 q 1224 489 1224 464 q 1131 704 1224 654 q 1039 725 1093 725 z "},"p":{"ha":897,"x_min":82,"x_max":825,"o":"m 526 782 q 674 743 607 782 q 783 619 742 704 q 825 404 825 535 q 776 192 825 288 q 640 40 728 96 q 442 -17 553 -17 q 282 15 351 -17 l 285 -176 l 285 -289 l 440 -301 l 440 -347 l 82 -347 l 82 -301 l 186 -287 l 186 657 l 88 693 l 88 726 l 247 768 l 274 754 l 274 679 q 383 751 315 721 q 526 782 450 782 m 488 714 q 369 690 418 714 q 283 632 321 665 l 285 103 q 345 58 301 75 q 449 39 389 40 q 587 78 524 39 q 689 197 650 117 q 728 397 728 278 q 660 634 728 554 q 488 714 592 714 z "},"þ":{"ha":861,"x_min":33,"x_max":789,"o":"m 247 1089 l 247 692 q 486 782 358 782 q 637 744 568 782 q 747 622 706 706 q 789 410 789 539 q 740 193 789 292 q 604 38 692 94 q 406 -19 517 -19 q 243 -1 328 -19 l 246 -68 l 246 -289 l 403 -301 l 403 -347 l 44 -347 l 44 -301 l 149 -287 l 149 1017 l 33 1035 l 33 1081 l 224 1100 l 247 1089 m 447 710 q 336 689 392 710 q 247 636 281 668 l 247 90 q 305 51 257 64 q 417 38 353 38 q 551 77 489 38 q 653 197 614 117 q 692 390 692 276 q 622 633 692 556 q 447 710 553 710 z "},"q":{"ha":842,"x_min":71,"x_max":810,"o":"m 467 782 q 553 773 511 782 q 628 749 596 764 l 686 771 l 711 760 l 711 -285 l 810 -296 l 810 -347 l 461 -347 l 461 -296 l 613 -283 l 613 -32 l 615 69 q 369 -19 510 -19 q 235 13 303 -19 q 119 131 168 44 q 71 368 71 217 q 122 578 71 483 q 263 727 172 672 q 467 782 353 782 m 450 725 q 312 686 376 725 q 208 567 247 647 q 168 369 168 486 q 233 135 168 218 q 404 53 297 53 q 531 74 479 53 q 613 125 583 96 l 613 669 q 542 713 583 701 q 450 725 501 725 z "},"r":{"ha":626,"x_min":72,"x_max":599,"o":"m 192 58 l 192 657 l 92 693 l 92 726 l 251 768 l 278 756 l 278 661 q 388 735 308 699 q 531 772 467 772 q 599 768 582 772 l 599 664 q 490 682 553 682 q 380 664 432 682 q 289 621 328 646 l 289 58 l 494 46 l 494 0 l 72 0 l 72 46 l 192 58 z "},"ŕ":{"ha":626,"x_min":72,"x_max":599,"o":"m 72 0 m 192 58 l 192 657 l 92 693 l 92 726 l 251 768 l 278 756 l 278 661 q 388 735 308 699 q 531 772 467 772 q 599 768 582 772 l 599 664 q 490 682 553 682 q 380 664 432 682 q 289 621 328 646 l 289 58 l 494 46 l 494 0 l 72 0 l 72 46 l 192 58 m 421 1200 l 493 1126 q 238 911 446 1053 l 208 940 l 421 1200 z "},"ř":{"ha":626,"x_min":72,"x_max":607,"o":"m 72 0 m 192 58 l 192 657 l 92 693 l 92 726 l 251 768 l 278 756 l 278 661 q 388 735 308 699 q 531 772 467 772 q 599 768 582 772 l 599 664 q 490 682 553 682 q 380 664 432 682 q 289 621 328 646 l 289 58 l 494 46 l 494 0 l 72 0 l 72 46 l 192 58 m 181 1201 l 372 993 l 565 1201 l 607 1176 l 421 907 l 324 907 l 135 1176 l 181 1201 z "},"ŗ":{"ha":626,"x_min":72,"x_max":599,"o":"m 72 0 m 192 58 l 192 657 l 92 693 l 92 726 l 251 768 l 278 756 l 278 661 q 388 735 308 699 q 531 772 467 772 q 599 768 582 772 l 599 664 q 490 682 553 682 q 380 664 432 682 q 289 621 328 646 l 289 58 l 494 46 l 494 0 l 72 0 l 72 46 l 192 58 m 228 -50 q 327 -108 290 -62 q 364 -207 364 -154 q 340 -307 364 -260 q 278 -387 315 -354 q 206 -435 242 -421 l 178 -408 l 178 -390 q 238 -327 215 -374 q 260 -226 260 -281 q 233 -158 260 -185 q 178 -131 206 -131 l 178 -101 l 228 -50 z "},"s":{"ha":711,"x_min":108,"x_max":633,"o":"m 157 189 l 178 97 q 358 42 246 42 q 489 76 439 42 q 539 181 539 111 q 517 247 539 219 q 462 293 494 275 q 372 336 429 311 q 329 354 347 346 q 174 449 229 400 q 118 576 118 497 q 158 690 118 644 q 262 759 199 736 q 390 782 325 782 q 508 767 451 782 q 596 732 565 751 l 596 596 l 550 596 l 526 681 q 467 715 504 703 q 388 728 431 728 q 259 691 306 728 q 213 594 213 654 q 237 526 213 554 q 292 481 261 499 q 403 428 324 464 l 433 414 q 537 361 497 385 q 605 299 576 338 q 633 203 633 260 q 553 40 633 97 q 344 -17 474 -17 q 220 -2 282 -17 q 108 42 158 13 l 108 189 l 157 189 z "},"š":{"ha":697,"x_min":107,"x_max":631,"o":"m 167 1201 l 360 993 l 551 1201 l 593 1176 l 407 907 l 311 907 l 121 1176 l 167 1201 m 154 189 l 176 97 q 356 42 243 42 q 488 76 438 42 q 538 181 538 111 q 496 268 538 236 q 369 335 454 300 l 326 354 q 170 449 225 400 q 115 578 115 499 q 156 691 115 644 q 260 760 197 738 q 388 782 322 782 q 506 767 449 782 q 593 732 564 751 l 593 596 l 547 596 l 524 681 q 465 715 501 703 q 385 728 428 728 q 256 692 303 728 q 210 597 210 656 q 234 528 210 557 q 290 483 258 500 q 400 428 321 465 l 426 417 q 533 363 493 388 q 602 299 574 339 q 631 203 631 260 q 551 40 631 97 q 343 -17 471 -17 q 219 -2 281 -17 q 107 42 157 13 l 107 189 l 154 189 z "},"ş":{"ha":711,"x_min":108,"x_max":633,"o":"m 631 201 q 556 43 631 100 q 361 -18 482 -14 q 358 -61 358 -43 q 360 -87 358 -79 q 498 -121 450 -83 q 546 -215 546 -158 q 497 -318 546 -281 q 375 -358 447 -356 l 343 -360 q 274 -353 301 -360 q 240 -344 247 -346 l 242 -290 q 288 -299 260 -296 q 331 -303 315 -303 q 414 -285 381 -303 q 447 -215 447 -267 q 415 -152 447 -172 q 325 -132 382 -132 q 283 -136 304 -132 q 300 -15 283 -81 q 108 42 192 -7 l 108 189 l 157 189 l 178 97 q 358 42 246 42 q 489 76 439 42 q 539 181 539 111 q 517 247 539 219 q 462 293 494 275 q 372 336 429 311 q 329 354 347 346 q 174 449 229 400 q 118 576 118 497 q 158 690 118 644 q 262 759 199 736 q 390 782 325 782 q 508 767 451 782 q 596 732 565 751 l 596 596 l 550 596 l 526 681 q 467 715 504 703 q 388 728 431 728 q 259 691 306 728 q 213 594 213 654 q 237 526 213 554 q 292 481 261 499 q 403 428 324 464 l 433 414 q 537 361 497 385 q 605 299 576 338 q 633 203 633 260 l 631 201 z "},"ș":{"ha":711,"x_min":108,"x_max":633,"o":"m 108 0 m 157 189 l 178 97 q 358 42 246 42 q 489 76 439 42 q 539 181 539 111 q 517 247 539 219 q 462 293 494 275 q 372 336 429 311 q 329 354 347 346 q 174 449 229 400 q 118 576 118 497 q 158 690 118 644 q 262 759 199 736 q 390 782 325 782 q 508 767 451 782 q 596 732 565 751 l 596 596 l 550 596 l 526 681 q 467 715 504 703 q 388 728 431 728 q 259 691 306 728 q 213 594 213 654 q 237 526 213 554 q 292 481 261 499 q 403 428 324 464 l 433 414 q 537 361 497 385 q 605 299 576 338 q 633 203 633 260 q 553 40 633 97 q 344 -17 474 -17 q 220 -2 282 -17 q 108 42 158 13 l 108 189 l 157 189 m 324 -67 q 423 -125 386 -79 q 460 -224 460 -171 q 435 -324 460 -276 q 374 -404 411 -371 q 301 -451 338 -437 l 274 -425 l 274 -407 q 333 -344 311 -390 q 356 -243 356 -297 q 328 -174 356 -201 q 274 -147 301 -147 l 274 -118 l 324 -67 z "},"ß":{"ha":904,"x_min":46,"x_max":888,"o":"m 151 63 l 151 592 q 202 858 151 750 q 336 1017 253 965 q 519 1069 419 1069 q 669 1024 607 1069 q 731 874 731 979 q 712 776 731 815 q 656 686 693 736 q 610 616 625 646 q 594 547 594 586 q 625 478 594 504 q 718 419 656 451 q 806 367 772 390 q 863 304 839 343 q 888 210 888 265 q 808 42 888 97 q 607 -14 728 -14 q 457 -1 511 -14 l 457 89 q 533 60 488 74 q 615 46 579 46 q 744 80 694 46 q 794 190 794 114 q 774 257 794 229 q 726 304 754 285 q 649 350 697 324 q 538 422 575 389 q 501 510 501 456 q 517 574 501 542 q 565 654 533 606 q 622 751 603 708 q 642 839 642 793 q 603 960 642 914 q 493 1007 565 1007 q 312 913 374 1007 q 250 592 250 818 l 250 0 l 46 0 l 46 46 l 151 63 z "},"t":{"ha":585,"x_min":76,"x_max":542,"o":"m 281 757 l 535 757 l 535 692 l 281 692 l 281 283 q 287 140 281 186 q 312 74 293 93 q 371 56 331 56 q 459 70 414 56 q 525 100 504 85 l 542 51 q 451 2 514 21 q 335 -17 388 -17 q 222 28 258 -17 q 185 174 185 72 l 185 692 l 76 692 l 76 732 l 113 739 q 169 752 154 746 q 196 779 185 758 q 215 853 204 796 q 229 940 226 911 l 281 940 l 281 757 z "},"ť":{"ha":585,"x_min":76,"x_max":542,"o":"m 76 0 m 281 757 l 535 757 l 535 692 l 281 692 l 281 283 q 287 140 281 186 q 312 74 293 93 q 371 56 331 56 q 459 70 414 56 q 525 100 504 85 l 542 51 q 451 2 514 21 q 335 -17 388 -17 q 222 28 258 -17 q 185 174 185 72 l 185 692 l 76 692 l 76 732 l 113 739 q 169 752 154 746 q 196 779 185 758 q 215 853 204 796 q 229 940 226 911 l 281 940 l 281 757 m 411 931 q 440 1093 440 1018 q 430 1203 440 1153 q 406 1269 419 1253 l 414 1297 l 493 1321 q 522 1258 511 1303 q 533 1165 533 1214 q 510 1001 533 1083 q 454 890 486 919 l 413 914 l 411 931 z "},"ț":{"ha":585,"x_min":76,"x_max":542,"o":"m 76 0 m 281 757 l 535 757 l 535 692 l 281 692 l 281 283 q 287 140 281 186 q 312 74 293 93 q 371 56 331 56 q 459 70 414 56 q 525 100 504 85 l 542 51 q 451 2 514 21 q 335 -17 388 -17 q 222 28 258 -17 q 185 174 185 72 l 185 692 l 76 692 l 76 732 l 113 739 q 169 752 154 746 q 196 779 185 758 q 215 853 204 796 q 229 940 226 911 l 281 940 l 281 757 m 293 -50 q 392 -108 356 -62 q 429 -207 429 -154 q 405 -307 429 -260 q 344 -387 381 -354 q 271 -435 307 -421 l 243 -408 l 243 -390 q 303 -327 281 -374 q 325 -226 325 -281 q 298 -158 325 -185 q 243 -131 271 -131 l 243 -101 l 293 -50 z "},"u":{"ha":876,"x_min":75,"x_max":811,"o":"m 75 703 l 75 744 l 221 772 l 242 760 l 242 293 q 254 155 242 204 q 301 81 267 106 q 404 57 336 57 q 535 88 472 57 q 629 149 599 119 l 629 683 l 544 697 l 544 742 l 707 772 l 726 760 l 726 49 l 811 49 l 811 7 q 758 -9 792 -1 q 701 -17 725 -17 q 639 35 639 -17 l 639 96 q 365 -14 504 -14 q 217 26 265 -14 q 157 132 169 67 q 144 313 144 197 l 144 690 l 75 703 z "},"ú":{"ha":876,"x_min":75,"x_max":811,"o":"m 550 1200 l 624 1126 q 519 1022 593 1082 q 368 911 446 963 l 339 940 l 550 1200 m 75 703 l 75 744 l 221 772 l 242 760 l 242 293 q 254 155 242 204 q 301 81 267 106 q 404 57 336 57 q 535 88 472 57 q 629 149 599 119 l 629 683 l 544 697 l 544 742 l 707 772 l 726 760 l 726 49 l 811 49 l 811 7 q 758 -9 792 -1 q 701 -17 725 -17 q 639 35 639 -17 l 639 96 q 365 -14 504 -14 q 217 26 265 -14 q 157 132 169 67 q 144 313 144 197 l 144 690 l 75 703 z "},"û":{"ha":876,"x_min":75,"x_max":811,"o":"m 372 1201 l 468 1201 l 653 932 l 607 907 l 419 1114 l 222 907 l 181 931 l 372 1201 m 75 703 l 75 744 l 221 772 l 242 760 l 242 293 q 254 155 242 204 q 301 81 267 106 q 404 57 336 57 q 535 88 472 57 q 629 149 599 119 l 629 683 l 544 697 l 544 742 l 707 772 l 726 760 l 726 49 l 811 49 l 811 7 q 758 -9 792 -1 q 701 -17 725 -17 q 639 35 639 -17 l 639 96 q 365 -14 504 -14 q 217 26 265 -14 q 157 132 169 67 q 144 313 144 197 l 144 690 l 75 703 z "},"ü":{"ha":876,"x_min":75,"x_max":811,"o":"m 75 0 m 75 703 l 75 744 l 221 772 l 242 760 l 242 293 q 254 155 242 204 q 301 81 267 106 q 404 57 336 57 q 535 88 472 57 q 629 149 599 119 l 629 683 l 544 697 l 544 742 l 707 772 l 726 760 l 726 49 l 811 49 l 811 7 q 758 -9 792 -1 q 701 -17 725 -17 q 639 35 639 -17 l 639 96 q 365 -14 504 -14 q 217 26 265 -14 q 157 132 169 67 q 144 313 144 197 l 144 690 l 75 703 m 256 967 q 209 983 228 967 q 190 1029 190 1000 q 214 1082 190 1060 q 268 1104 238 1104 q 319 1086 301 1104 q 336 1040 336 1068 q 312 987 336 1007 q 256 967 288 967 m 565 967 q 518 983 538 967 q 499 1029 499 1000 q 523 1082 499 1060 q 576 1104 547 1104 q 627 1086 610 1104 q 644 1040 644 1068 q 620 987 644 1007 q 565 967 596 967 z "},"ù":{"ha":876,"x_min":75,"x_max":811,"o":"m 486 911 q 231 1126 282 1049 l 303 1200 l 515 940 l 486 911 m 75 703 l 75 744 l 221 772 l 242 760 l 242 293 q 254 155 242 204 q 301 81 267 106 q 404 57 336 57 q 535 88 472 57 q 629 149 599 119 l 629 683 l 544 697 l 544 742 l 707 772 l 726 760 l 726 49 l 811 49 l 811 7 q 758 -9 792 -1 q 701 -17 725 -17 q 639 35 639 -17 l 639 96 q 365 -14 504 -14 q 217 26 265 -14 q 157 132 169 67 q 144 313 144 197 l 144 690 l 75 703 z "},"ű":{"ha":876,"x_min":75,"x_max":822,"o":"m 75 0 m 75 703 l 75 744 l 221 772 l 242 760 l 242 293 q 254 155 242 204 q 301 81 267 106 q 404 57 336 57 q 535 88 472 57 q 629 149 599 119 l 629 683 l 544 697 l 544 742 l 707 772 l 726 760 l 726 49 l 811 49 l 811 7 q 758 -9 792 -1 q 701 -17 725 -17 q 639 35 639 -17 l 639 96 q 365 -14 504 -14 q 217 26 265 -14 q 157 132 169 67 q 144 313 144 197 l 144 690 l 75 703 m 433 1214 l 497 1154 q 388 1040 464 1110 q 238 911 313 971 l 208 940 l 433 1214 m 760 1214 l 822 1154 q 712 1039 789 1110 q 563 911 635 968 l 533 940 l 760 1214 z "},"ū":{"ha":876,"x_min":75,"x_max":811,"o":"m 75 0 m 75 703 l 75 744 l 221 772 l 242 760 l 242 293 q 254 155 242 204 q 301 81 267 106 q 404 57 336 57 q 535 88 472 57 q 629 149 599 119 l 629 683 l 544 697 l 544 742 l 707 772 l 726 760 l 726 49 l 811 49 l 811 7 q 758 -9 792 -1 q 701 -17 725 -17 q 639 35 639 -17 l 639 96 q 365 -14 504 -14 q 217 26 265 -14 q 157 132 169 67 q 144 313 144 197 l 144 690 l 75 703 m 617 1078 l 617 999 l 257 999 l 257 1078 l 617 1078 z "},"ų":{"ha":876,"x_min":75,"x_max":811,"o":"m 718 -18 q 594 -101 650 -49 q 538 -203 538 -154 q 563 -271 538 -250 q 642 -292 589 -292 q 783 -242 704 -292 l 796 -290 q 705 -341 754 -321 q 582 -358 656 -361 q 481 -320 517 -357 q 446 -231 446 -283 q 508 -102 446 -168 q 653 -3 571 -36 q 639 35 639 10 l 639 96 q 365 -14 504 -14 q 217 26 265 -14 q 157 132 169 67 q 144 313 144 197 l 144 690 l 75 703 l 75 744 l 221 772 l 242 760 l 242 293 q 254 155 242 204 q 301 81 267 106 q 404 57 336 57 q 535 88 472 57 q 629 149 599 119 l 629 683 l 544 697 l 544 742 l 707 772 l 726 760 l 726 49 l 811 49 l 811 7 q 769 -7 796 0 q 718 -15 742 -14 l 718 -18 z "},"ů":{"ha":876,"x_min":75,"x_max":811,"o":"m 75 0 m 75 703 l 75 744 l 221 772 l 242 760 l 242 293 q 254 155 242 204 q 301 81 267 106 q 404 57 336 57 q 535 88 472 57 q 629 149 599 119 l 629 683 l 544 697 l 544 742 l 707 772 l 726 760 l 726 49 l 811 49 l 811 7 q 758 -9 792 -1 q 701 -17 725 -17 q 639 35 639 -17 l 639 96 q 365 -14 504 -14 q 217 26 265 -14 q 157 132 169 67 q 144 313 144 197 l 144 690 l 75 703 m 425 1215 q 543 1169 494 1215 q 592 1056 592 1122 q 543 942 592 989 q 425 896 494 896 q 308 942 356 896 q 260 1056 260 989 q 308 1169 260 1122 q 425 1215 356 1215 m 425 1157 q 353 1127 383 1157 q 322 1054 322 1097 q 352 981 322 1010 q 425 951 382 951 q 499 981 468 951 q 529 1054 529 1010 q 499 1127 529 1097 q 425 1157 468 1157 z "},"v":{"ha":806,"x_min":1,"x_max":807,"o":"m 1 704 l 1 758 l 285 758 l 285 704 l 186 693 l 361 268 l 425 83 l 488 263 l 642 692 l 546 703 l 546 758 l 807 758 l 807 704 l 726 692 l 449 -17 l 378 -17 l 75 693 l 1 704 z "},"w":{"ha":1147,"x_min":1,"x_max":1146,"o":"m 1 703 l 1 758 l 288 758 l 288 703 l 181 692 l 336 192 l 363 83 l 386 192 l 543 758 l 629 758 l 788 192 l 817 78 l 844 188 l 978 693 l 885 703 l 885 758 l 1146 758 l 1146 704 l 1058 692 l 854 -17 l 761 -17 l 601 533 l 579 642 l 551 533 l 399 -17 l 314 -17 l 81 693 l 1 703 z "},"x":{"ha":792,"x_min":3,"x_max":788,"o":"m 114 58 l 347 369 l 107 693 l 3 703 l 3 758 l 328 758 l 328 703 l 222 694 l 410 418 l 444 472 l 596 694 l 497 703 l 497 758 l 779 758 l 779 703 l 678 693 l 443 379 l 685 58 l 788 46 l 788 0 l 461 0 l 461 46 l 569 57 l 425 265 l 379 328 l 349 276 l 199 57 l 322 46 l 322 0 l 13 0 l 13 46 l 114 58 z "},"y":{"ha":781,"x_min":1,"x_max":794,"o":"m 101 -256 q 156 -264 125 -264 q 281 -210 217 -267 q 389 -17 344 -154 l 371 -17 l 86 693 l 1 703 l 1 758 l 307 758 l 307 703 l 194 693 l 368 218 l 429 46 l 475 207 l 625 694 l 514 703 l 514 758 l 794 758 l 794 703 l 710 694 q 467 -22 494 47 q 353 -245 411 -167 q 214 -343 294 -324 q 156 -349 192 -349 q 124 -346 140 -349 q 101 -339 107 -343 l 101 -256 z "},"ý":{"ha":781,"x_min":1,"x_max":794,"o":"m 1 0 m 101 -256 q 156 -264 125 -264 q 281 -210 217 -267 q 389 -17 344 -154 l 371 -17 l 86 693 l 1 703 l 1 758 l 307 758 l 307 703 l 194 693 l 368 218 l 429 46 l 475 207 l 625 694 l 514 703 l 514 758 l 794 758 l 794 703 l 710 694 q 467 -22 494 47 q 353 -245 411 -167 q 214 -343 294 -324 q 156 -349 192 -349 q 124 -346 140 -349 q 101 -339 107 -343 l 101 -256 m 547 1200 l 619 1126 q 364 911 572 1053 l 335 940 l 547 1200 z "},"ÿ":{"ha":781,"x_min":1,"x_max":794,"o":"m 1 0 m 101 -256 q 156 -264 125 -264 q 281 -210 217 -267 q 389 -17 344 -154 l 371 -17 l 86 693 l 1 703 l 1 758 l 307 758 l 307 703 l 194 693 l 368 218 l 429 46 l 475 207 l 625 694 l 514 703 l 514 758 l 794 758 l 794 703 l 710 694 q 467 -22 494 47 q 353 -245 411 -167 q 214 -343 294 -324 q 156 -349 192 -349 q 124 -346 140 -349 q 101 -339 107 -343 l 101 -256 m 251 967 q 205 983 224 967 q 186 1029 186 1000 q 210 1082 186 1060 q 264 1104 233 1104 q 315 1086 297 1104 q 332 1040 332 1068 q 308 987 332 1007 q 251 967 283 967 m 561 967 q 514 983 533 967 q 494 1029 494 1000 q 519 1082 494 1060 q 572 1104 543 1104 q 623 1086 606 1104 q 640 1040 640 1068 q 616 987 640 1007 q 561 967 592 967 z "},"z":{"ha":731,"x_min":60,"x_max":692,"o":"m 678 714 l 244 138 l 176 53 l 600 65 l 638 188 l 692 186 l 679 0 l 79 0 l 60 47 l 113 117 l 504 639 l 563 710 l 174 699 l 140 571 l 92 571 l 93 758 l 663 758 l 678 714 z "},"ź":{"ha":731,"x_min":60,"x_max":692,"o":"m 60 0 m 678 714 l 244 138 l 176 53 l 600 65 l 638 188 l 692 186 l 679 0 l 79 0 l 60 47 l 113 117 l 504 639 l 563 710 l 174 699 l 140 571 l 92 571 l 93 758 l 663 758 l 678 714 m 482 1200 l 554 1126 q 299 911 507 1053 l 269 940 l 482 1200 z "},"ž":{"ha":731,"x_min":60,"x_max":692,"o":"m 60 0 m 678 714 l 244 138 l 176 53 l 600 65 l 638 188 l 692 186 l 679 0 l 79 0 l 60 47 l 113 117 l 504 639 l 563 710 l 174 699 l 140 571 l 92 571 l 93 758 l 663 758 l 678 714 m 189 1201 l 381 993 l 574 1201 l 615 1176 l 429 907 l 332 907 l 143 1176 l 189 1201 z "},"ż":{"ha":731,"x_min":60,"x_max":692,"o":"m 60 0 m 678 714 l 244 138 l 176 53 l 600 65 l 638 188 l 692 186 l 679 0 l 79 0 l 60 47 l 113 117 l 504 639 l 563 710 l 174 699 l 140 571 l 92 571 l 93 758 l 663 758 l 678 714 m 378 1097 q 428 1078 411 1097 q 446 1032 446 1060 q 422 977 446 999 q 367 956 397 956 q 319 974 339 956 q 299 1021 299 992 q 324 1074 299 1051 q 378 1097 349 1097 z "},"ﬁ":{"ha":1031,"x_min":65,"x_max":982,"o":"m 489 1140 q 586 1129 560 1140 l 586 1042 q 542 1056 572 1050 q 469 1061 511 1061 q 360 1017 401 1061 q 318 856 318 974 l 318 746 l 539 746 l 539 675 l 318 675 l 318 57 l 481 46 l 481 0 l 81 0 l 81 46 l 219 58 l 219 675 l 65 675 l 65 717 l 219 746 l 219 817 q 260 987 219 913 q 364 1101 301 1061 q 489 1140 426 1140 m 811 1103 q 862 1085 844 1103 q 879 1038 879 1067 q 855 982 879 1004 q 799 960 831 960 q 751 978 771 960 q 731 1025 731 996 q 756 1081 731 1058 q 811 1103 781 1103 m 868 756 l 868 58 l 982 46 l 982 0 l 664 0 l 664 46 l 775 57 l 775 658 l 678 693 l 678 726 l 843 768 l 868 756 z "},"ﬂ":{"ha":1042,"x_min":65,"x_max":990,"o":"m 219 58 l 219 675 l 65 675 l 65 717 l 219 746 l 219 817 q 260 987 219 913 q 364 1101 301 1061 q 489 1140 426 1140 q 586 1129 560 1140 l 586 1042 q 542 1056 572 1050 q 469 1061 511 1061 q 360 1017 401 1061 q 318 856 318 974 l 318 746 l 539 746 l 539 675 l 318 675 l 318 57 l 481 46 l 481 0 l 81 0 l 81 46 l 219 58 m 774 58 l 774 1014 l 664 1031 l 664 1078 l 849 1100 l 872 1086 l 872 57 l 990 46 l 990 0 l 661 0 l 661 46 l 774 58 z "},"ª":{"ha":654,"x_min":61,"x_max":597,"o":"m 317 1081 q 438 1065 390 1081 q 512 1006 485 1050 q 539 876 539 961 l 539 553 l 597 553 l 597 514 q 551 501 582 507 q 501 494 521 494 q 461 510 469 494 q 453 572 453 525 q 365 519 413 540 q 232 499 317 499 q 156 516 196 499 q 88 570 115 533 q 61 660 61 607 q 169 809 61 769 q 450 849 278 849 l 450 876 q 431 965 450 935 q 378 1006 413 996 q 289 1017 344 1017 q 183 1003 233 1017 q 106 968 132 990 l 86 1015 q 183 1061 115 1042 q 317 1081 251 1081 m 449 801 q 157 675 157 801 q 186 593 157 626 q 268 560 215 560 q 374 577 325 560 q 449 619 422 594 l 449 801 z "},"º":{"ha":676,"x_min":67,"x_max":613,"o":"m 347 1081 q 542 1004 472 1081 q 613 792 613 928 q 571 627 613 693 q 465 530 529 561 q 331 499 400 499 q 196 532 256 499 q 101 629 136 565 q 67 781 67 693 q 108 947 67 879 q 213 1048 149 1015 q 347 1081 278 1081 m 342 1026 q 210 965 256 1026 q 165 797 165 904 q 211 619 165 685 q 332 553 257 553 q 469 606 424 553 q 514 775 514 660 q 470 960 514 893 q 342 1026 426 1026 z "},"Ω":{"ha":1321,"x_min":96,"x_max":1189,"o":"m 147 232 l 169 92 l 417 92 q 292 206 351 135 q 197 368 233 278 q 161 553 160 458 q 232 829 165 717 q 407 997 299 942 q 642 1051 515 1051 q 875 997 774 1051 q 1034 837 976 942 q 1092 588 1092 732 q 1055 403 1092 500 q 960 224 1018 307 q 839 92 901 142 l 1092 92 l 1138 246 l 1189 242 l 1160 0 l 726 0 l 726 82 q 855 198 797 124 q 947 370 913 272 q 981 575 981 468 q 935 811 981 714 q 811 957 890 908 q 632 1006 732 1006 q 446 953 528 1006 q 317 800 364 901 q 271 553 271 699 q 310 356 271 450 q 410 192 350 263 q 536 86 471 122 l 536 0 l 96 0 l 96 228 l 147 232 z "},"μ":{"ha":960,"x_min":110,"x_max":846,"o":"m 179 -272 l 179 688 l 110 701 l 110 742 l 256 772 l 276 760 l 276 299 q 290 160 276 213 q 338 83 303 108 q 438 57 372 57 q 570 88 507 57 q 664 149 633 119 l 664 683 l 579 697 l 579 742 l 742 772 l 760 760 l 760 49 l 846 49 l 846 7 q 792 -9 825 -1 q 736 -17 760 -17 q 672 35 672 -17 l 672 96 q 400 -14 540 -14 q 276 14 324 -14 l 276 -272 l 179 -272 z "},"π":{"ha":1079,"x_min":103,"x_max":961,"o":"m 961 833 q 894 705 951 753 q 749 657 836 657 q 731 294 751 703 l 725 175 q 733 107 725 132 q 758 82 742 82 q 817 101 789 82 q 860 150 846 121 l 918 150 q 883 79 910 118 q 816 13 856 40 q 732 -14 776 -14 q 671 22 688 -14 q 654 122 654 58 q 656 169 654 154 q 678 532 656 208 l 686 657 l 404 658 l 396 474 q 388 278 392 349 q 361 122 379 174 q 297 29 343 71 q 213 -15 268 1 l 139 56 q 178 69 153 58 q 228 96 204 79 q 297 177 275 128 q 322 301 318 226 q 331 465 326 361 q 339 658 336 568 l 289 658 q 210 638 246 658 q 160 585 174 618 l 103 592 q 124 654 111 635 q 202 731 154 704 q 314 757 250 757 l 767 756 q 907 833 869 756 l 961 833 z "},"ऄ":{"ha":1025,"x_min":3,"x_max":1029,"o":"m 1029 819 l 868 819 l 868 -15 l 851 -15 l 792 18 l 792 431 l 789 431 q 664 389 719 389 q 594 399 626 389 q 542 418 563 408 q 515 431 522 428 l 513 429 q 585 249 585 342 q 558 156 585 199 q 486 87 532 113 q 385 61 440 61 q 158 151 247 61 q 3 363 69 240 l 44 389 q 180 210 99 289 q 351 131 261 131 q 470 172 425 131 q 515 281 515 213 q 482 379 515 331 q 400 465 449 428 q 268 444 344 447 l 238 500 l 243 514 q 422 567 361 525 q 490 708 494 617 q 465 769 489 739 q 405 818 440 799 q 339 838 369 838 q 156 760 258 838 l 117 833 q 216 882 153 857 q 310 907 279 907 q 430 872 372 907 q 524 779 488 838 q 560 654 560 721 q 453 488 560 544 q 615 458 543 458 q 788 525 708 458 l 789 819 l 622 819 l 599 867 l 599 881 l 801 881 q 810 922 810 900 q 773 1042 810 993 q 653 1092 736 1092 q 568 1085 621 1092 q 436 1076 485 1076 q 295 1099 354 1076 q 206 1154 236 1121 q 176 1219 176 1188 q 199 1326 176 1260 l 253 1317 q 238 1240 238 1264 q 275 1170 238 1196 q 369 1144 313 1144 q 510 1153 396 1144 q 639 1161 615 1161 q 740 1142 693 1161 q 811 1092 786 1124 q 855 1019 839 1058 q 871 943 871 979 q 863 881 871 919 l 999 881 l 1025 835 l 1029 819 z "},"ॲ":{"ha":1025,"x_min":3,"x_max":1097,"o":"m 3 0 m 1029 819 l 868 819 l 868 -15 l 851 -15 l 792 18 l 792 431 l 789 431 q 664 389 719 389 q 594 399 626 389 q 542 418 563 408 q 515 431 522 428 l 513 429 q 585 249 585 342 q 558 156 585 199 q 486 87 532 113 q 385 61 440 61 q 158 151 247 61 q 3 363 69 240 l 44 389 q 180 210 99 289 q 351 131 261 131 q 470 172 425 131 q 515 281 515 213 q 482 379 515 331 q 400 465 449 428 q 268 444 344 447 l 238 500 l 243 514 q 422 567 361 525 q 490 708 494 617 q 465 769 489 739 q 405 818 440 799 q 339 838 369 838 q 156 760 258 838 l 117 833 q 216 882 153 857 q 310 907 279 907 q 430 872 372 907 q 524 779 488 838 q 560 654 560 721 q 453 488 560 544 q 615 458 543 458 q 788 525 708 458 l 789 819 l 608 819 l 585 867 l 585 881 l 1000 881 l 1025 835 l 1029 819 m 1097 1163 q 980 1058 1042 1094 q 831 1021 918 1021 q 658 1076 733 1021 q 535 1206 583 1131 l 567 1229 q 790 1090 672 1090 q 939 1127 874 1090 q 1042 1214 1004 1164 l 1097 1163 z "},"अ":{"ha":1025,"x_min":3,"x_max":1029,"o":"m 1029 819 l 868 819 l 868 -15 l 851 -15 l 792 18 l 792 431 l 789 431 q 664 389 719 389 q 594 399 626 389 q 542 418 563 408 q 515 431 522 428 l 513 429 q 585 249 585 342 q 558 156 585 199 q 486 87 532 113 q 385 61 440 61 q 158 151 247 61 q 3 363 69 240 l 44 389 q 180 210 99 289 q 351 131 261 131 q 470 172 425 131 q 515 281 515 213 q 482 379 515 331 q 400 465 449 428 q 268 444 344 447 l 238 500 l 243 514 q 422 567 361 525 q 490 708 494 617 q 465 769 489 739 q 405 818 440 799 q 339 838 369 838 q 156 760 258 838 l 117 833 q 216 882 153 857 q 310 907 279 907 q 430 872 372 907 q 524 779 488 838 q 560 654 560 721 q 453 488 560 544 q 615 458 543 458 q 788 525 708 458 l 789 819 l 608 819 l 585 867 l 585 881 l 1000 881 l 1025 835 l 1029 819 z "},"आ":{"ha":1422,"x_min":3,"x_max":1426,"o":"m 1426 819 l 1265 819 l 1265 -15 l 1249 -15 l 1189 18 l 1190 819 l 868 819 l 868 -15 l 851 -15 l 792 18 l 792 431 l 789 431 q 664 389 719 389 q 594 399 626 389 q 542 418 563 408 q 515 431 522 428 l 513 429 q 585 249 585 342 q 558 156 585 199 q 486 87 532 113 q 385 61 440 61 q 158 151 247 61 q 3 363 69 240 l 44 389 q 180 210 99 289 q 351 131 261 131 q 470 172 425 131 q 515 281 515 213 q 482 379 515 331 q 400 465 449 428 q 268 444 344 447 l 238 500 l 243 514 q 422 567 361 525 q 490 708 494 617 q 465 769 489 739 q 405 818 440 799 q 339 838 369 838 q 156 760 258 838 l 117 833 q 216 882 153 857 q 310 907 279 907 q 430 872 372 907 q 524 779 488 838 q 560 654 560 721 q 453 488 560 544 q 615 458 543 458 q 788 525 708 458 l 789 819 l 608 819 l 585 867 l 585 881 l 1397 881 l 1422 835 l 1426 819 z "},"इ":{"ha":658,"x_min":-40,"x_max":681,"o":"m 258 606 q 194 575 214 606 q 175 501 175 544 q 188 453 175 476 q 218 415 200 429 q 250 400 236 400 q 363 422 290 400 q 397 431 367 424 q 446 439 426 439 q 517 408 485 439 q 568 328 550 376 q 586 236 586 281 q 549 154 586 193 q 449 90 511 115 q 315 60 386 64 l 446 -137 l 378 -171 l 258 63 q 144 91 196 72 q 92 142 92 110 q 119 207 92 183 q 185 231 147 231 q 203 228 197 231 l 274 122 q 449 167 381 131 q 517 272 517 203 q 501 342 517 314 q 468 379 485 371 q 422 372 450 379 q 389 363 393 364 q 274 340 314 340 q 198 372 238 340 q 132 449 158 404 q 106 532 106 494 q 138 631 106 594 q 229 668 171 668 l 439 668 l 439 819 l -17 819 l -40 867 l -40 881 l 654 881 l 681 835 l 681 819 l 514 819 l 514 607 l 258 607 l 258 606 z "},"ई":{"ha":658,"x_min":-40,"x_max":682,"o":"m 654 879 l 681 833 l 681 818 l 514 818 l 514 606 l 258 606 q 194 575 214 606 q 175 501 175 544 q 188 453 175 476 q 218 415 200 429 q 250 400 236 400 q 363 422 290 400 q 397 431 367 424 q 446 439 426 439 q 517 408 485 439 q 568 328 550 376 q 586 236 586 281 q 549 154 586 193 q 449 90 511 115 q 315 60 386 64 l 446 -137 l 378 -171 l 258 63 q 144 91 196 72 q 92 142 92 110 q 119 207 92 183 q 185 231 147 231 q 203 228 197 231 l 274 122 q 449 167 381 131 q 517 272 517 203 q 501 342 517 314 q 468 379 485 371 q 422 372 450 379 q 389 363 393 364 q 274 340 314 340 q 198 372 238 340 q 132 449 158 404 q 106 532 106 494 q 138 631 106 594 q 229 668 171 668 l 439 668 l 439 819 l -17 819 l -40 867 l -40 881 l 425 881 l 425 883 q 326 1004 363 943 q 289 1138 289 1065 q 317 1233 289 1190 q 392 1299 346 1275 q 490 1322 438 1322 q 590 1301 540 1322 q 682 1243 640 1279 l 651 1197 q 578 1238 613 1224 q 504 1253 543 1253 q 401 1217 443 1253 q 358 1117 358 1181 q 402 992 358 1056 q 508 881 446 928 l 654 879 z "},"उ":{"ha":768,"x_min":-40,"x_max":768,"o":"m 768 819 l 492 819 q 617 611 617 722 q 591 534 617 569 q 522 476 565 499 q 674 225 674 356 q 647 126 674 172 q 570 53 619 81 q 460 25 521 25 q 222 122 324 25 q 36 354 121 219 l 78 381 q 175 251 117 317 q 301 140 233 185 q 429 94 368 94 q 556 138 508 94 q 604 250 604 181 q 463 453 604 353 q 378 442 421 442 q 290 454 332 442 l 260 510 l 265 524 q 357 514 315 514 q 493 550 439 515 q 547 642 547 585 q 508 737 547 690 q 407 819 468 783 l -17 819 l -40 867 l -40 881 l 742 881 l 768 835 l 768 819 z "},"ऊ":{"ha":1106,"x_min":-40,"x_max":1106,"o":"m 1103 818 l 489 818 q 614 610 614 721 q 588 533 614 568 q 519 475 563 497 q 597 401 565 439 q 728 501 669 464 q 843 538 786 538 q 936 510 894 538 q 1001 432 978 482 q 1025 321 1025 382 q 1001 206 1025 274 q 943 76 976 139 l 868 115 q 964 351 964 260 q 933 438 964 407 q 857 468 901 468 q 753 436 807 468 q 638 347 700 404 q 674 222 674 286 q 645 124 672 169 q 569 52 618 79 q 460 25 521 25 q 222 122 324 25 q 36 354 121 219 l 78 381 q 175 251 117 317 q 301 140 233 185 q 429 94 368 94 q 556 138 508 94 q 604 250 604 181 q 463 453 604 353 q 378 442 421 442 q 290 454 332 442 l 260 510 l 265 524 q 357 514 315 514 q 493 550 439 515 q 547 642 547 585 q 508 737 547 690 q 407 819 468 783 l -17 819 l -40 867 l -40 881 l 1079 881 l 1106 835 l 1103 818 z "},"ऋ":{"ha":1144,"x_min":-40,"x_max":1144,"o":"m 1144 835 l 1144 819 l 608 819 l 608 457 q 667 453 638 453 q 810 493 757 453 l 753 603 q 785 622 763 613 q 828 632 807 632 q 897 609 868 632 q 926 547 926 586 q 886 463 926 500 l 1004 236 q 892 163 928 196 q 856 93 856 129 q 883 28 856 57 q 965 -1 911 -1 q 1031 8 993 -1 q 1097 35 1069 18 l 1144 -33 q 1079 -60 1115 -50 q 1014 -71 1043 -71 q 857 -19 918 -71 q 796 117 796 32 q 921 282 796 207 l 843 431 q 757 396 804 408 q 664 383 710 383 q 608 389 631 383 l 608 -15 l 592 -15 l 532 18 l 532 346 l 529 347 l 154 39 l 99 99 l 532 431 q 399 526 463 500 q 269 553 336 553 q 187 540 228 553 q 90 507 146 528 l 50 579 q 145 608 85 592 q 246 624 206 624 q 393 597 332 622 q 532 515 454 571 l 533 819 l -17 819 l -40 867 l -40 881 l 1118 881 l 1144 835 z "},"ॠ":{"ha":1144,"x_min":-40,"x_max":1229,"o":"m 1144 835 l 1144 819 l 608 819 l 608 457 q 667 453 638 453 q 807 499 754 453 l 753 603 q 785 622 763 613 q 828 632 807 632 q 894 610 868 632 q 919 549 919 588 q 886 464 919 501 l 1004 236 q 892 163 928 196 q 856 93 856 129 q 877 37 856 61 q 951 13 899 13 q 1017 22 979 13 q 1083 49 1056 32 l 1131 -19 q 1069 -45 1104 -35 q 1007 -57 1035 -56 q 954 -156 954 -104 q 976 -212 954 -187 q 1050 -237 997 -237 q 1116 -228 1078 -237 q 1182 -201 1154 -218 l 1229 -269 q 1164 -297 1200 -286 q 1099 -307 1128 -307 q 948 -261 1001 -307 q 894 -137 894 -215 q 921 -47 894 -90 q 828 13 861 -29 q 796 117 796 56 q 921 282 796 207 l 843 431 q 757 397 806 408 q 661 385 708 385 q 608 389 631 385 l 608 -15 l 592 -15 l 532 18 l 532 346 l 529 347 l 154 39 l 99 99 l 532 431 q 399 526 463 500 q 269 553 336 553 q 187 540 228 553 q 90 507 146 528 l 50 579 q 145 608 85 592 q 246 624 206 624 q 393 597 332 622 q 532 515 454 571 l 533 819 l -17 819 l -40 867 l -40 881 l 1118 881 l 1144 835 z "},"ऌ":{"ha":969,"x_min":-40,"x_max":969,"o":"m 969 835 l 969 819 l 692 819 l 692 585 q 817 519 764 571 q 869 394 869 468 q 834 265 869 322 q 735 142 799 208 q 668 64 689 93 q 647 4 647 35 q 674 -53 647 -31 q 746 -75 701 -75 q 829 -53 789 -75 q 917 13 869 -31 l 965 -44 q 776 -136 874 -136 q 687 -117 733 -136 q 609 -60 640 -99 q 578 33 578 -22 q 599 98 578 67 q 668 181 621 129 q 765 301 731 246 q 800 425 800 356 q 764 503 800 478 q 682 528 728 528 q 555 440 608 528 q 476 247 501 353 l 394 294 q 460 456 414 382 q 300 544 379 544 q 191 498 232 544 q 150 378 150 451 q 195 188 150 276 q 304 10 240 99 l 263 -18 q 81 411 81 218 q 106 513 81 467 q 175 587 132 560 q 268 614 218 614 q 490 500 382 614 q 615 585 549 569 l 617 819 l -17 819 l -40 867 l -40 881 l 943 881 l 969 835 z "},"ॡ":{"ha":969,"x_min":-40,"x_max":1131,"o":"m 969 835 l 969 819 l 692 819 l 692 585 q 817 519 764 571 q 869 394 869 468 q 834 265 869 322 q 735 142 799 208 q 668 64 689 93 q 647 4 647 35 q 674 -53 647 -31 q 746 -75 701 -75 q 829 -53 789 -75 q 917 13 869 -31 l 965 -44 q 851 -122 911 -99 q 813 -197 813 -160 q 840 -256 813 -233 q 911 -278 867 -278 q 994 -256 954 -278 q 1082 -190 1035 -233 l 1131 -247 q 942 -339 1039 -339 q 852 -323 899 -339 q 774 -274 806 -307 q 743 -193 743 -242 q 758 -135 743 -164 q 633 -85 689 -129 q 578 33 576 -42 q 599 98 578 67 q 668 181 621 129 q 765 301 731 246 q 800 425 800 356 q 764 503 800 478 q 682 528 728 528 q 555 440 608 528 q 476 247 501 353 l 394 294 q 460 456 414 382 q 300 544 379 544 q 191 498 232 544 q 150 378 150 451 q 195 188 150 276 q 304 10 240 99 l 263 -18 q 81 411 81 218 q 106 513 81 467 q 175 587 132 560 q 268 614 218 614 q 490 500 382 614 q 615 585 549 569 l 617 819 l -17 819 l -40 867 l -40 881 l 943 881 l 969 835 z "},"ऍ":{"ha":790,"x_min":-40,"x_max":885,"o":"m 0 0 m 735 -29 q 853 -121 822 -89 q 885 -186 885 -153 q 859 -244 885 -222 q 796 -267 833 -267 q 745 -249 768 -267 q 710 -207 722 -231 l 710 -204 l 781 -126 l 276 214 q 178 301 204 263 q 151 388 151 340 l 151 819 l -17 819 l -40 867 l -40 881 l 764 881 l 790 835 l 790 819 l 651 819 l 651 471 q 614 343 651 388 q 525 281 576 299 l 467 321 l 467 333 q 547 385 518 357 q 576 456 576 413 l 576 819 l 226 819 l 226 372 q 246 314 226 339 q 311 258 265 289 l 735 -29 m 692 1163 q 574 1058 636 1094 q 425 1021 513 1021 q 253 1076 328 1021 q 129 1206 178 1131 l 161 1229 q 385 1090 267 1090 q 533 1127 468 1090 q 636 1214 599 1164 l 692 1163 z "},"ऎ":{"ha":790,"x_min":-40,"x_max":885,"o":"m 40 1317 q 25 1240 25 1264 q 63 1170 25 1196 q 157 1144 100 1144 q 297 1153 183 1144 q 426 1161 403 1161 q 527 1142 481 1161 q 599 1092 574 1124 q 642 1018 626 1057 q 658 943 658 979 q 650 881 658 919 l 764 881 l 790 835 l 790 819 l 651 819 l 651 471 q 614 343 651 388 q 525 281 576 299 l 467 321 l 467 333 q 547 385 518 357 q 576 456 576 413 l 576 819 l 226 819 l 226 372 q 246 314 226 339 q 311 258 265 289 l 735 -29 q 853 -121 822 -89 q 885 -186 885 -153 q 859 -244 885 -222 q 796 -267 833 -267 q 745 -249 768 -267 q 710 -207 722 -231 l 710 -204 l 781 -126 l 276 214 q 178 301 204 263 q 151 388 151 340 l 151 819 l -17 819 l -40 867 l -40 881 l 589 881 q 597 922 597 900 q 560 1042 597 993 q 440 1092 524 1092 q 356 1085 408 1092 q 224 1076 272 1076 q 83 1099 142 1076 q -6 1154 24 1121 q -36 1219 -36 1188 q -14 1326 -36 1260 l 40 1317 z "},"ए":{"ha":790,"x_min":-40,"x_max":885,"o":"m 735 -29 q 853 -121 822 -89 q 885 -186 885 -153 q 859 -244 885 -222 q 796 -267 833 -267 q 745 -249 768 -267 q 710 -207 722 -231 l 710 -204 l 781 -126 l 276 214 q 178 301 204 263 q 151 388 151 340 l 151 819 l -17 819 l -40 867 l -40 881 l 764 881 l 790 835 l 790 819 l 651 819 l 651 471 q 614 343 651 388 q 525 281 576 299 l 467 321 l 467 333 q 547 385 518 357 q 576 456 576 413 l 576 819 l 226 819 l 226 372 q 246 314 226 339 q 311 258 265 289 l 735 -29 z "},"ऐ":{"ha":790,"x_min":-40,"x_max":885,"o":"m 0 0 m 735 -29 q 853 -121 822 -89 q 885 -186 885 -153 q 859 -244 885 -222 q 796 -267 833 -267 q 745 -249 768 -267 q 710 -207 722 -231 l 710 -204 l 781 -126 l 276 214 q 178 301 204 263 q 151 388 151 340 l 151 819 l -17 819 l -40 867 l -40 881 l 764 881 l 790 835 l 790 819 l 651 819 l 651 471 q 614 343 651 388 q 525 281 576 299 l 467 321 l 467 333 q 547 385 518 357 q 576 456 576 413 l 576 819 l 226 819 l 226 372 q 246 314 226 339 q 311 258 265 289 l 735 -29 m 224 1403 q 383 1327 315 1403 q 529 1104 451 1251 q 640 879 613 943 l 571 879 q 494 1039 532 967 q 397 1211 439 1144 q 338 1289 356 1278 l 179 1242 q 150 1278 163 1254 q 138 1328 138 1301 q 160 1383 138 1363 q 224 1403 183 1403 z "},"ऑ":{"ha":1422,"x_min":3,"x_max":1494,"o":"m 3 0 m 1426 819 l 1265 819 l 1265 -15 l 1249 -15 l 1189 18 l 1190 819 l 868 819 l 868 -15 l 851 -15 l 792 18 l 792 431 l 789 431 q 664 389 719 389 q 594 399 626 389 q 542 418 563 408 q 515 431 522 428 l 513 429 q 585 249 585 342 q 558 156 585 199 q 486 87 532 113 q 385 61 440 61 q 158 151 247 61 q 3 363 69 240 l 44 389 q 180 210 99 289 q 351 131 261 131 q 470 172 425 131 q 515 281 515 213 q 482 379 515 331 q 400 465 449 428 q 268 444 344 447 l 238 500 l 243 514 q 422 567 361 525 q 490 708 494 617 q 465 769 489 739 q 405 818 440 799 q 339 838 369 838 q 156 760 258 838 l 117 833 q 216 882 153 857 q 310 907 279 907 q 430 872 372 907 q 524 779 488 838 q 560 654 560 721 q 453 488 560 544 q 615 458 543 458 q 788 525 708 458 l 789 819 l 608 819 l 585 867 l 585 881 l 1397 881 l 1422 835 l 1426 819 m 1494 1163 q 1377 1058 1439 1094 q 1228 1021 1315 1021 q 1056 1076 1131 1021 q 932 1206 981 1131 l 964 1229 q 1188 1090 1069 1090 q 1336 1127 1271 1090 q 1439 1214 1401 1164 l 1494 1163 z "},"ऒ":{"ha":1422,"x_min":0,"x_max":1422,"o":"m 650 1317 q 635 1240 635 1264 q 672 1170 635 1196 q 767 1144 710 1144 q 907 1153 793 1144 q 1036 1161 1013 1161 q 1137 1142 1090 1161 q 1208 1092 1183 1124 q 1252 1018 1236 1057 q 1268 943 1268 979 q 1260 881 1268 919 l 1397 881 l 1422 835 l 1422 819 l 1261 819 l 1261 -15 l 1244 -15 l 1185 18 l 1186 819 l 864 819 l 864 -15 l 847 -15 l 788 18 l 788 431 l 785 431 q 660 389 715 389 q 590 399 622 389 q 538 418 558 408 q 511 431 518 428 l 508 429 q 582 249 582 343 q 556 156 582 199 q 483 87 529 113 q 382 61 438 61 q 156 151 244 61 q 0 363 67 240 l 42 389 q 177 210 96 289 q 349 131 258 131 q 467 172 422 131 q 513 281 513 213 q 479 379 513 331 q 397 465 446 428 q 267 444 342 447 l 236 500 l 242 514 q 421 567 360 525 q 489 708 493 617 q 463 769 488 739 q 403 818 439 799 q 338 838 368 838 q 154 760 257 838 l 115 833 q 215 882 151 857 q 308 907 278 907 q 428 872 371 907 q 522 779 486 838 q 558 654 558 721 q 451 488 558 544 q 614 458 542 458 q 788 525 708 458 l 789 819 l 608 819 l 585 867 l 585 881 l 1199 881 q 1207 922 1207 900 q 1170 1042 1207 993 q 1050 1092 1133 1092 q 965 1085 1018 1092 q 833 1076 882 1076 q 692 1099 751 1076 q 603 1154 633 1121 q 574 1219 574 1188 q 596 1326 574 1260 l 650 1317 z "},"ओ":{"ha":1422,"x_min":3,"x_max":1426,"o":"m 3 0 m 1426 819 l 1265 819 l 1265 -15 l 1249 -15 l 1189 18 l 1190 819 l 868 819 l 868 -15 l 851 -15 l 792 18 l 792 431 l 789 431 q 664 389 719 389 q 594 399 626 389 q 542 418 563 408 q 515 431 522 428 l 513 429 q 585 249 585 342 q 558 156 585 199 q 486 87 532 113 q 385 61 440 61 q 158 151 247 61 q 3 363 69 240 l 44 389 q 180 210 99 289 q 351 131 261 131 q 470 172 425 131 q 515 281 515 213 q 482 379 515 331 q 400 465 449 428 q 268 444 344 447 l 238 500 l 243 514 q 422 567 361 525 q 490 708 494 617 q 465 769 489 739 q 405 818 440 799 q 339 838 369 838 q 156 760 258 838 l 117 833 q 216 882 153 857 q 310 907 279 907 q 430 872 372 907 q 524 779 488 838 q 560 654 560 721 q 453 488 560 544 q 615 458 543 458 q 788 525 708 458 l 789 819 l 608 819 l 585 867 l 585 881 l 1397 881 l 1422 835 l 1426 819 m 832 1403 q 992 1327 924 1403 q 1138 1104 1060 1251 q 1249 879 1221 943 l 1179 879 q 1103 1039 1140 967 q 1006 1211 1047 1144 q 946 1289 964 1278 l 788 1242 q 758 1278 771 1254 q 746 1328 746 1301 q 769 1383 746 1363 q 832 1403 792 1403 z "},"औ":{"ha":1422,"x_min":3,"x_max":1426,"o":"m 1426 818 l 1265 818 l 1265 -17 l 1249 -17 l 1189 17 l 1190 818 l 868 818 l 868 -17 l 851 -17 l 792 17 l 792 429 l 789 429 q 664 388 719 388 q 594 397 626 388 q 542 417 563 407 q 515 429 522 426 l 513 428 q 585 247 585 340 q 558 154 585 197 q 486 85 532 111 q 385 60 440 60 q 158 149 247 60 q 3 361 69 239 l 44 388 q 180 208 99 288 q 351 129 261 129 q 470 170 425 129 q 515 279 515 211 q 482 378 515 329 q 400 464 449 426 q 268 443 344 446 l 238 499 l 243 513 q 422 565 361 524 q 490 707 494 615 q 465 767 489 738 q 405 817 440 797 q 339 836 369 836 q 156 758 258 836 l 117 832 q 216 881 153 856 q 310 906 279 906 q 430 871 372 906 q 524 778 488 836 q 560 653 560 719 q 453 486 560 543 q 615 457 543 457 q 788 524 708 457 l 789 818 l 608 818 l 585 865 l 585 879 l 1139 879 q 960 1081 997 1064 l 786 1053 l 785 1053 q 763 1084 772 1064 q 753 1126 753 1104 q 774 1176 753 1158 q 832 1194 796 1194 q 1003 1106 911 1194 q 1183 879 1096 1017 l 1222 879 q 1136 1075 1161 1029 q 1037 1245 1082 1178 q 972 1325 992 1313 l 815 1278 l 814 1278 q 785 1314 797 1290 q 772 1364 772 1338 q 795 1419 772 1399 q 858 1439 818 1439 q 1019 1361 950 1439 q 1161 1140 1089 1283 q 1267 881 1190 1082 l 1397 881 l 1422 835 l 1426 818 z "},"ॳ":{"ha":1025,"x_min":3,"x_max":1029,"o":"m 3 0 m 1029 819 l 868 819 l 868 -15 l 851 -15 l 792 18 l 792 431 l 789 431 q 664 389 719 389 q 594 399 626 389 q 542 418 563 408 q 515 431 522 428 l 513 429 q 585 249 585 342 q 558 156 585 199 q 486 87 532 113 q 385 61 440 61 q 158 151 247 61 q 3 363 69 240 l 44 389 q 180 210 99 289 q 351 131 261 131 q 470 172 425 131 q 515 281 515 213 q 482 379 515 331 q 400 465 449 428 q 268 444 344 447 l 238 500 l 243 514 q 422 567 361 525 q 490 708 494 617 q 465 769 489 739 q 405 818 440 799 q 339 838 369 838 q 156 760 258 838 l 117 833 q 216 882 153 857 q 310 907 279 907 q 430 872 372 907 q 524 779 488 838 q 560 654 560 721 q 453 488 560 544 q 615 458 543 458 q 788 525 708 458 l 789 819 l 608 819 l 585 867 l 585 881 l 1000 881 l 1025 835 l 1029 819 m 864 1247 l 864 860 l 789 860 l 789 1247 l 864 1247 z "},"ॴ":{"ha":1422,"x_min":3,"x_max":1426,"o":"m 3 0 m 1426 819 l 1265 819 l 1265 -15 l 1249 -15 l 1189 18 l 1190 819 l 868 819 l 868 -15 l 851 -15 l 792 18 l 792 431 l 789 431 q 664 389 719 389 q 594 399 626 389 q 542 418 563 408 q 515 431 522 428 l 513 429 q 585 249 585 342 q 558 156 585 199 q 486 87 532 113 q 385 61 440 61 q 158 151 247 61 q 3 363 69 240 l 44 389 q 180 210 99 289 q 351 131 261 131 q 470 172 425 131 q 515 281 515 213 q 482 379 515 331 q 400 465 449 428 q 268 444 344 447 l 238 500 l 243 514 q 422 567 361 525 q 490 708 494 617 q 465 769 489 739 q 405 818 440 799 q 339 838 369 838 q 156 760 258 838 l 117 833 q 216 882 153 857 q 310 907 279 907 q 430 872 372 907 q 524 779 488 838 q 560 654 560 721 q 453 488 560 544 q 615 458 543 458 q 788 525 708 458 l 789 819 l 608 819 l 585 867 l 585 881 l 1397 881 l 1422 835 l 1426 819 m 1261 1247 l 1261 860 l 1186 860 l 1186 1247 l 1261 1247 z "},"ॶ":{"ha":1025,"x_min":3,"x_max":1029,"o":"m 3 0 m 1029 819 l 868 819 l 868 -15 l 851 -15 l 792 18 l 792 431 l 789 431 q 664 389 719 389 q 594 399 626 389 q 542 418 563 408 q 515 431 522 428 l 513 429 q 585 249 585 342 q 558 156 585 199 q 486 87 532 113 q 385 61 440 61 q 158 151 247 61 q 3 363 69 240 l 44 389 q 180 210 99 289 q 351 131 261 131 q 470 172 425 131 q 515 281 515 213 q 482 379 515 331 q 400 465 449 428 q 268 444 344 447 l 238 500 l 243 514 q 422 567 361 525 q 490 708 494 617 q 465 769 489 739 q 405 818 440 799 q 339 838 369 838 q 156 760 258 838 l 117 833 q 216 882 153 857 q 310 907 279 907 q 430 872 372 907 q 524 779 488 838 q 560 654 560 721 q 453 488 560 544 q 615 458 543 458 q 788 525 708 458 l 789 819 l 608 819 l 585 867 l 585 881 l 1000 881 l 1025 835 l 1029 819 m 482 -218 q 732 -85 639 -217 l 778 -122 q 654 -240 735 -193 q 482 -287 574 -287 q 308 -240 389 -287 q 185 -122 228 -193 l 232 -85 q 482 -218 325 -217 z "},"ॷ":{"ha":1025,"x_min":3,"x_max":1029,"o":"m 3 0 m 1029 819 l 868 819 l 868 -15 l 851 -15 l 792 18 l 792 431 l 789 431 q 664 389 719 389 q 594 399 626 389 q 542 418 563 408 q 515 431 522 428 l 513 429 q 585 249 585 342 q 558 156 585 199 q 486 87 532 113 q 385 61 440 61 q 158 151 247 61 q 3 363 69 240 l 44 389 q 180 210 99 289 q 351 131 261 131 q 470 172 425 131 q 515 281 515 213 q 482 379 515 331 q 400 465 449 428 q 268 444 344 447 l 238 500 l 243 514 q 422 567 361 525 q 490 708 494 617 q 465 769 489 739 q 405 818 440 799 q 339 838 369 838 q 156 760 258 838 l 117 833 q 216 882 153 857 q 310 907 279 907 q 430 872 372 907 q 524 779 488 838 q 560 654 560 721 q 453 488 560 544 q 615 458 543 458 q 788 525 708 458 l 789 819 l 608 819 l 585 867 l 585 881 l 1000 881 l 1025 835 l 1029 819 m 482 -218 q 732 -85 639 -217 l 778 -122 q 654 -240 735 -193 q 482 -287 574 -287 q 308 -240 389 -287 q 185 -122 228 -193 l 232 -85 q 482 -218 325 -217 m 482 -449 q 732 -315 639 -447 l 778 -353 q 654 -471 735 -424 q 482 -518 574 -518 q 308 -471 389 -518 q 185 -353 228 -424 l 232 -315 q 482 -449 325 -447 z "},"ा":{"ha":399,"x_min":-40,"x_max":399,"o":"m 399 835 l 399 819 l 238 819 l 238 -15 l 221 -15 l 161 18 l 163 819 l -17 819 l -40 867 l -40 881 l 372 881 l 399 835 z "},"ि":{"ha":399,"x_min":-40,"x_max":985,"o":"m 368 1275 q 203 1228 267 1275 q 139 1093 139 1182 q 165 979 139 1039 q 221 881 192 919 l 372 881 l 399 835 l 399 819 l 238 819 l 238 -15 l 221 -15 l 161 18 l 163 819 l -17 819 l -40 867 l -40 881 l 160 881 q 94 1007 119 946 q 69 1126 69 1068 q 103 1239 69 1189 q 197 1317 136 1289 q 336 1344 257 1344 q 638 1240 476 1344 q 985 972 800 1135 l 957 936 q 628 1187 767 1099 q 368 1275 489 1275 z "},"ी":{"ha":399,"x_min":-358,"x_max":397,"o":"m 397 835 l 397 819 l 236 819 l 236 -15 l 219 -15 l 160 18 l 161 819 l -18 819 l -42 867 l -42 881 l 165 881 q 13 1205 89 1076 q -154 1333 -62 1333 q -248 1290 -212 1333 q -283 1192 -283 1246 q -256 1093 -283 1143 q -194 1011 -228 1043 l -194 1008 l -246 983 q -325 1088 -292 1026 q -358 1219 -358 1150 q -335 1310 -358 1268 q -271 1377 -312 1351 q -176 1403 -229 1403 q -3 1322 -79 1403 q 122 1141 74 1242 q 232 881 169 1040 l 372 881 l 397 835 z "},"ॉ":{"ha":399,"x_min":-92,"x_max":471,"o":"m 0 0 m 399 835 l 399 819 l 238 819 l 238 -15 l 221 -15 l 161 18 l 163 819 l -17 819 l -40 867 l -40 881 l 372 881 l 399 835 m 471 1163 q 353 1058 415 1094 q 204 1021 292 1021 q 32 1076 107 1021 q -92 1206 -43 1131 l -60 1229 q 164 1090 46 1090 q 313 1127 247 1090 q 415 1214 378 1164 l 471 1163 z "},"ॊ":{"ha":399,"x_min":-450,"x_max":399,"o":"m -374 1317 q -389 1240 -389 1264 q -351 1170 -389 1196 q -257 1144 -314 1144 q -117 1153 -231 1144 q 13 1161 -11 1161 q 113 1142 67 1161 q 185 1092 160 1124 q 228 1019 213 1058 q 244 943 244 979 q 236 881 244 919 l 372 881 l 399 835 l 399 819 l 238 819 l 238 -15 l 221 -15 l 161 18 l 163 819 l -17 819 l -40 867 l -40 881 l 175 881 q 183 922 183 900 q 147 1042 183 993 q 26 1092 110 1092 q -58 1085 -6 1092 q -190 1076 -142 1076 q -331 1099 -272 1076 q -420 1154 -390 1121 q -450 1219 -450 1188 q -428 1326 -450 1260 l -374 1317 z "},"ो":{"ha":399,"x_min":-269,"x_max":400,"o":"m 400 835 l 400 819 l 239 819 l 239 -15 l 222 -15 l 163 18 l 164 819 l -15 819 l -39 867 l -39 881 l 164 881 q 88 1039 129 960 q -10 1211 32 1144 q -69 1289 -51 1278 l -228 1242 q -257 1278 -244 1254 q -269 1328 -269 1301 q -247 1383 -269 1363 q -183 1403 -224 1403 q -24 1327 -92 1403 q 122 1104 44 1251 q 232 881 200 953 l 372 881 l 400 835 z "},"ौ":{"ha":399,"x_min":-271,"x_max":399,"o":"m 399 833 l 399 818 l 238 818 l 238 -17 l 221 -17 l 161 17 l 163 818 l -17 818 l -40 865 l -40 879 l 115 879 q -64 1081 -26 1064 l -237 1053 l -239 1053 q -261 1084 -251 1064 q -271 1126 -271 1104 q -249 1176 -271 1158 q -192 1194 -228 1194 q -20 1106 -112 1194 q 160 879 72 1017 l 199 879 q 113 1075 138 1029 q 13 1245 58 1178 q -51 1325 -32 1313 l -208 1278 l -210 1278 q -239 1314 -226 1290 q -251 1364 -251 1338 q -228 1419 -251 1399 q -165 1439 -206 1439 q -4 1361 -74 1439 q 138 1140 65 1283 q 243 881 167 1082 l 372 881 l 399 833 z "},"ऻ":{"ha":399,"x_min":-40,"x_max":399,"o":"m 399 835 l 399 819 l 238 819 l 238 -15 l 221 -15 l 161 18 l 163 819 l -17 819 l -40 867 l -40 881 l 163 881 l 163 1247 l 238 1247 l 238 881 l 372 881 l 399 835 z "},"क":{"ha":1136,"x_min":-40,"x_max":1136,"o":"m 632 818 l 632 463 q 737 546 681 511 q 844 581 793 581 q 953 549 906 581 q 1029 461 1001 518 q 1057 329 1057 404 q 951 75 1057 229 l 892 136 q 960 238 926 174 q 994 365 994 301 q 956 469 994 428 q 867 511 918 511 q 758 476 814 511 q 631 369 701 442 l 631 -17 l 614 -17 l 553 17 l 560 303 l 558 304 q 507 261 551 299 q 410 203 463 224 q 301 182 357 182 q 190 207 242 182 q 108 283 139 232 q 76 406 76 333 q 103 510 76 463 q 179 587 131 558 q 292 615 228 615 q 438 575 368 615 q 557 481 507 535 l 558 819 l -17 819 l -40 867 l -40 881 l 1108 881 l 1136 835 l 1136 819 l 632 818 m 276 250 q 419 289 350 250 q 558 392 489 328 l 558 394 q 447 502 510 460 q 324 544 385 544 q 234 523 276 544 q 166 463 192 501 q 140 375 140 425 q 178 285 140 319 q 275 250 217 250 l 276 250 z "},"ख":{"ha":1094,"x_min":-40,"x_max":1119,"o":"m 1119 835 l 1119 819 l 938 819 l 938 -15 l 921 -15 l 861 18 l 864 129 q 715 67 799 93 q 551 40 632 40 q 363 103 453 40 q 183 268 274 165 q 113 367 133 325 q 93 449 93 408 q 110 490 93 471 q 147 517 128 510 l 214 458 q 248 532 238 496 q 258 611 258 568 q 252 715 258 656 q 236 819 246 775 l -15 819 l -40 867 l -40 881 l 1094 881 l 1119 835 m 197 329 q 353 181 258 251 q 550 111 447 111 q 864 208 711 111 l 863 368 q 746 285 801 317 q 632 253 690 253 q 514 281 563 253 q 441 353 465 308 q 417 449 417 397 q 444 560 417 511 q 517 635 471 608 q 619 663 564 663 q 749 628 686 663 q 857 546 811 593 l 863 546 l 863 819 l 304 819 q 322 688 315 758 q 328 572 328 617 q 295 435 328 488 q 199 328 263 382 l 197 329 m 863 460 q 759 558 817 521 q 643 594 701 594 q 525 545 571 594 q 479 422 479 496 q 510 352 479 381 q 604 324 542 324 q 734 363 663 324 q 861 458 806 401 l 861 461 l 863 460 z "},"ग":{"ha":799,"x_min":-40,"x_max":799,"o":"m 799 835 l 799 819 l 638 819 l 638 -15 l 621 -15 l 561 18 l 563 819 l 279 819 q 294 426 294 557 q 201 297 294 297 q 130 320 158 297 q 88 375 101 343 q 75 432 75 407 q 81 471 75 456 l 213 450 l 213 819 l -17 819 l -40 867 l -40 881 l 772 881 l 799 835 z "},"घ":{"ha":913,"x_min":-40,"x_max":913,"o":"m 913 835 l 913 819 l 751 819 l 751 -15 l 735 -15 l 676 18 l 676 300 l 674 301 q 517 190 589 226 q 367 153 444 153 q 232 193 289 153 q 144 356 144 254 q 172 465 144 415 q 247 547 199 514 q 165 592 194 571 q 118 644 135 613 q 101 725 101 676 q 128 819 101 772 l -17 819 l -40 868 l -40 881 l 886 881 l 913 835 m 338 222 q 507 265 426 222 q 676 394 588 308 l 676 819 l 207 819 q 171 714 171 772 q 199 647 171 676 q 266 602 228 618 q 332 586 304 586 l 364 588 q 458 575 414 588 l 483 522 l 479 510 q 406 518 447 518 q 293 488 338 518 q 228 413 249 457 q 207 324 207 368 q 247 247 207 271 q 339 222 288 222 l 338 222 z "},"ङ":{"ha":935,"x_min":-40,"x_max":935,"o":"m 935 835 l 935 819 l 594 819 l 594 578 l 315 578 q 235 544 260 578 q 211 458 211 511 q 242 395 211 425 q 301 365 272 365 q 369 377 328 365 q 419 392 410 389 q 547 421 507 421 q 621 390 586 421 q 676 313 656 360 q 697 222 697 267 q 671 119 697 165 q 599 47 644 74 q 499 21 554 21 q 278 76 389 21 q 49 264 168 132 l 86 300 q 464 83 278 83 q 581 124 535 83 q 628 244 628 165 q 609 318 628 286 q 571 360 590 350 q 517 353 543 360 q 444 331 492 346 q 338 304 374 304 q 244 333 289 304 q 170 406 199 361 q 142 494 142 450 q 182 599 142 558 q 283 639 222 639 l 519 639 l 519 819 l -17 819 l -40 867 l -40 881 l 908 881 l 935 835 m 918 490 l 831 403 l 743 490 l 831 578 l 918 490 z "},"च":{"ha":888,"x_min":-40,"x_max":889,"o":"m 889 833 l 889 818 l 729 818 l 729 -17 l 714 -17 l 651 14 l 653 307 l 651 308 q 401 175 503 175 q 239 236 300 175 q 185 308 206 269 q 165 400 165 346 q 185 481 165 442 q 231 543 204 521 l 231 544 l 83 544 l 60 592 l 60 606 l 506 606 l 532 560 l 532 544 l 406 544 q 315 517 354 544 q 256 448 276 489 q 233 368 235 407 q 274 277 235 310 q 364 244 314 244 q 514 293 443 244 q 651 408 585 342 l 651 819 l -17 819 l -40 867 l -40 881 l 861 881 l 889 833 z "},"छ":{"ha":1011,"x_min":-40,"x_max":1011,"o":"m 717 821 l 717 656 q 840 575 790 635 q 892 429 890 515 q 843 267 892 349 q 941 182 906 229 q 978 67 976 135 q 943 -55 978 15 q 864 -182 908 -125 l 807 -119 q 885 -20 853 -74 q 917 83 917 33 q 887 153 915 122 q 806 214 858 183 q 619 67 732 124 q 390 10 506 10 q 281 35 335 10 q 194 103 228 60 q 160 201 160 147 q 206 319 160 269 q 103 392 135 356 q 71 497 71 429 q 93 571 71 535 q 153 630 115 607 q 235 653 192 653 q 292 648 265 653 q 336 636 319 643 l 368 560 q 316 578 339 574 q 263 583 293 582 q 173 556 214 583 q 132 479 132 528 q 173 405 132 435 q 263 363 214 375 q 343 382 301 382 q 433 369 389 382 l 460 317 l 456 304 q 388 313 428 313 q 268 269 314 313 q 222 169 222 226 q 262 103 222 126 q 358 79 301 79 q 577 126 475 81 q 743 249 679 171 l 701 269 q 510 519 510 369 q 547 622 510 585 q 642 664 583 660 l 642 819 l -17 819 l -40 867 l -40 881 l 985 881 l 1011 835 l 1011 819 l 717 821 m 822 457 q 781 561 822 519 q 679 604 739 603 q 609 579 639 603 q 579 504 579 556 q 626 400 579 450 q 742 318 674 350 l 779 301 q 822 457 822 375 z "},"ज":{"ha":985,"x_min":-40,"x_max":985,"o":"m 985 819 l 824 819 l 824 -15 l 807 -15 l 747 18 l 749 531 l 432 531 q 547 408 501 475 q 593 275 593 340 q 558 188 593 224 q 465 153 522 153 q 276 220 358 153 q 144 370 194 288 q 39 568 93 453 l 81 594 q 439 222 267 222 q 524 303 524 222 q 459 435 524 368 q 319 544 394 501 l 339 590 l 749 590 l 749 819 l -17 819 l -40 867 l -40 881 l 958 881 l 985 835 l 985 819 z "},"झ":{"ha":1031,"x_min":-40,"x_max":1031,"o":"m 1031 833 l 1031 818 l 869 818 l 869 -17 l 853 -17 l 793 14 l 793 347 l 790 347 q 701 325 742 325 q 608 338 649 325 q 561 353 568 350 l 557 353 q 586 236 586 294 q 549 154 586 193 q 449 90 511 115 q 315 60 386 64 l 446 -137 l 378 -171 l 258 63 q 144 91 196 72 q 92 142 92 110 q 119 207 92 183 q 185 231 147 231 q 203 228 197 231 l 274 122 q 449 167 381 131 q 517 272 517 203 q 501 342 517 314 q 468 379 485 371 q 422 372 450 379 q 389 363 393 364 q 274 340 314 340 q 198 372 238 340 q 132 449 158 404 q 106 532 106 494 q 138 631 106 594 q 229 668 171 668 l 439 668 l 439 819 l -17 819 l -40 867 l -40 881 l 1004 881 l 1031 833 m 654 394 q 727 406 689 394 q 793 435 765 417 l 793 818 l 513 818 l 513 606 l 257 606 q 193 575 213 606 q 174 501 174 544 q 186 453 174 476 q 217 415 199 429 q 249 400 235 400 q 361 422 289 400 q 395 431 365 424 q 444 439 425 439 q 499 422 474 439 q 656 394 585 394 l 654 394 z "},"ञ":{"ha":943,"x_min":-40,"x_max":943,"o":"m 943 818 l 782 818 l 782 -17 l 765 -17 l 706 17 l 706 363 q 654 353 682 353 q 575 368 625 353 l 572 368 q 504 246 565 290 q 368 201 443 201 q 171 269 257 201 q 4 453 85 338 l 39 489 q 194 328 117 385 q 339 271 272 271 q 435 293 394 271 q 496 349 475 315 q 517 418 517 383 q 499 478 517 450 q 456 522 482 506 q 404 539 429 539 q 256 489 340 539 l 210 546 q 343 608 299 608 q 431 589 382 608 q 519 528 479 569 q 569 426 558 488 q 606 422 588 422 q 706 451 650 422 l 707 819 l -17 819 l -40 867 l -40 881 l 917 881 l 943 835 l 943 818 z "},"ट":{"ha":699,"x_min":-40,"x_max":729,"o":"m 729 835 l 729 819 l 503 819 l 503 568 q 332 533 413 561 q 201 454 251 506 q 150 332 150 403 q 181 238 150 275 q 256 183 211 200 q 343 167 301 167 q 474 186 400 167 q 629 249 549 206 l 665 178 q 367 97 519 97 q 222 134 286 97 q 124 233 158 171 q 89 369 89 296 q 428 638 89 581 l 428 819 l -17 819 l -40 867 l -40 881 l 703 881 l 729 835 z "},"ठ":{"ha":761,"x_min":-40,"x_max":761,"o":"m 761 818 l 493 818 q 533 704 533 754 q 506 599 533 660 q 628 478 583 544 q 672 342 672 413 q 632 211 672 274 q 524 110 592 149 q 375 72 456 72 q 226 114 292 72 q 125 224 161 156 q 89 368 89 292 q 193 556 89 494 q 442 638 297 617 q 457 724 457 678 q 424 819 457 761 l -17 819 l -40 867 l -40 881 l 735 881 l 761 835 l 761 818 m 603 361 q 581 446 603 404 q 525 519 558 488 q 463 563 492 550 q 318 527 389 554 q 199 450 247 500 q 150 331 150 400 q 181 224 150 268 q 258 156 211 179 q 354 133 306 133 q 483 165 426 133 q 572 249 540 196 q 603 361 603 301 z "},"ड":{"ha":765,"x_min":-40,"x_max":765,"o":"m 765 835 l 765 819 l 622 819 l 622 578 l 318 578 q 238 544 263 578 q 214 458 214 511 q 242 395 214 425 q 301 365 271 365 q 363 372 332 365 q 439 393 393 379 q 515 414 485 407 q 575 421 546 421 q 647 390 613 421 q 703 313 682 360 q 724 222 724 267 q 665 77 724 133 q 499 21 606 21 q 276 76 378 21 q 51 264 175 131 l 89 300 q 283 133 192 182 q 464 83 374 83 q 596 125 538 83 q 654 244 654 167 q 638 318 654 286 q 604 360 621 350 q 535 353 565 360 q 458 331 506 346 q 396 311 424 318 q 338 304 368 304 q 245 333 290 304 q 172 406 200 361 q 144 494 144 450 q 185 599 144 558 q 286 639 225 639 l 547 639 l 547 819 l -17 819 l -40 867 l -40 881 l 739 881 l 765 835 z "},"ढ":{"ha":732,"x_min":-40,"x_max":732,"o":"m 354 581 q 189 528 243 581 q 135 382 135 476 q 172 256 135 313 q 262 162 208 199 q 364 111 315 125 q 327 176 342 139 q 313 253 313 214 q 337 344 313 306 q 399 401 361 382 q 475 421 438 421 q 566 394 524 421 q 634 322 608 368 q 660 221 660 276 q 623 126 660 167 q 532 65 586 86 q 428 43 478 43 q 261 91 344 43 q 124 224 178 139 q 69 414 69 308 q 136 580 69 521 q 335 639 203 639 l 478 639 l 478 819 l -17 819 l -40 867 l -40 881 l 704 881 l 732 835 l 732 819 l 553 819 l 553 578 l 354 578 l 354 581 m 504 364 q 446 347 476 364 q 394 295 415 329 q 374 215 374 261 q 383 162 374 190 q 413 108 393 133 q 544 151 490 111 q 599 249 599 190 q 569 331 599 300 q 504 363 540 363 l 504 364 z "},"ण":{"ha":1024,"x_min":-40,"x_max":1024,"o":"m 1024 819 l 860 819 l 860 -15 l 843 -15 l 783 18 l 785 819 l 538 819 l 538 463 q 510 363 538 408 q 439 292 483 318 q 344 267 394 267 q 269 285 304 267 q 188 344 233 304 q 129 483 129 394 l 129 819 l -17 819 l -40 867 l -40 881 l 997 881 l 1024 835 l 1024 819 m 463 819 l 204 819 l 204 463 q 239 360 204 385 q 335 336 274 336 q 429 385 396 336 q 463 489 463 433 l 463 819 z "},"त":{"ha":797,"x_min":-40,"x_max":797,"o":"m 797 819 l 636 819 l 636 -15 l 619 -15 l 560 18 l 561 528 l 354 528 q 211 490 257 528 q 165 374 165 451 q 216 206 165 296 q 356 29 267 117 l 329 1 q 96 407 96 222 q 319 589 96 589 l 561 589 l 561 819 l -17 819 l -40 867 l -40 881 l 771 881 l 797 835 l 797 819 z "},"थ":{"ha":897,"x_min":69,"x_max":899,"o":"m 899 833 l 899 818 l 738 818 l 738 -17 l 721 -17 l 661 17 l 663 281 l 660 282 q 428 192 538 192 q 258 252 325 192 q 150 424 192 313 q 296 493 240 446 q 131 603 193 539 q 69 750 69 667 q 111 863 69 822 q 214 903 153 903 q 329 876 272 903 q 422 796 386 849 q 458 672 458 743 q 393 500 458 576 q 232 375 328 424 q 290 296 247 329 q 397 263 333 263 q 538 296 465 263 q 661 379 611 329 l 661 819 l 528 819 l 503 867 l 503 881 l 869 881 l 899 833 m 140 731 q 199 622 140 674 q 342 540 258 571 q 390 699 390 607 q 349 791 389 750 q 243 832 308 832 q 169 806 197 832 q 140 732 140 781 l 140 731 z "},"द":{"ha":746,"x_min":-40,"x_max":746,"o":"m 746 835 l 746 819 l 547 819 l 547 578 l 372 578 q 206 523 261 578 q 151 374 151 468 q 194 250 151 297 q 294 183 236 203 q 403 163 353 163 q 497 172 458 163 l 438 314 q 487 347 461 338 q 533 357 513 357 q 611 325 583 357 q 639 247 639 293 q 569 135 639 176 l 688 -87 l 622 -119 l 524 113 q 400 93 468 93 q 254 128 326 93 q 136 233 182 164 q 90 396 90 301 q 156 576 90 514 q 354 639 222 639 l 472 639 l 472 819 l -17 819 l -40 867 l -40 881 l 719 881 l 746 835 z "},"ध":{"ha":875,"x_min":69,"x_max":875,"o":"m 872 819 l 711 819 l 711 -15 l 693 -15 l 635 18 l 635 306 l 633 307 q 511 231 569 258 q 382 204 453 204 q 285 223 325 204 q 206 283 244 242 q 160 407 160 332 q 176 476 160 443 q 218 533 192 508 q 110 644 151 581 q 69 779 69 708 q 110 884 69 847 q 213 921 151 921 q 325 883 267 921 q 381 833 360 861 q 401 782 403 806 q 387 753 400 767 q 344 740 374 740 q 310 747 321 740 l 310 831 q 242 851 286 851 q 163 829 194 851 q 131 760 131 807 q 176 644 131 700 q 269 568 221 588 q 349 589 311 589 q 396 585 368 589 q 436 576 424 581 l 461 524 l 457 511 q 390 519 431 519 q 272 477 321 519 q 224 371 224 435 q 263 299 224 324 q 356 274 303 274 q 503 306 436 274 q 639 397 569 339 l 639 819 l 506 819 l 481 867 l 481 881 l 847 881 l 875 835 l 872 819 z "},"न":{"ha":775,"x_min":-40,"x_max":775,"o":"m 775 835 l 775 819 l 614 819 l 614 -15 l 597 -15 l 538 18 l 539 463 l 217 461 l 238 321 q 199 315 225 315 q 142 328 174 315 q 87 370 110 342 q 64 440 64 399 q 194 531 64 531 q 539 521 299 531 l 539 819 l -17 819 l -40 867 l -40 881 l 749 881 l 775 835 z "},"ऩ":{"ha":775,"x_min":-40,"x_max":775,"o":"m 775 835 l 775 819 l 614 819 l 614 -15 l 597 -15 l 538 18 l 539 463 l 217 461 l 238 321 q 199 315 225 315 q 142 328 174 315 q 87 370 110 342 q 64 440 64 399 q 194 531 64 531 q 539 521 299 531 l 539 819 l -17 819 l -40 867 l -40 881 l 749 881 l 775 835 m 296 185 l 383 97 l 296 10 l 208 97 l 296 185 z "},"प":{"ha":754,"x_min":-40,"x_max":754,"o":"m 754 835 l 754 819 l 593 819 l 593 -15 l 576 -15 l 517 18 l 517 336 l 514 336 q 433 294 474 310 q 343 278 392 278 q 261 292 297 278 q 183 347 225 306 q 144 403 157 374 q 131 489 131 433 l 131 819 l -17 819 l -40 867 l -40 881 l 728 881 l 754 835 m 335 347 q 428 367 385 347 q 518 421 471 386 l 518 819 l 206 819 l 206 488 q 333 347 206 347 l 335 347 z "},"फ":{"ha":1093,"x_min":-40,"x_max":1093,"o":"m 592 818 l 592 501 q 808 619 714 619 q 917 588 868 619 q 992 500 965 557 q 1019 368 1019 443 q 914 114 1019 268 l 854 175 q 923 278 889 215 q 957 404 957 340 q 919 508 957 467 q 829 550 882 550 q 722 515 778 550 q 593 408 665 481 l 593 -15 l 576 -15 l 517 18 l 517 336 l 514 336 q 433 294 472 310 q 343 278 393 278 q 262 292 299 278 q 183 347 225 307 q 144 403 157 374 q 131 489 131 433 l 131 819 l -17 819 l -40 867 l -40 881 l 1067 881 l 1093 835 l 1093 819 l 592 818 m 332 346 q 427 367 385 346 q 515 424 469 388 l 517 818 l 204 818 l 204 486 q 332 346 204 346 z "},"ब":{"ha":875,"x_min":-40,"x_max":874,"o":"m 874 833 l 874 818 l 710 818 l 710 -17 l 694 -17 l 638 14 l 639 296 l 636 297 q 499 197 576 238 q 351 157 422 157 q 226 183 286 157 q 129 262 167 210 q 92 389 92 314 q 130 526 92 469 q 226 612 168 583 q 344 640 285 640 q 638 482 521 640 l 640 482 l 640 819 l -17 819 l -40 867 l -40 881 l 850 881 l 874 833 m 485 272 q 636 393 575 321 q 571 472 615 431 q 473 541 526 513 q 371 569 419 569 q 297 558 333 569 l 486 272 l 485 272 m 321 224 q 439 250 378 224 l 250 536 q 178 460 204 507 q 151 360 151 413 q 199 265 151 304 q 321 225 246 225 l 321 224 z "},"भ":{"ha":944,"x_min":68,"x_max":946,"o":"m 946 835 l 946 819 l 783 819 l 783 -15 l 767 -15 l 708 18 l 708 349 l 394 349 q 318 239 388 239 q 265 256 290 239 q 222 304 239 274 q 204 386 204 340 q 206 410 204 401 l 319 410 l 319 526 q 133 625 197 569 q 68 765 68 681 q 106 864 68 825 q 197 903 144 903 q 333 856 272 903 q 394 699 394 810 l 394 410 l 707 410 l 708 819 l 488 819 l 463 867 l 463 881 l 918 881 l 946 835 m 139 743 q 321 588 139 650 l 321 717 q 295 809 321 776 q 226 842 269 842 q 164 815 189 842 q 139 743 139 788 z "},"म":{"ha":819,"x_min":-40,"x_max":821,"o":"m 821 835 l 821 819 l 658 819 l 658 -15 l 642 -15 l 583 18 l 583 372 l 247 372 q 171 263 240 263 q 120 278 144 263 q 79 321 96 293 q 57 410 57 358 q 58 433 57 425 l 172 433 l 172 819 l -15 819 l -40 867 l -40 881 l 793 881 l 821 835 m 585 433 l 585 819 l 249 819 l 249 433 l 585 433 z "},"य":{"ha":822,"x_min":-40,"x_max":822,"o":"m 822 819 l 661 819 l 661 -15 l 644 -15 l 586 18 l 586 274 l 582 276 q 476 217 533 242 q 360 193 418 193 q 183 261 251 193 q 69 458 114 329 q 210 531 149 482 q 271 639 271 581 q 233 725 271 681 q 138 819 196 769 l -17 819 l -40 867 l -40 881 l 797 881 l 822 835 l 822 819 m 331 263 q 467 294 396 263 q 586 371 538 325 l 588 819 l 225 819 l 225 818 q 310 719 279 764 q 340 611 340 674 q 309 527 340 568 q 234 456 278 486 q 153 410 190 425 q 181 344 158 378 q 243 286 204 310 q 331 263 282 263 z "},"र":{"ha":510,"x_min":-40,"x_max":510,"o":"m 510 819 l 304 819 q 322 688 315 758 q 328 572 328 617 q 292 434 328 492 q 199 328 257 376 l 490 19 l 436 -21 l 182 269 q 113 367 133 325 q 93 449 93 410 q 110 490 93 471 q 147 517 128 510 l 214 458 q 248 532 238 496 q 258 611 258 568 q 252 715 258 656 q 236 819 246 775 l -17 819 l -40 867 l -40 881 l 485 881 l 510 835 l 510 819 z "},"ऱ":{"ha":517,"x_min":-40,"x_max":517,"o":"m 517 819 l 304 819 q 322 688 315 758 q 328 572 328 617 q 292 434 328 492 q 199 328 257 376 l 490 19 l 436 -21 l 182 269 q 113 367 133 325 q 93 449 93 410 q 110 490 93 471 q 147 517 128 510 l 214 458 q 248 532 238 496 q 258 611 258 568 q 252 715 258 656 q 236 819 246 775 l -17 819 l -40 867 l -40 881 l 492 881 l 517 835 l 517 819 m 139 131 l 226 43 l 139 -44 l 51 43 l 139 131 z "},"ल":{"ha":969,"x_min":-40,"x_max":969,"o":"m 969 819 l 808 819 l 808 -15 l 792 -15 l 732 18 l 733 492 q 665 528 697 528 q 550 441 599 528 q 478 247 501 354 l 396 294 q 458 458 417 388 q 301 546 379 546 q 192 498 233 546 q 151 372 151 450 q 358 0 151 188 l 324 -36 q 150 172 218 63 q 82 419 82 282 q 108 519 82 474 q 176 590 133 564 q 269 615 219 615 q 489 503 382 615 q 639 589 557 589 q 733 544 686 589 l 733 819 l -17 819 l -40 867 l -40 881 l 943 881 l 969 835 l 969 819 z "},"ळ":{"ha":1057,"x_min":-40,"x_max":1057,"o":"m 814 821 l 814 642 q 938 551 893 622 q 982 365 982 481 q 955 255 982 303 q 884 181 928 207 q 792 156 840 156 q 650 198 714 156 q 539 296 586 240 q 444 173 494 214 q 319 132 394 132 q 144 197 210 132 q 79 390 79 263 q 109 519 79 464 q 188 604 139 575 q 289 633 236 633 q 538 490 419 633 q 626 604 581 567 q 739 647 672 642 l 739 819 l -17 819 l -40 867 l -40 881 l 1031 881 l 1057 835 l 1057 819 l 814 821 m 918 410 q 880 529 918 481 q 774 578 842 578 q 683 548 721 578 q 619 473 644 518 q 561 350 594 428 q 652 263 599 300 q 754 226 706 226 q 874 281 828 226 q 919 411 919 335 l 918 410 m 286 201 q 384 231 344 201 q 451 308 424 261 q 511 436 478 356 q 420 528 471 493 q 324 564 369 564 q 224 533 267 564 q 160 451 182 501 q 139 346 139 400 q 178 242 139 282 q 288 201 217 201 l 286 201 z "},"ऴ":{"ha":1057,"x_min":-40,"x_max":1057,"o":"m 814 821 l 814 642 q 938 551 893 622 q 982 365 982 481 q 955 255 982 303 q 884 181 928 207 q 792 156 840 156 q 650 198 714 156 q 539 296 586 240 q 444 173 494 214 q 319 132 394 132 q 144 197 210 132 q 79 390 79 263 q 109 519 79 464 q 188 604 139 575 q 289 633 236 633 q 538 490 419 633 q 626 604 581 567 q 739 647 672 642 l 739 819 l -17 819 l -40 867 l -40 881 l 1031 881 l 1057 835 l 1057 819 l 814 821 m 918 410 q 880 529 918 481 q 774 578 842 578 q 683 548 721 578 q 619 473 644 518 q 561 350 594 428 q 652 263 599 300 q 754 226 706 226 q 874 281 828 226 q 919 411 919 335 l 918 410 m 286 201 q 384 231 344 201 q 451 308 424 261 q 511 436 478 356 q 420 528 471 493 q 324 564 369 564 q 224 533 267 564 q 160 451 182 501 q 139 346 139 400 q 178 242 139 282 q 288 201 217 201 l 286 201 m 553 115 l 640 28 l 553 -60 l 465 28 l 553 115 z "},"व":{"ha":869,"x_min":-40,"x_max":869,"o":"m 869 835 l 869 819 l 708 819 l 708 -15 l 693 -15 l 633 18 l 635 293 l 633 293 q 497 196 574 235 q 351 157 421 157 q 226 183 286 157 q 129 262 167 210 q 92 389 92 314 q 130 526 92 469 q 226 612 168 583 q 344 640 285 640 q 512 591 438 640 q 633 478 586 542 l 635 478 l 635 819 l -17 819 l -40 867 l -40 881 l 843 881 l 869 835 m 325 225 q 491 274 404 225 q 636 389 578 322 l 636 390 q 568 471 613 429 q 472 542 524 513 q 372 571 419 571 q 258 541 308 571 q 181 463 208 511 q 154 361 154 415 q 201 266 154 306 q 324 226 249 226 l 325 225 z "},"श":{"ha":969,"x_min":-40,"x_max":969,"o":"m 808 819 l 808 -15 l 792 -15 l 732 18 l 733 819 l 467 819 q 530 735 507 785 q 553 628 553 686 q 509 474 553 553 q 397 337 465 396 q 258 260 328 278 l 414 25 l 347 -21 l 207 251 l 204 251 q 117 264 154 251 q 59 296 79 276 q 39 333 39 315 q 66 398 39 374 q 132 422 93 422 q 150 419 144 422 l 221 314 q 418 460 346 360 q 233 571 306 503 q 161 728 161 639 q 186 819 161 779 l -17 819 l -40 867 l -40 881 l 943 881 l 969 835 l 969 819 l 808 819 m 483 656 q 464 733 483 696 q 410 795 444 771 q 333 819 375 819 q 261 791 292 819 q 231 711 231 763 q 299 593 231 650 q 451 514 368 536 q 483 656 483 581 z "},"ष":{"ha":779,"x_min":-40,"x_max":779,"o":"m 779 835 l 779 819 l 617 819 l 617 -15 l 600 -15 l 542 18 l 542 301 l 539 301 q 447 251 493 272 q 356 231 401 231 q 267 246 307 231 q 183 300 228 261 q 143 358 156 328 q 131 444 131 388 l 131 819 l -15 819 l -40 867 l -40 881 l 751 881 l 779 835 m 206 819 l 543 461 l 543 819 l 206 819 m 340 301 q 439 326 385 301 q 542 389 493 351 l 206 749 l 206 443 q 242 337 206 374 q 342 300 278 300 l 340 301 z "},"स":{"ha":876,"x_min":-40,"x_max":876,"o":"m 876 836 l 876 821 l 715 821 l 715 -14 l 697 -14 l 639 19 l 639 353 l 636 353 q 489 310 565 310 q 397 324 438 310 q 334 354 357 339 q 271 400 311 369 l 269 400 q 199 328 243 365 l 463 19 l 408 -21 l 182 269 q 112 370 131 336 q 93 449 93 404 q 110 490 93 471 q 147 517 128 510 l 214 458 q 248 532 238 496 q 258 611 258 568 q 252 715 258 656 q 236 819 246 775 l -17 819 l -40 867 l -40 881 l 851 881 l 876 836 m 469 381 q 640 439 556 381 l 640 822 l 304 822 q 322 690 315 761 q 328 575 328 619 q 297 444 328 506 q 376 397 336 414 q 468 379 415 379 l 469 381 z "},"ह":{"ha":756,"x_min":-40,"x_max":756,"o":"m 244 593 q 181 567 200 593 q 161 508 161 540 q 178 447 161 482 q 232 381 196 413 q 392 442 296 442 q 518 409 456 442 q 619 326 581 376 q 658 222 658 275 q 628 122 658 169 q 553 39 597 75 l 493 99 l 493 101 q 565 173 540 136 q 589 257 589 210 q 567 315 589 286 q 508 363 546 344 q 422 381 469 381 q 338 359 381 381 q 268 295 296 338 q 240 196 240 253 q 312 35 240 107 q 543 -132 383 -36 l 519 -168 q 263 9 360 -83 q 165 221 165 101 q 199 338 165 283 q 123 442 154 382 q 92 544 92 501 q 125 626 92 596 q 215 656 158 656 l 493 656 l 493 819 l -17 819 l -40 867 l -40 881 l 729 881 l 756 835 l 756 819 l 568 819 l 568 594 l 244 594 l 244 593 z "},"क़":{"ha":1136,"x_min":-40,"x_max":1136,"o":"m 0 0 m 632 818 l 632 463 q 737 546 681 511 q 844 581 793 581 q 953 549 906 581 q 1029 461 1001 518 q 1057 329 1057 404 q 951 75 1057 229 l 892 136 q 960 238 926 174 q 994 365 994 301 q 956 469 994 428 q 867 511 918 511 q 758 476 814 511 q 631 369 701 442 l 631 -17 l 614 -17 l 553 17 l 560 303 l 558 304 q 507 261 551 299 q 410 203 463 224 q 301 182 357 182 q 190 207 242 182 q 108 283 139 232 q 76 406 76 333 q 103 510 76 463 q 179 587 131 558 q 292 615 228 615 q 438 575 368 615 q 557 481 507 535 l 558 819 l -17 819 l -40 867 l -40 881 l 1108 881 l 1136 835 l 1136 819 l 632 818 m 276 250 q 419 289 350 250 q 558 392 489 328 l 558 394 q 447 502 510 460 q 324 544 385 544 q 234 523 276 544 q 166 463 192 501 q 140 375 140 425 q 178 285 140 319 q 275 250 217 250 l 276 250 m 376 0 l 289 -87 l 201 0 l 289 88 l 376 0 z "},"ख़":{"ha":1094,"x_min":-40,"x_max":1119,"o":"m 0 0 m 1119 835 l 1119 819 l 938 819 l 938 -15 l 921 -15 l 861 18 l 864 129 q 715 67 799 93 q 551 40 632 40 q 363 103 453 40 q 183 268 274 165 q 113 367 133 325 q 93 449 93 408 q 110 490 93 471 q 147 517 128 510 l 214 458 q 248 532 238 496 q 258 611 258 568 q 252 715 258 656 q 236 819 246 775 l -15 819 l -40 867 l -40 881 l 1094 881 l 1119 835 m 197 329 q 353 181 258 251 q 550 111 447 111 q 864 208 711 111 l 863 368 q 746 285 801 317 q 632 253 690 253 q 514 281 563 253 q 441 353 465 308 q 417 449 417 397 q 444 560 417 511 q 517 635 471 608 q 619 663 564 663 q 749 628 686 663 q 857 546 811 593 l 863 546 l 863 819 l 304 819 q 322 688 315 758 q 328 572 328 617 q 295 435 328 488 q 199 328 263 382 l 197 329 m 863 460 q 759 558 817 521 q 643 594 701 594 q 525 545 571 594 q 479 422 479 496 q 510 352 479 381 q 604 324 542 324 q 734 363 663 324 q 861 458 806 401 l 861 461 l 863 460 m 279 0 l 192 -87 l 104 0 l 192 88 l 279 0 z "},"ग़":{"ha":799,"x_min":-40,"x_max":799,"o":"m 0 0 m 799 835 l 799 819 l 638 819 l 638 -15 l 621 -15 l 561 18 l 563 819 l 279 819 q 294 426 294 557 q 201 297 294 297 q 130 320 158 297 q 88 375 101 343 q 75 432 75 407 q 81 471 75 456 l 213 450 l 213 819 l -17 819 l -40 867 l -40 881 l 772 881 l 799 835 m 307 97 l 219 10 l 132 97 l 219 185 l 307 97 z "},"ज़":{"ha":985,"x_min":-40,"x_max":985,"o":"m 0 0 m 985 819 l 824 819 l 824 -15 l 807 -15 l 747 18 l 749 531 l 432 531 q 547 408 501 475 q 593 275 593 340 q 558 188 593 224 q 465 153 522 153 q 276 220 358 153 q 144 370 194 288 q 39 568 93 453 l 81 594 q 439 222 267 222 q 524 303 524 222 q 459 435 524 368 q 319 544 394 501 l 339 590 l 749 590 l 749 819 l -17 819 l -40 867 l -40 881 l 958 881 l 985 835 l 985 819 m 240 42 l 153 -46 l 65 42 l 153 129 l 240 42 z "},"ड़":{"ha":765,"x_min":-40,"x_max":765,"o":"m 0 0 m 765 835 l 765 819 l 622 819 l 622 578 l 318 578 q 238 544 263 578 q 214 458 214 511 q 242 395 214 425 q 301 365 271 365 q 363 372 332 365 q 439 393 393 379 q 515 414 485 407 q 575 421 546 421 q 647 390 613 421 q 703 313 682 360 q 724 222 724 267 q 665 77 724 133 q 499 21 606 21 q 276 76 378 21 q 51 264 175 131 l 89 300 q 283 133 192 182 q 464 83 374 83 q 596 125 538 83 q 654 244 654 167 q 638 318 654 286 q 604 360 621 350 q 535 353 565 360 q 458 331 506 346 q 396 311 424 318 q 338 304 368 304 q 245 333 290 304 q 172 406 200 361 q 144 494 144 450 q 185 599 144 558 q 286 639 225 639 l 547 639 l 547 819 l -17 819 l -40 867 l -40 881 l 739 881 l 765 835 m 571 -181 l 483 -268 l 396 -181 l 483 -93 l 571 -181 z "},"ढ़":{"ha":732,"x_min":-40,"x_max":732,"o":"m 0 0 m 354 581 q 189 528 243 581 q 135 382 135 476 q 172 256 135 313 q 262 162 208 199 q 364 111 315 125 q 327 176 342 139 q 313 253 313 214 q 337 344 313 306 q 399 401 361 382 q 475 421 438 421 q 566 394 524 421 q 634 322 608 368 q 660 221 660 276 q 623 126 660 167 q 532 65 586 86 q 428 43 478 43 q 261 91 344 43 q 124 224 178 139 q 69 414 69 308 q 136 580 69 521 q 335 639 203 639 l 478 639 l 478 819 l -17 819 l -40 867 l -40 881 l 704 881 l 732 835 l 732 819 l 553 819 l 553 578 l 354 578 l 354 581 m 504 364 q 446 347 476 364 q 394 295 415 329 q 374 215 374 261 q 383 162 374 190 q 413 108 393 133 q 544 151 490 111 q 599 249 599 190 q 569 331 599 300 q 504 363 540 363 l 504 364 m 496 -139 l 408 -226 l 321 -139 l 408 -51 l 496 -139 z "},"फ़":{"ha":1093,"x_min":-40,"x_max":1093,"o":"m 0 0 m 592 818 l 592 501 q 808 619 714 619 q 917 588 868 619 q 992 500 965 557 q 1019 368 1019 443 q 914 114 1019 268 l 854 175 q 923 278 889 215 q 957 404 957 340 q 919 508 957 467 q 829 550 882 550 q 722 515 778 550 q 593 408 665 481 l 593 -15 l 576 -15 l 517 18 l 517 336 l 514 336 q 433 294 472 310 q 343 278 393 278 q 262 292 299 278 q 183 347 225 307 q 144 403 157 374 q 131 489 131 433 l 131 819 l -17 819 l -40 867 l -40 881 l 1067 881 l 1093 835 l 1093 819 l 592 818 m 332 346 q 427 367 385 346 q 515 424 469 388 l 517 818 l 204 818 l 204 486 q 332 346 204 346 m 286 97 l 199 10 l 111 97 l 199 185 l 286 97 z "},"य़":{"ha":822,"x_min":-40,"x_max":822,"o":"m 0 0 m 822 819 l 661 819 l 661 -15 l 644 -15 l 586 18 l 586 274 l 582 276 q 476 217 533 242 q 360 193 418 193 q 183 261 251 193 q 69 458 114 329 q 210 531 149 482 q 271 639 271 581 q 233 725 271 681 q 138 819 196 769 l -17 819 l -40 867 l -40 881 l 797 881 l 822 835 l 822 819 m 331 263 q 467 294 396 263 q 586 371 538 325 l 588 819 l 225 819 l 225 818 q 310 719 279 764 q 340 611 340 674 q 309 527 340 568 q 234 456 278 486 q 153 410 190 425 q 181 344 158 378 q 243 286 204 310 q 331 263 282 263 m 189 104 l 101 17 l 14 104 l 101 192 l 189 104 z "},"ॹ":{"ha":985,"x_min":-40,"x_max":985,"o":"m 985 819 l 824 819 l 824 -15 l 807 -15 l 747 18 l 749 531 l 432 531 q 547 408 501 475 q 593 275 593 340 q 558 188 593 224 q 465 153 522 153 q 276 220 358 153 q 144 370 194 288 q 39 568 93 453 l 81 594 q 439 222 267 222 q 524 303 524 222 q 459 435 524 368 q 319 544 394 501 l 339 590 l 749 590 l 749 819 l -17 819 l -40 867 l -40 881 l 958 881 l 985 835 l 985 819 m 371 -44 l 283 -132 l 196 -44 l 283 43 l 371 -44 m 546 43 l 633 -44 l 546 -132 l 458 -44 l 546 43 m 415 -90 l 503 -178 l 415 -265 l 328 -178 l 415 -90 z "},"ॺ":{"ha":822,"x_min":-40,"x_max":822,"o":"m 822 835 l 822 819 l 661 819 l 661 -15 l 644 -15 l 586 18 l 586 274 l 582 276 q 476 217 533 242 q 360 193 418 193 q 183 261 251 193 q 69 458 114 329 q 210 531 149 482 q 271 639 271 581 q 233 725 271 681 q 138 819 196 769 l -17 819 l -40 867 l -40 881 l 797 881 l 822 835 m 225 819 q 279 761 261 783 l 586 406 l 588 819 l 225 819 m 331 264 q 454 289 390 264 q 567 354 518 314 l 340 617 l 340 613 q 309 528 340 569 q 234 457 278 488 q 153 411 190 426 q 181 345 158 379 q 243 288 204 311 q 331 264 282 264 z "},"ॻ":{"ha":799,"x_min":-40,"x_max":799,"o":"m 799 835 l 799 819 l 638 819 l 638 -46 l 69 -46 l 46 1 l 46 15 l 561 15 l 563 819 l 279 819 q 294 426 294 557 q 201 297 294 297 q 130 320 158 297 q 88 375 101 343 q 75 432 75 407 q 81 471 75 456 l 213 450 l 213 819 l -17 819 l -40 867 l -40 881 l 772 881 l 799 835 z "},"ॼ":{"ha":985,"x_min":-40,"x_max":985,"o":"m 985 835 l 985 819 l 824 819 l 824 -46 l 69 -46 l 46 1 l 46 15 l 747 15 l 749 531 l 432 531 q 547 408 501 475 q 593 275 593 340 q 558 188 593 224 q 465 153 522 153 q 276 220 358 153 q 144 370 194 288 q 39 568 93 453 l 81 594 q 439 222 267 222 q 524 303 524 222 q 459 435 524 368 q 319 544 394 501 l 339 590 l 749 590 l 749 819 l -17 819 l -40 867 l -40 881 l 958 881 l 985 835 z "},"ॾ":{"ha":765,"x_min":-40,"x_max":765,"o":"m 765 835 l 765 819 l 622 819 l 622 578 l 318 578 q 238 544 263 578 q 214 458 214 511 q 242 395 214 425 q 301 365 271 365 q 363 372 332 365 q 439 393 393 379 q 515 414 485 407 q 575 421 546 421 q 647 390 613 421 q 703 313 682 360 q 724 222 724 267 q 665 77 724 133 q 499 21 606 21 q 276 76 378 21 q 51 264 175 131 l 89 300 q 283 133 192 182 q 464 83 374 83 q 596 125 538 83 q 654 244 654 167 q 638 318 654 286 q 604 360 621 350 q 535 353 565 360 q 458 331 506 346 q 396 311 424 318 q 338 304 368 304 q 245 333 290 304 q 172 406 200 361 q 144 494 144 450 q 185 599 144 558 q 286 639 225 639 l 547 639 l 547 819 l -17 819 l -40 867 l -40 881 l 739 881 l 765 835 m 719 -199 l 719 -214 l 72 -214 l 49 -167 l 49 -153 l 693 -153 l 719 -199 z "},"ॿ":{"ha":875,"x_min":-40,"x_max":875,"o":"m 875 835 l 875 819 l 711 819 l 711 -46 l 69 -46 l 46 1 l 46 15 l 639 15 l 640 297 l 638 299 q 500 197 578 238 q 351 157 422 157 q 226 183 286 157 q 129 262 167 210 q 92 389 92 314 q 130 526 92 469 q 226 612 168 583 q 344 640 285 640 q 638 482 517 640 l 640 482 l 640 819 l -17 819 l -40 867 l -40 881 l 850 881 l 875 835 m 372 571 q 300 560 336 571 l 489 274 q 638 394 581 325 l 638 396 q 572 474 617 432 q 474 543 528 515 q 372 571 421 571 m 253 538 q 181 462 207 510 q 154 361 154 414 q 201 266 154 306 q 324 226 249 226 q 442 251 378 226 l 253 538 z "},"⁄":{"ha":600,"x_min":-7,"x_max":554,"o":"m 554 1258 l 63 -232 l -7 -218 l 488 1275 l 554 1258 z "},"½":{"ha":1781,"x_min":154,"x_max":1626,"o":"m 1099 1258 l 607 -232 l 538 -218 l 1032 1275 l 1099 1258 m 364 547 l 364 1049 q 164 982 236 1000 l 154 1036 q 310 1101 215 1054 q 429 1169 404 1147 l 463 1158 l 463 549 l 649 533 l 649 488 l 167 488 l 167 533 l 364 547 m 982 58 q 1290 257 1146 142 q 1433 465 1433 372 q 1387 572 1433 535 q 1267 608 1340 608 q 1130 574 1201 608 q 1018 485 1058 539 l 979 531 q 1050 603 1003 568 q 1160 661 1097 639 q 1288 683 1222 683 q 1434 656 1376 683 q 1517 585 1492 628 q 1543 496 1543 542 q 1429 275 1542 378 q 1107 61 1317 172 l 1501 82 l 1574 199 l 1626 176 l 1586 0 l 1004 0 l 982 58 z "},"¼":{"ha":1781,"x_min":154,"x_max":1640,"o":"m 1110 1256 l 618 -232 l 549 -212 l 1042 1275 l 1110 1256 m 364 547 l 364 1049 q 164 982 236 1000 l 154 1036 q 310 1101 215 1054 q 429 1169 404 1147 l 463 1158 l 463 549 l 649 533 l 649 488 l 167 488 l 167 533 l 364 547 m 1361 757 l 1417 707 l 1063 226 l 1031 181 l 1356 199 l 1357 396 l 1447 408 l 1447 203 l 1638 214 l 1640 126 l 1447 126 l 1447 -122 l 1354 -122 l 1356 126 l 967 126 l 940 176 l 1325 756 l 1361 757 z "},"¾":{"ha":1818,"x_min":129,"x_max":1639,"o":"m 1114 1258 l 622 -232 l 553 -218 l 1047 1275 l 1114 1258 m 154 525 q 249 500 196 508 q 346 492 301 492 q 508 538 450 493 q 565 654 565 582 q 524 745 565 713 q 406 778 482 778 q 375 776 386 778 l 261 753 l 261 817 q 443 881 375 835 q 511 997 511 928 q 473 1072 511 1047 q 375 1096 435 1096 q 255 1074 322 1096 q 156 1026 188 1053 l 129 1074 q 249 1135 171 1107 q 406 1163 326 1163 q 558 1117 503 1163 q 613 1003 613 1072 q 571 896 613 943 q 449 824 529 849 q 576 800 528 828 q 645 731 625 772 q 665 649 665 690 q 626 533 665 583 q 516 455 588 483 q 350 426 444 426 q 254 436 307 426 q 154 465 201 446 l 154 525 m 1361 757 l 1415 707 l 1063 226 l 1029 181 l 1356 199 l 1357 396 l 1447 408 l 1447 203 l 1638 214 l 1639 126 l 1447 126 l 1447 -122 l 1354 -122 l 1356 126 l 967 126 l 940 176 l 1324 756 l 1361 757 z "},"¹":{"ha":736,"x_min":133,"x_max":628,"o":"m 343 547 l 343 1049 q 144 982 213 999 l 133 1036 q 289 1101 194 1054 q 408 1169 383 1147 l 443 1158 l 442 549 l 628 533 l 628 488 l 146 488 l 146 533 l 343 547 z "},"²":{"ha":851,"x_min":97,"x_max":746,"o":"m 100 547 q 407 746 264 631 q 550 956 550 861 q 504 1061 550 1025 q 385 1097 458 1097 q 249 1063 319 1097 q 136 974 178 1029 l 97 1019 q 168 1092 121 1057 q 278 1150 215 1128 q 406 1172 340 1172 q 550 1145 493 1172 q 634 1076 607 1118 q 661 990 661 1035 q 549 766 661 869 q 224 550 436 663 l 619 571 l 692 688 l 746 665 l 704 489 l 122 489 l 100 547 z "},"³":{"ha":776,"x_min":129,"x_max":665,"o":"m 154 525 q 249 500 196 508 q 346 492 301 492 q 508 538 450 493 q 565 654 565 582 q 524 745 565 713 q 406 778 482 778 q 375 776 386 778 l 261 753 l 261 817 q 443 881 375 835 q 511 997 511 928 q 473 1072 511 1047 q 375 1096 435 1096 q 255 1074 322 1096 q 156 1026 188 1053 l 129 1074 q 249 1135 171 1107 q 406 1163 326 1163 q 558 1117 503 1163 q 613 1003 613 1072 q 571 896 613 943 q 449 824 529 849 q 576 800 528 828 q 645 731 625 772 q 665 649 665 690 q 626 533 665 583 q 516 455 588 483 q 350 426 444 426 q 254 436 307 426 q 154 465 201 446 l 154 525 z "},"०":{"ha":876,"x_min":167,"x_max":710,"o":"m 167 392 q 205 540 167 472 q 307 645 243 607 q 444 683 371 683 q 575 644 514 683 q 673 537 636 606 q 710 382 710 468 q 670 228 710 296 q 567 122 631 160 q 432 85 503 85 q 297 126 357 85 q 201 237 236 167 q 167 392 167 307 m 236 426 q 272 280 236 342 q 358 186 307 218 q 458 154 410 154 q 547 178 504 154 q 615 247 589 203 q 640 343 640 290 q 608 476 640 414 q 525 576 576 539 q 418 614 474 614 q 329 590 371 614 q 262 522 288 565 q 236 426 236 479 z "},"१":{"ha":876,"x_min":222,"x_max":704,"o":"m 421 929 q 587 866 521 929 q 653 699 653 803 q 626 585 653 640 q 567 486 600 529 q 472 369 535 443 l 375 256 l 575 50 q 676 -66 647 -25 q 704 -151 704 -107 q 680 -208 704 -186 q 626 -229 656 -229 q 564 -206 590 -229 q 524 -151 538 -183 l 524 -149 l 599 -86 q 442 83 532 -11 q 272 253 351 178 l 272 254 l 454 465 q 222 725 222 567 q 249 828 222 782 q 322 902 276 875 q 421 929 367 929 m 444 868 q 337 820 382 868 q 292 707 292 772 q 353 594 292 647 q 493 515 415 542 q 583 724 583 642 q 566 792 583 758 q 517 847 549 825 q 444 868 485 868 z "},"२":{"ha":876,"x_min":161,"x_max":708,"o":"m 414 907 q 574 866 507 907 q 674 756 640 825 q 708 601 708 686 q 663 445 708 519 q 544 322 618 371 q 385 268 469 274 l 644 -126 l 564 -169 l 321 271 q 211 299 261 279 q 161 349 161 318 q 189 414 161 390 q 254 438 217 438 q 272 435 267 438 l 343 329 q 556 421 472 346 q 639 636 639 496 q 615 734 639 688 q 547 809 592 781 q 443 838 503 838 q 211 756 363 838 l 168 828 q 294 883 228 860 q 414 907 360 907 z "},"३":{"ha":876,"x_min":131,"x_max":779,"o":"m 779 319 q 731 201 779 263 q 608 95 683 139 q 457 44 533 51 l 588 -153 l 519 -186 l 400 47 q 285 76 338 57 q 233 126 233 94 q 261 192 233 168 q 326 215 289 215 q 344 213 339 215 l 415 107 q 560 160 492 121 q 669 251 628 199 q 710 353 710 303 q 662 452 710 415 q 546 489 614 489 l 515 489 q 397 449 461 463 q 282 435 333 435 q 247 458 263 435 q 232 508 232 482 q 269 532 232 518 q 368 556 306 546 q 504 565 431 565 q 559 622 540 590 q 578 696 578 653 q 556 761 578 728 q 497 815 533 794 q 421 836 460 836 q 312 823 372 836 q 176 789 251 810 l 131 878 q 389 906 275 906 q 525 867 467 906 q 615 772 583 829 q 647 661 647 714 q 597 547 647 597 q 738 460 696 515 q 779 321 779 404 l 779 319 z "},"४":{"ha":876,"x_min":39,"x_max":825,"o":"m 489 536 q 645 369 599 436 q 692 235 692 301 q 656 133 692 176 q 563 67 619 90 q 451 44 507 44 q 281 97 346 44 q 215 249 215 150 q 255 374 215 311 q 396 539 294 438 q 273 641 336 594 q 110 757 210 688 q 39 806 76 778 l 99 875 q 183 803 126 849 q 440 582 335 675 l 536 675 q 792 926 686 819 l 825 846 l 713 746 q 593 639 651 693 q 490 538 535 585 l 489 536 m 415 104 q 512 125 465 104 q 587 183 558 146 q 615 268 615 221 q 578 356 615 311 q 467 469 542 400 l 446 489 q 318 328 351 383 q 285 219 285 274 q 323 138 285 171 q 417 104 361 104 l 415 104 z "},"५":{"ha":876,"x_min":172,"x_max":872,"o":"m 804 -171 l 610 238 q 523 187 569 206 q 433 168 476 168 q 247 228 322 168 q 172 394 172 288 q 210 618 172 482 q 301 878 249 754 l 389 811 q 284 564 326 683 q 242 368 242 444 q 279 271 242 314 q 378 228 317 228 q 475 253 422 228 q 572 321 528 279 l 510 450 q 583 474 543 474 q 667 447 632 474 q 703 382 703 421 q 650 275 703 332 l 872 -136 l 804 -171 z "},"६":{"ha":876,"x_min":78,"x_max":847,"o":"m 372 907 q 432 904 415 907 l 465 838 q 401 844 440 844 q 215 807 282 844 q 147 663 147 769 q 190 565 147 604 q 288 503 232 525 q 414 556 343 538 q 542 574 485 574 q 576 550 561 574 q 592 500 592 526 q 558 477 592 490 q 465 453 524 464 q 336 442 407 443 q 246 296 246 390 q 274 207 246 249 q 347 140 301 165 q 439 115 392 115 q 613 156 518 115 l 567 244 q 650 271 607 271 q 713 249 688 271 q 739 194 739 228 q 686 107 739 149 l 847 -136 l 779 -169 l 649 85 q 472 46 568 46 q 317 83 385 46 q 213 186 250 121 q 176 331 176 251 q 239 467 176 408 q 121 563 164 504 q 78 697 78 621 q 165 858 78 808 q 372 907 251 907 z "},"७":{"ha":876,"x_min":54,"x_max":835,"o":"m 108 890 q 203 434 138 610 q 350 182 268 258 q 518 106 432 106 q 701 199 644 106 q 760 440 757 292 q 687 404 721 415 q 614 393 653 393 q 429 464 497 393 q 363 656 363 533 q 387 755 363 706 q 453 835 411 804 q 543 867 494 867 q 631 853 594 867 q 701 814 668 840 q 803 642 771 753 q 835 410 835 532 q 791 207 835 292 q 678 79 747 122 q 533 36 608 36 q 307 135 407 36 q 142 423 207 235 q 54 874 76 611 l 108 890 m 581 806 q 476 753 519 806 q 432 622 432 701 q 474 505 432 556 q 599 454 517 454 q 681 472 636 454 q 757 522 725 490 q 697 726 746 647 q 581 806 649 806 z "},"८":{"ha":876,"x_min":119,"x_max":775,"o":"m 686 894 l 388 557 q 263 405 304 463 q 205 305 221 347 q 189 214 189 263 q 209 135 189 176 q 274 65 229 93 q 389 36 319 36 q 715 222 536 36 l 775 165 q 594 17 675 58 q 421 -25 514 -25 q 199 49 279 -25 q 119 244 119 124 q 144 362 119 300 q 249 514 169 424 l 653 975 l 686 894 z "},"९":{"ha":876,"x_min":88,"x_max":829,"o":"m 311 943 q 431 911 372 943 q 527 822 490 879 q 564 693 564 765 q 488 543 564 606 q 304 461 411 481 q 700 85 456 325 q 799 -27 769 17 q 829 -117 829 -71 q 805 -173 829 -151 q 751 -194 781 -194 q 689 -172 715 -194 q 649 -117 663 -149 l 649 -114 l 724 -51 q 549 135 639 44 q 279 396 460 226 q 163 513 201 469 q 106 603 125 556 q 88 713 88 650 q 119 826 88 774 q 203 911 151 879 q 311 943 256 943 m 349 874 q 251 847 293 874 q 187 780 210 821 q 164 697 164 739 q 179 608 164 647 q 238 524 194 569 q 373 567 314 535 q 463 640 432 599 q 494 718 494 682 q 452 828 493 782 q 349 874 411 874 z "},"*":{"ha":878,"x_min":111,"x_max":767,"o":"m 418 840 l 371 797 l 163 640 l 111 714 l 343 842 l 403 867 l 342 893 l 111 1018 l 161 1092 l 367 939 l 418 893 l 406 972 l 389 1211 l 482 1211 l 465 972 l 450 893 l 514 946 l 710 1090 l 767 1018 l 535 897 l 464 867 l 533 839 l 767 713 l 708 642 l 506 794 l 451 840 l 464 768 l 482 521 l 389 521 l 406 768 l 418 840 z "},"\\":{"ha":553,"x_min":21,"x_max":488,"o":"m 488 -246 l 394 -246 l 21 1085 l 114 1085 l 488 -246 z "},"·":{"ha":439,"x_min":161,"x_max":288,"o":"m 239 638 q 276 620 264 635 q 288 585 288 606 q 267 534 288 554 q 218 514 246 514 q 178 529 194 514 q 161 567 161 544 q 163 579 161 575 q 190 623 167 606 q 239 638 214 640 z "},"•":{"ha":571,"x_min":174,"x_max":399,"o":"m 282 386 q 206 421 238 386 q 176 501 174 456 q 214 583 181 550 q 292 617 247 617 q 368 583 338 617 q 397 501 399 550 q 360 420 393 454 q 282 386 326 386 z "},":":{"ha":479,"x_min":161,"x_max":288,"o":"m 239 667 q 276 650 264 664 q 288 615 288 636 q 286 601 288 606 q 262 559 282 575 q 217 543 242 543 q 177 558 193 543 q 161 596 161 574 q 163 608 161 604 q 190 653 167 636 q 239 667 214 669 m 232 117 q 274 102 260 117 q 288 65 288 88 q 286 51 288 56 q 259 6 282 22 q 208 -7 236 -10 q 174 11 188 -3 q 161 46 161 25 q 163 58 161 54 q 188 101 167 85 q 232 117 208 117 z "},",":{"ha":475,"x_min":119,"x_max":353,"o":"m 211 189 q 315 110 279 172 q 351 -19 351 47 q 290 -207 353 -126 q 143 -322 228 -287 l 119 -292 l 119 -276 q 183 -233 151 -265 q 236 -154 215 -200 q 257 -60 257 -108 q 227 44 257 1 q 157 93 197 88 l 157 118 l 211 189 z "},"…":{"ha":1438,"x_min":146,"x_max":1250,"o":"m 225 125 q 276 107 258 125 q 293 61 293 89 q 269 6 293 28 q 213 -15 244 -15 q 165 3 185 -15 q 146 50 146 21 q 171 103 146 81 q 225 125 196 125 m 704 125 q 755 107 738 125 q 772 61 772 89 q 748 6 772 28 q 692 -15 724 -15 q 644 3 664 -15 q 625 50 625 21 q 649 103 625 82 q 704 125 674 125 m 1183 125 q 1233 107 1217 125 q 1250 61 1250 89 q 1226 6 1250 28 q 1171 -15 1203 -15 q 1124 3 1143 -15 q 1104 50 1104 21 q 1129 103 1104 81 q 1183 125 1154 125 z "},"!":{"ha":479,"x_min":163,"x_max":310,"o":"m 261 308 l 199 308 l 168 1207 l 297 1207 l 261 308 m 243 125 q 293 107 276 125 q 310 61 310 89 q 286 6 310 28 q 231 -15 263 -15 q 183 3 203 -15 q 163 50 163 21 q 188 103 163 81 q 243 125 213 125 z "},"¡":{"ha":483,"x_min":168,"x_max":303,"o":"m 256 967 q 291 949 279 964 q 303 915 303 935 q 301 900 303 906 q 274 855 297 871 q 224 842 251 839 q 190 860 203 846 q 176 897 176 875 q 201 949 176 929 q 256 967 226 969 m 296 -269 l 168 -269 l 203 647 l 265 647 l 296 -269 z "},"#":{"ha":971,"x_min":101,"x_max":868,"o":"m 101 247 l 101 314 l 257 314 l 285 629 l 117 629 l 117 694 l 289 694 l 308 919 l 394 919 l 376 694 l 633 694 l 653 919 l 739 919 l 719 694 l 868 694 l 868 629 l 715 629 l 688 314 l 844 314 l 846 247 l 685 247 l 663 0 l 579 0 l 599 247 l 342 247 l 317 0 l 232 0 l 254 247 l 101 247 m 628 629 l 372 629 l 344 314 l 601 314 l 628 629 z "},".":{"ha":479,"x_min":161,"x_max":288,"o":"m 232 117 q 274 102 260 117 q 288 65 288 88 q 267 13 288 32 q 215 -7 246 -7 q 178 8 194 -7 q 161 46 161 24 q 183 97 161 76 q 232 117 206 117 z "},"?":{"ha":686,"x_min":88,"x_max":629,"o":"m 215 1244 q 445 1187 353 1244 q 583 1040 538 1129 q 629 854 628 951 q 617 778 629 803 q 563 726 606 754 q 444 665 532 707 q 333 606 369 631 q 297 550 297 582 q 314 458 297 503 q 368 332 331 414 l 311 332 q 265 390 292 349 q 220 480 239 432 q 201 564 201 528 q 249 633 201 603 q 389 703 297 664 q 472 740 442 725 q 522 769 501 754 q 551 819 554 793 q 504 987 551 910 q 376 1109 457 1064 q 203 1154 296 1154 q 140 1149 174 1154 q 88 1135 107 1143 l 88 1214 q 137 1235 97 1225 q 215 1244 176 1244 m 381 117 q 422 102 408 117 q 436 65 436 88 q 415 13 436 32 q 364 -7 394 -7 q 326 8 343 -7 q 310 46 310 24 q 332 97 310 76 q 381 117 354 117 z "},"¿":{"ha":685,"x_min":58,"x_max":600,"o":"m 319 967 q 361 952 347 967 q 375 915 375 938 q 354 863 375 882 q 303 843 333 843 q 265 858 282 843 q 249 896 249 874 q 271 947 249 926 q 319 967 293 967 m 376 628 q 422 569 396 611 q 467 480 449 528 q 486 396 486 432 q 438 326 486 357 q 299 257 390 296 q 216 220 246 235 q 165 190 186 206 q 136 140 133 167 q 183 -27 136 50 q 311 -149 231 -104 q 485 -194 392 -194 q 547 -189 514 -194 q 600 -175 581 -183 l 600 -254 q 551 -275 590 -265 q 472 -285 511 -285 q 242 -227 335 -285 q 105 -81 150 -169 q 58 106 60 8 q 70 181 58 157 q 125 233 82 206 q 243 294 156 253 q 354 353 318 329 q 390 410 390 378 q 374 501 390 457 q 319 628 357 546 l 376 628 z "},"\"":{"ha":854,"x_min":221,"x_max":635,"o":"m 336 1208 l 311 656 l 246 656 l 221 1208 l 336 1208 m 635 1208 l 608 656 l 544 656 l 519 1208 l 635 1208 z "},"'":{"ha":556,"x_min":221,"x_max":336,"o":"m 336 1208 l 311 656 l 246 656 l 221 1208 l 336 1208 z "},";":{"ha":479,"x_min":119,"x_max":354,"o":"m 226 667 q 268 652 254 667 q 282 615 282 638 q 261 563 282 582 q 210 543 240 543 q 172 558 189 543 q 156 596 156 574 q 178 647 156 626 q 226 667 200 667 m 213 189 q 316 110 279 172 q 353 -19 353 47 q 290 -207 354 -126 q 143 -322 226 -287 l 119 -292 l 119 -276 q 185 -233 153 -265 q 238 -154 217 -200 q 258 -60 258 -108 q 228 44 258 0 q 157 93 197 88 l 157 118 l 213 189 z "},"/":{"ha":553,"x_min":21,"x_max":488,"o":"m 488 1085 l 114 -246 l 21 -246 l 394 1085 l 488 1085 z "},"_":{"ha":960,"x_min":-14,"x_max":974,"o":"m 974 -206 l -14 -206 l -14 -131 l 974 -131 l 974 -206 z "},"{":{"ha":688,"x_min":61,"x_max":518,"o":"m 235 390 q 175 447 235 414 q 61 494 115 479 l 61 560 q 178 604 121 576 q 235 656 235 632 l 235 1011 q 243 1106 235 1075 q 275 1148 251 1136 q 347 1160 299 1160 q 418 1156 388 1160 q 489 1142 449 1151 l 518 1136 l 517 1092 l 319 1092 l 319 657 q 283 591 319 617 q 160 526 247 565 q 281 458 243 486 q 319 389 319 429 l 319 -51 l 517 -51 l 518 -97 q 423 -115 460 -110 q 338 -121 386 -121 q 272 -109 293 -121 q 243 -66 251 -97 q 235 29 235 -35 l 235 390 z "},"}":{"ha":651,"x_min":135,"x_max":590,"o":"m 332 389 q 374 460 332 428 q 492 526 415 492 q 398 573 428 557 q 350 609 368 589 q 332 657 332 629 l 332 1092 l 135 1092 l 135 1136 q 180 1146 149 1139 q 242 1156 211 1153 q 306 1160 272 1160 q 377 1148 354 1160 q 408 1106 400 1136 q 417 1011 417 1075 l 417 656 q 474 604 417 632 q 590 560 531 576 l 590 494 q 476 447 536 479 q 417 390 417 414 l 417 29 q 408 -66 417 -35 q 379 -109 400 -97 q 314 -121 358 -121 q 228 -115 265 -121 q 135 -97 192 -110 l 135 -51 l 332 -51 l 332 389 z "},"[":{"ha":579,"x_min":136,"x_max":418,"o":"m 136 1010 q 144 1105 136 1075 q 176 1147 153 1135 q 247 1158 199 1158 q 418 1136 315 1158 l 418 1092 l 221 1092 l 221 -51 l 418 -53 l 418 -97 q 235 -121 317 -121 q 172 -109 193 -121 q 144 -68 151 -97 q 136 18 136 -39 l 136 1010 z "},"]":{"ha":582,"x_min":161,"x_max":443,"o":"m 360 1092 l 163 1092 l 161 1136 q 332 1158 267 1158 q 403 1147 381 1158 q 435 1105 426 1135 q 443 1010 443 1075 l 443 18 q 435 -68 443 -39 q 407 -109 428 -97 q 344 -121 386 -121 q 161 -97 263 -121 l 163 -53 l 360 -51 l 360 1092 z "},"(":{"ha":551,"x_min":78,"x_max":451,"o":"m 399 -200 q 273 -86 346 -168 q 139 145 200 -4 q 78 499 78 294 q 140 824 78 678 q 279 1060 201 969 q 403 1176 357 1151 l 449 1149 q 341 1036 406 1121 q 224 813 276 951 q 172 501 172 675 q 224 175 172 317 q 340 -51 275 33 q 451 -167 406 -136 l 399 -200 z "},")":{"ha":551,"x_min":100,"x_max":474,"o":"m 103 -174 q 211 -60 146 -146 q 328 165 276 25 q 379 482 379 306 q 328 803 379 664 q 212 1026 276 943 q 100 1142 147 1108 l 154 1175 q 280 1060 207 1142 q 413 829 353 978 q 474 478 474 681 q 412 153 474 300 q 273 -84 350 7 q 150 -201 196 -175 l 103 -174 z "},"—":{"ha":1622,"x_min":117,"x_max":1506,"o":"m 1506 579 l 1506 504 l 117 504 l 117 579 l 1506 579 z "},"–":{"ha":954,"x_min":117,"x_max":838,"o":"m 838 579 l 838 504 l 117 504 l 117 579 l 838 579 z "},"-":{"ha":833,"x_min":117,"x_max":717,"o":"m 717 579 l 717 504 l 117 504 l 117 579 l 717 579 z "},"­":{"ha":833,"x_min":117,"x_max":717,"o":"m 117 504 m 717 579 l 717 504 l 117 504 l 117 579 l 717 579 z "},"«":{"ha":1286,"x_min":167,"x_max":1114,"o":"m 606 729 l 633 683 l 261 418 l 633 158 l 606 111 l 167 374 l 167 458 l 606 729 m 1086 729 l 1114 683 l 740 418 l 1114 158 l 1086 111 l 646 374 l 646 458 l 1086 729 z "},"»":{"ha":1286,"x_min":174,"x_max":1121,"o":"m 546 421 l 174 681 l 201 729 l 640 467 l 640 381 l 201 111 l 174 156 l 546 421 m 654 681 l 682 729 l 1121 467 l 1121 381 l 682 111 l 654 156 l 1026 421 l 654 681 z "},"‹":{"ha":807,"x_min":167,"x_max":633,"o":"m 606 729 l 633 683 l 261 418 l 633 158 l 606 111 l 167 374 l 167 458 l 606 729 z "},"›":{"ha":807,"x_min":174,"x_max":640,"o":"m 546 421 l 174 681 l 201 729 l 640 467 l 640 381 l 201 111 l 174 156 l 546 421 z "},"„":{"ha":888,"x_min":169,"x_max":776,"o":"m 261 151 q 366 72 329 135 q 403 -57 403 10 q 372 -190 403 -129 q 294 -295 342 -251 q 193 -360 246 -339 l 169 -329 l 169 -314 q 233 -270 201 -303 q 286 -192 265 -237 q 307 -97 307 -146 q 277 6 307 -37 q 207 57 247 50 l 207 82 l 261 151 m 636 151 q 740 72 703 135 q 776 -57 776 10 q 746 -190 776 -128 q 667 -294 715 -251 q 567 -360 618 -337 l 543 -329 l 543 -314 q 607 -270 575 -303 q 660 -192 639 -237 q 681 -97 681 -146 q 651 6 681 -37 q 581 57 621 50 l 581 82 l 636 151 z "},"“":{"ha":883,"x_min":143,"x_max":735,"o":"m 283 646 q 179 726 215 663 q 143 858 143 790 q 174 990 143 929 q 252 1094 204 1051 q 351 1157 300 1136 l 376 1129 l 376 1111 q 311 1068 343 1100 q 258 990 279 1036 q 238 896 238 944 q 267 792 238 835 q 338 742 297 749 l 338 718 l 283 646 m 642 646 q 538 728 574 663 q 501 861 501 793 q 565 1045 501 967 q 711 1157 628 1124 l 735 1129 l 735 1111 q 671 1068 703 1100 q 618 990 639 1036 q 597 896 597 944 q 627 792 597 835 q 696 742 657 749 l 696 718 l 642 646 z "},"”":{"ha":899,"x_min":149,"x_max":757,"o":"m 149 701 q 214 745 182 713 q 267 823 246 778 q 288 918 288 868 q 258 1021 288 978 q 188 1071 228 1064 l 188 1096 l 242 1165 q 346 1087 310 1149 q 382 957 382 1025 q 353 824 383 886 q 274 719 322 763 q 174 654 225 676 l 149 685 l 149 701 m 522 701 q 588 745 556 713 q 640 823 619 778 q 661 918 661 868 q 631 1021 661 978 q 561 1071 600 1064 l 561 1096 l 615 1165 q 719 1087 683 1149 q 756 957 756 1025 q 726 824 757 886 q 647 719 696 763 q 547 654 599 676 l 522 685 l 522 701 z "},"‘":{"ha":525,"x_min":143,"x_max":376,"o":"m 283 646 q 179 726 215 663 q 143 858 143 790 q 174 990 143 929 q 252 1094 204 1051 q 351 1157 300 1136 l 376 1129 l 376 1111 q 311 1068 343 1100 q 258 990 279 1036 q 238 896 238 944 q 267 792 238 835 q 338 742 297 749 l 338 718 l 283 646 z "},"’":{"ha":525,"x_min":121,"x_max":354,"o":"m 121 701 q 186 745 154 713 q 239 823 218 778 q 260 918 260 868 q 229 1021 260 978 q 160 1071 199 1064 l 160 1096 l 214 1165 q 318 1086 282 1149 q 354 957 354 1024 q 324 824 354 885 q 245 719 293 763 q 144 654 197 675 l 121 685 l 121 701 z "},"‚":{"ha":510,"x_min":121,"x_max":356,"o":"m 214 150 q 317 71 281 133 q 354 -58 354 8 q 292 -246 356 -165 q 144 -361 229 -326 l 121 -332 l 121 -315 q 186 -272 154 -304 q 239 -194 218 -239 q 260 -99 260 -149 q 229 5 260 -39 q 160 54 199 49 l 160 79 l 214 150 z "},"ॽ":{"ha":739,"x_min":147,"x_max":619,"o":"m 340 907 q 474 862 410 907 q 579 744 539 817 q 619 590 619 671 q 579 482 619 528 q 478 407 539 436 q 335 363 406 372 l 335 -15 l 318 -15 l 258 18 l 260 422 l 265 436 q 465 494 399 449 q 529 554 507 522 q 550 644 551 586 q 519 734 549 689 q 447 808 489 779 q 369 838 406 838 q 186 760 289 838 l 147 833 q 247 882 183 857 q 340 907 310 907 z "},"।":{"ha":664,"x_min":371,"x_max":447,"o":"m 447 861 l 447 -15 l 431 -15 l 371 18 l 371 894 l 388 894 l 447 861 z "},"॥":{"ha":1031,"x_min":371,"x_max":814,"o":"m 447 861 l 447 -15 l 431 -15 l 371 18 l 371 894 l 388 894 l 447 861 m 814 861 l 814 -15 l 797 -15 l 738 18 l 738 894 l 754 894 l 814 861 z "},"॰":{"ha":621,"x_min":106,"x_max":514,"o":"m 106 386 q 138 496 106 447 q 219 572 171 544 q 315 599 268 599 q 411 573 365 599 q 485 499 457 547 q 514 386 514 451 q 479 268 514 317 q 396 194 444 219 q 306 169 347 169 q 208 197 254 169 q 133 274 161 224 q 106 386 106 324 m 178 414 q 201 324 178 364 q 260 263 225 285 q 325 240 294 240 q 408 271 371 240 q 444 357 444 301 q 422 440 444 400 q 365 505 400 481 q 299 529 331 529 q 215 499 253 529 q 178 414 178 469 z "},"ॱ":{"ha":399,"x_min":101,"x_max":276,"o":"m 276 847 l 189 760 l 101 847 l 189 935 l 276 847 z "}," ":{"ha":1389,"x_min":0,"x_max":0,"o":""}," ":{"ha":1389,"x_min":0,"x_max":0,"o":""}," ":{"ha":694,"x_min":0,"x_max":0,"o":""}," ":{"ha":694,"x_min":0,"x_max":0,"o":""}," ":{"ha":874,"x_min":0,"x_max":0,"o":""}," ":{"ha":347,"x_min":0,"x_max":0,"o":""}," ":{"ha":139,"x_min":0,"x_max":0,"o":""}," ":{"ha":490,"x_min":0,"x_max":0,"o":""}," ":{"ha":232,"x_min":0,"x_max":0,"o":""}," ":{"ha":339,"x_min":0,"x_max":0,"o":""}," ":{"ha":278,"x_min":0,"x_max":0,"o":""}," ":{"ha":463,"x_min":0,"x_max":0,"o":""},"‍":{"ha":0,"x_min":0,"x_max":0,"o":""},"‌":{"ha":0,"x_min":0,"x_max":0,"o":""},"":{"ha":0,"x_min":0,"x_max":0,"o":""},"¢":{"ha":756,"x_min":88,"x_max":671,"o":"m 350 -10 q 156 115 224 11 q 88 372 88 219 q 131 572 88 485 q 249 712 174 660 q 419 776 324 764 l 431 924 l 496 924 l 486 779 q 582 769 536 778 q 650 746 628 760 l 650 600 l 600 600 l 572 688 q 446 718 531 718 q 313 681 374 718 q 217 574 253 644 q 182 404 182 503 q 220 207 182 285 q 319 93 258 129 q 449 57 379 57 q 560 72 499 57 q 653 108 621 86 l 671 60 q 563 6 632 25 q 417 -14 494 -12 l 408 -146 l 343 -146 l 350 -10 z "},"¤":{"ha":974,"x_min":160,"x_max":814,"o":"m 325 672 q 482 725 396 725 q 649 665 575 725 l 769 785 l 814 739 l 692 617 q 740 468 740 549 q 686 310 740 376 l 807 190 l 760 144 l 640 265 q 482 211 571 211 q 329 261 397 211 l 208 140 l 164 186 l 282 306 q 225 468 225 374 q 279 626 225 560 l 160 747 l 204 793 l 325 672 m 482 658 q 390 633 432 658 q 324 563 349 607 q 300 468 300 519 q 324 373 300 417 q 390 303 349 329 q 482 278 432 278 q 573 303 531 278 q 640 373 615 329 q 665 468 665 417 q 640 563 665 519 q 573 633 615 607 q 482 658 531 658 z "},"$":{"ha":861,"x_min":118,"x_max":778,"o":"m 168 246 l 200 107 q 303 54 238 69 q 440 39 368 39 q 611 88 539 39 q 683 240 683 138 q 647 344 683 299 q 558 422 611 389 q 417 497 504 456 q 265 580 325 542 q 165 672 206 618 q 125 799 125 726 q 167 935 125 879 q 275 1022 210 992 q 413 1060 340 1053 l 417 1174 l 497 1174 l 493 1061 q 715 1008 640 1054 l 715 828 l 668 828 l 629 963 q 446 1010 575 1010 q 340 990 392 1010 q 253 925 288 969 q 218 814 218 881 q 251 718 218 760 q 335 646 285 676 q 467 576 385 615 q 628 491 565 529 q 735 397 692 453 q 778 267 778 342 q 690 63 778 133 q 461 -14 601 -7 l 456 -157 l 375 -157 l 378 -14 q 220 8 294 -8 q 118 43 146 25 l 118 246 l 168 246 z "},"€":{"ha":943,"x_min":-26,"x_max":861,"o":"m 582 1060 q 709 1049 653 1060 q 828 1019 765 1038 l 860 1011 l 850 833 l 806 833 l 779 947 q 684 986 744 972 q 551 1000 624 1000 q 342 922 428 1000 q 225 693 257 843 l 643 693 l 643 626 l 214 626 q 208 524 208 563 q 211 451 208 499 l 624 451 l 624 386 l 218 386 q 321 131 240 225 q 546 36 401 36 q 690 52 631 36 q 789 103 749 68 l 806 182 l 813 218 l 861 218 l 861 43 q 797 25 840 40 q 668 -8 728 4 q 521 -19 608 -19 q 242 90 349 -19 q 113 386 136 200 l -26 386 l -26 451 l 107 451 q 106 492 106 464 q 115 626 106 551 l -6 626 l -6 693 l 129 693 q 295 964 176 868 q 582 1060 414 1060 z "},"ƒ":{"ha":721,"x_min":121,"x_max":678,"o":"m 121 675 l 124 717 l 281 746 l 286 817 q 342 986 294 913 q 455 1100 389 1060 q 582 1140 521 1140 q 678 1129 651 1140 l 672 1042 q 629 1056 660 1050 q 557 1061 599 1061 q 443 1017 489 1061 q 388 856 397 974 l 376 746 l 600 746 l 594 675 l 372 675 l 303 -240 l 206 -240 l 274 675 l 121 675 z "},"₹":{"ha":876,"x_min":207,"x_max":779,"o":"m 753 819 l 467 819 q 550 674 538 753 l 778 674 l 778 660 l 754 613 l 551 613 q 300 365 535 442 l 628 18 l 574 -22 l 303 286 q 253 353 269 321 q 235 406 238 385 l 242 411 q 328 446 276 419 q 425 515 381 472 q 476 613 469 558 l 207 613 l 207 628 l 232 674 l 471 674 q 360 819 449 743 l 208 819 l 208 835 l 233 881 l 779 881 l 779 867 l 753 819 z "},"£":{"ha":978,"x_min":60,"x_max":913,"o":"m 619 1058 q 723 1047 679 1060 q 803 1003 767 1033 l 753 910 q 724 941 747 921 q 661 978 700 961 q 576 994 622 994 q 446 923 497 994 q 394 671 394 851 l 394 593 l 635 593 l 635 518 l 394 518 l 394 458 q 367 245 394 324 q 288 97 339 167 q 419 68 329 96 q 550 38 507 43 q 621 32 585 32 q 773 82 729 32 q 817 204 817 132 q 801 272 817 242 q 756 324 786 303 l 801 411 q 910 253 892 371 q 913 218 913 231 q 849 51 913 124 q 622 -22 785 -22 q 474 -10 540 -25 q 332 29 407 4 q 267 48 286 43 q 233 50 249 53 q 179 -1 210 19 q 117 -21 149 -21 q 77 -10 94 -21 q 60 29 60 0 q 81 72 60 51 q 140 103 103 92 q 222 113 178 114 q 274 210 251 142 q 296 344 296 278 l 296 518 l 161 518 l 161 593 l 296 593 l 296 668 q 336 866 296 778 q 450 1006 376 954 q 619 1058 524 1057 z "},"¥":{"ha":954,"x_min":17,"x_max":922,"o":"m 425 63 l 425 276 l 124 276 l 124 344 l 425 344 l 425 519 l 124 519 l 124 586 l 388 586 l 111 990 l 17 1001 l 17 1053 l 335 1053 l 335 1001 l 225 992 l 439 665 l 479 586 l 494 586 l 540 669 q 647 844 554 693 q 738 992 703 932 l 632 1001 l 632 1053 l 922 1053 l 922 1001 l 825 985 l 563 586 l 821 586 l 821 519 l 524 519 l 524 344 l 821 344 l 821 276 l 524 276 l 524 63 l 669 46 l 669 0 l 283 0 l 283 46 l 425 63 z "},"≈":{"ha":865,"x_min":104,"x_max":756,"o":"m 104 665 q 196 752 138 717 q 324 788 254 788 q 388 771 360 788 q 453 721 415 754 q 508 677 485 692 q 557 663 531 663 q 638 684 604 663 q 710 743 672 706 l 747 696 q 656 609 714 644 q 528 574 597 574 q 464 590 492 574 q 399 640 436 607 q 344 684 367 669 q 294 699 321 699 q 212 676 247 699 q 142 618 176 654 l 104 665 m 114 400 q 204 487 146 451 q 333 522 263 522 q 397 506 369 522 q 463 456 425 489 q 518 413 496 426 q 567 399 540 399 q 648 420 613 399 q 719 478 683 442 l 756 432 q 665 344 724 381 q 538 308 607 308 q 473 326 501 308 q 408 376 444 343 q 353 420 376 406 q 304 435 331 435 q 222 413 257 435 q 151 353 188 390 l 114 400 z "},"~":{"ha":853,"x_min":104,"x_max":747,"o":"m 104 586 q 195 674 138 639 q 322 710 253 710 q 388 692 360 710 q 453 642 417 675 q 507 599 485 613 q 556 585 529 585 q 637 606 603 585 q 708 665 671 628 l 747 618 q 656 531 714 567 q 526 494 597 494 q 462 512 490 494 q 397 563 433 529 q 342 606 365 592 q 293 621 319 621 q 212 599 246 621 q 142 540 178 578 l 104 586 z "},"÷":{"ha":861,"x_min":117,"x_max":744,"o":"m 438 872 q 488 854 471 872 q 506 808 506 836 q 481 753 506 775 q 425 732 457 732 q 378 750 397 732 q 358 797 358 768 q 383 850 358 828 q 438 872 408 872 m 744 504 l 117 504 l 117 579 l 744 579 l 744 504 m 447 340 q 483 323 471 338 q 494 289 494 308 q 493 274 494 279 q 467 228 490 244 q 415 215 444 213 q 381 234 394 219 q 368 271 368 249 q 393 323 368 303 q 447 340 418 343 z "},"=":{"ha":833,"x_min":117,"x_max":717,"o":"m 717 714 l 717 639 l 117 639 l 117 714 l 717 714 m 717 438 l 717 363 l 117 363 l 117 438 l 717 438 z "},">":{"ha":890,"x_min":140,"x_max":797,"o":"m 708 510 l 140 799 l 140 893 l 797 544 l 797 476 l 140 126 l 140 221 l 708 510 z "},"≥":{"ha":890,"x_min":117,"x_max":774,"o":"m 653 663 l 117 890 l 117 979 l 774 686 l 774 640 l 117 344 l 117 433 l 653 663 m 774 196 l 774 119 l 117 119 l 117 196 l 774 196 z "},"∆":{"ha":1200,"x_min":100,"x_max":1090,"o":"m 588 1006 l 1090 18 l 1079 0 l 110 0 l 100 15 l 567 1006 l 588 1006 m 560 856 l 190 64 l 956 64 l 560 856 z "},"∞":{"ha":1200,"x_min":78,"x_max":1107,"o":"m 878 661 q 1001 630 950 661 q 1080 546 1053 599 q 1107 431 1107 493 q 1073 301 1107 360 q 982 208 1039 242 q 860 175 925 175 q 716 224 779 175 q 579 361 653 272 q 496 262 531 299 q 417 200 461 225 q 319 175 372 175 q 191 207 246 175 q 107 292 136 239 q 78 407 78 344 q 113 536 78 478 q 204 628 147 594 q 326 661 261 661 q 468 612 404 661 q 607 475 532 563 q 741 613 681 565 q 878 661 801 661 m 311 597 q 207 550 244 597 q 169 428 169 503 q 217 292 169 347 q 333 238 264 238 q 439 280 390 238 q 549 403 488 322 l 528 429 q 417 553 467 510 q 311 597 368 597 m 863 594 q 636 435 760 594 q 765 288 708 342 q 883 235 822 235 q 983 283 949 235 q 1017 410 1017 332 q 974 542 1017 489 q 863 594 931 594 z "},"∫":{"ha":721,"x_min":0,"x_max":665,"o":"m 503 1147 q 598 1129 550 1147 q 665 1065 646 1111 l 597 1018 q 556 1064 588 1044 q 488 1083 524 1083 q 360 1023 396 1083 q 325 849 325 963 q 338 667 325 761 q 378 431 351 572 q 417 199 404 290 q 431 26 431 108 q 398 -137 431 -61 q 304 -258 365 -212 q 163 -304 243 -304 q 68 -286 115 -304 q 0 -222 21 -268 l 69 -175 q 110 -221 78 -201 q 179 -240 142 -240 q 306 -180 272 -240 q 340 0 340 -119 q 327 167 340 76 q 289 392 314 257 q 248 637 261 543 q 235 815 235 731 q 267 978 235 903 q 360 1101 300 1054 q 503 1147 421 1147 z "},"<":{"ha":890,"x_min":93,"x_max":751,"o":"m 751 893 l 751 800 l 182 510 l 751 221 l 751 126 l 93 475 l 93 544 l 751 893 z "},"≤":{"ha":890,"x_min":117,"x_max":774,"o":"m 774 979 l 774 890 l 236 663 l 774 433 l 774 344 l 117 640 l 117 686 l 774 979 m 774 196 l 774 119 l 117 119 l 117 196 l 774 196 z "},"¬":{"ha":828,"x_min":117,"x_max":711,"o":"m 711 579 l 711 219 l 626 219 l 626 511 l 117 511 l 117 579 l 711 579 z "},"−":{"ha":833,"x_min":117,"x_max":717,"o":"m 717 579 l 717 504 l 117 504 l 117 579 l 717 579 z "}}}
